<svg xmlns="http://www.w3.org/2000/svg" viewBox="0 0 2358 235" role="img" aria-label="Privacy Terminal">
  <defs>
    <filter id="glow" x="-10%" y="-10%" width="120%" height="120%">
      <feGaussianBlur stdDeviation="1.5" result="blur"/>
      <feMerge>
        <feMergeNode in="blur"/>
        <feMergeNode in="SourceGraphic"/>
      </feMerge>
    </filter>
  </defs>
  <g transform="translate(0.000000,235.000000) scale(0.100000,-0.100000)"
fill="#00ff41" stroke="none" filter="url(#glow)">

<path d="M370 1985 l0 -165 505 0 505 0 0 165 0 165 -505 0 -505 0 0 -165z"/>
<path d="M1720 1985 l0 -165 505 0 505 0 0 165 0 165 -505 0 -505 0 0 -165z"/>
<path d="M3070 1985 l0 -165 165 0 165 0 0 165 0 165 -165 0 -165 0 0 -165z"/>
<path d="M3570 1985 l0 -165 170 0 170 0 0 165 0 165 -170 0 -170 0 0 -165z"/>
<path d="M4580 1985 l0 -165 170 0 170 0 0 165 0 165 -170 0 -170 0 0 -165z"/>
<path d="M5260 1985 l0 -165 420 0 420 0 0 165 0 165 -420 0 -420 0 0 -165z"/>
<path d="M6610 1985 l0 -165 505 0 505 0 0 165 0 165 -505 0 -505 0 0 -165z"/>
<path d="M7790 1985 l0 -165 170 0 170 0 0 165 0 165 -170 0 -170 0 0 -165z"/>
<path d="M8800 1985 l0 -165 170 0 170 0 0 165 0 165 -170 0 -170 0 0 -165z"/>
<path d="M9980 1985 l0 -165 675 0 675 0 0 165 0 165 -675 0 -675 0 0 -165z"/>
<path d="M11500 1985 l0 -165 590 0 590 0 0 165 0 165 -590 0 -590 0 0 -165z"/>
<path d="M12840 1985 l0 -165 510 0 510 0 0 165 0 165 -510 0 -510 0 0 -165z"/>
<path d="M14190 1985 l0 -165 255 0 255 0 0 165 0 165 -255 0 -255 0 0 -165z"/>
<path d="M15370 1985 l0 -165 255 0 255 0 0 165 0 165 -255 0 -255 0 0 -165z"/>
<path d="M16050 1985 l0 -165 170 0 170 0 0 165 0 165 -170 0 -170 0 0 -165z"/>
<path d="M16550 1985 l0 -165 255 0 255 0 0 165 0 165 -255 0 -255 0 0 -165z"/>
<path d="M17730 1985 l0 -165 170 0 170 0 0 165 0 165 -170 0 -170 0 0 -165z"/>
<path d="M18410 1985 l0 -165 420 0 420 0 0 165 0 165 -420 0 -420 0 0 -165z"/>
<path d="M19590 1985 l0 -165 170 0 170 0 0 165 0 165 -170 0 -170 0 0 -165z"/>
<path d="M370 1595 l0 -165 170 0 170 0 0 165 0 165 -170 0 -170 0 0 -165z"/>
<path d="M1210 1595 l0 -165 170 0 170 0 0 165 0 165 -170 0 -170 0 0 -165z"/>
<path d="M1720 1595 l0 -165 170 0 170 0 0 165 0 165 -170 0 -170 0 0 -165z"/>
<path d="M2560 1595 l0 -165 170 0 170 0 0 165 0 165 -170 0 -170 0 0 -165z"/>
<path d="M3070 1595 l0 -165 165 0 165 0 0 165 0 165 -165 0 -165 0 0 -165z"/>
<path d="M3570 1595 l0 -165 170 0 170 0 0 165 0 165 -170 0 -170 0 0 -165z"/>
<path d="M4580 1595 l0 -165 170 0 170 0 0 165 0 165 -170 0 -170 0 0 -165z"/>
<path d="M5090 1595 l0 -165 170 0 170 0 0 165 0 165 -170 0 -170 0 0 -165z"/>
<path d="M5930 1595 l0 -165 170 0 170 0 0 165 0 165 -170 0 -170 0 0 -165z"/>
<path d="M6440 1595 l0 -165 170 0 170 0 0 165 0 165 -170 0 -170 0 0 -165z"/>
<path d="M7960 1595 l0 -165 165 0 165 0 0 165 0 165 -165 0 -165 0 0 -165z"/>
<path d="M8630 1595 l0 -165 170 0 170 0 0 165 0 165 -170 0 -170 0 0 -165z"/>
<path d="M10480 1595 l0 -165 170 0 170 0 0 165 0 165 -170 0 -170 0 0 -165z"/>
<path d="M11500 1595 l0 -165 165 0 165 0 0 165 0 165 -165 0 -165 0 0 -165z"/>
<path d="M12840 1595 l0 -165 170 0 170 0 0 165 0 165 -170 0 -170 0 0 -165z"/>
<path d="M13690 1595 l0 -165 170 0 170 0 0 165 0 165 -170 0 -170 0 0 -165z"/>
<path d="M14190 1595 l0 -165 340 0 340 0 0 165 0 165 -340 0 -340 0 0 -165z"/>
<path d="M15200 1595 l0 -165 340 0 340 0 0 165 0 165 -340 0 -340 0 0 -165z"/>
<path d="M16050 1595 l0 -165 170 0 170 0 0 165 0 165 -170 0 -170 0 0 -165z"/>
<path d="M16550 1595 l0 -165 340 0 340 0 0 165 0 165 -340 0 -340 0 0 -165z"/>
<path d="M17730 1595 l0 -165 170 0 170 0 0 165 0 165 -170 0 -170 0 0 -165z"/>
<path d="M18240 1595 l0 -165 170 0 170 0 0 165 0 165 -170 0 -170 0 0 -165z"/>
<path d="M19080 1595 l0 -165 170 0 170 0 0 165 0 165 -170 0 -170 0 0 -165z"/>
<path d="M19590 1595 l0 -165 170 0 170 0 0 165 0 165 -170 0 -170 0 0 -165z"/>
<path d="M370 1205 l0 -165 505 0 505 0 0 165 0 165 -505 0 -505 0 0 -165z"/>
<path d="M1720 1205 l0 -165 505 0 505 0 0 165 0 165 -505 0 -505 0 0 -165z"/>
<path d="M3070 1205 l0 -165 165 0 165 0 0 165 0 165 -165 0 -165 0 0 -165z"/>
<path d="M3570 1205 l0 -165 170 0 170 0 0 165 0 165 -170 0 -170 0 0 -165z"/>
<path d="M4580 1205 l0 -165 170 0 170 0 0 165 0 165 -170 0 -170 0 0 -165z"/>
<path d="M5090 1205 l0 -165 590 0 590 0 0 165 0 165 -590 0 -590 0 0 -165z"/>
<path d="M6440 1205 l0 -165 170 0 170 0 0 165 0 165 -170 0 -170 0 0 -165z"/>
<path d="M8120 1205 l0 -165 340 0 340 0 0 165 0 165 -340 0 -340 0 0 -165z"/>
<path d="M10480 1205 l0 -165 170 0 170 0 0 165 0 165 -170 0 -170 0 0 -165z"/>
<path d="M11500 1205 l0 -165 420 0 420 0 0 165 0 165 -420 0 -420 0 0 -165z"/>
<path d="M12840 1205 l0 -165 510 0 510 0 0 165 0 165 -510 0 -510 0 0 -165z"/>
<path d="M14190 1205 l0 -165 170 0 170 0 0 165 0 165 -170 0 -170 0 0 -165z"/>
<path d="M14700 1205 l0 -165 335 0 335 0 0 165 0 165 -335 0 -335 0 0 -165z"/>
<path d="M15540 1205 l0 -165 170 0 170 0 0 165 0 165 -170 0 -170 0 0 -165z"/>
<path d="M16050 1205 l0 -165 170 0 170 0 0 165 0 165 -170 0 -170 0 0 -165z"/>
<path d="M16550 1205 l0 -165 170 0 170 0 0 165 0 165 -170 0 -170 0 0 -165z"/>
<path d="M17060 1205 l0 -165 170 0 170 0 0 165 0 165 -170 0 -170 0 0 -165z"/>
<path d="M17730 1205 l0 -165 170 0 170 0 0 165 0 165 -170 0 -170 0 0 -165z"/>
<path d="M18240 1205 l0 -165 590 0 590 0 0 165 0 165 -590 0 -590 0 0 -165z"/>
<path d="M19590 1205 l0 -165 170 0 170 0 0 165 0 165 -170 0 -170 0 0 -165z"/>
<path d="M370 815 l0 -165 170 0 170 0 0 165 0 165 -170 0 -170 0 0 -165z"/>
<path d="M1720 815 l0 -165 170 0 170 0 0 165 0 165 -170 0 -170 0 0 -165z"/>
<path d="M2560 815 l0 -165 170 0 170 0 0 165 0 165 -170 0 -170 0 0 -165z"/>
<path d="M3070 815 l0 -165 165 0 165 0 0 165 0 165 -165 0 -165 0 0 -165z"/>
<path d="M3740 815 l0 -165 170 0 170 0 0 165 0 165 -170 0 -170 0 0 -165z"/>
<path d="M4410 815 l0 -165 170 0 170 0 0 165 0 165 -170 0 -170 0 0 -165z"/>
<path d="M5090 815 l0 -165 170 0 170 0 0 165 0 165 -170 0 -170 0 0 -165z"/>
<path d="M5930 815 l0 -165 170 0 170 0 0 165 0 165 -170 0 -170 0 0 -165z"/>
<path d="M6440 815 l0 -165 170 0 170 0 0 165 0 165 -170 0 -170 0 0 -165z"/>
<path d="M8290 815 l0 -165 170 0 170 0 0 165 0 165 -170 0 -170 0 0 -165z"/>
<path d="M10480 815 l0 -165 170 0 170 0 0 165 0 165 -170 0 -170 0 0 -165z"/>
<path d="M11500 815 l0 -165 165 0 165 0 0 165 0 165 -165 0 -165 0 0 -165z"/>
<path d="M12840 815 l0 -165 170 0 170 0 0 165 0 165 -170 0 -170 0 0 -165z"/>
<path d="M13690 815 l0 -165 170 0 170 0 0 165 0 165 -170 0 -170 0 0 -165z"/>
<path d="M14190 815 l0 -165 170 0 170 0 0 165 0 165 -170 0 -170 0 0 -165z"/>
<path d="M14870 815 l0 -165 170 0 170 0 0 165 0 165 -170 0 -170 0 0 -165z"/>
<path d="M15540 815 l0 -165 170 0 170 0 0 165 0 165 -170 0 -170 0 0 -165z"/>
<path d="M16050 815 l0 -165 170 0 170 0 0 165 0 165 -170 0 -170 0 0 -165z"/>
<path d="M16550 815 l0 -165 170 0 170 0 0 165 0 165 -170 0 -170 0 0 -165z"/>
<path d="M17230 815 l0 -165 170 0 170 0 0 165 0 165 -170 0 -170 0 0 -165z"/>
<path d="M17730 815 l0 -165 170 0 170 0 0 165 0 165 -170 0 -170 0 0 -165z"/>
<path d="M18240 815 l0 -165 170 0 170 0 0 165 0 165 -170 0 -170 0 0 -165z"/>
<path d="M19080 815 l0 -165 170 0 170 0 0 165 0 165 -170 0 -170 0 0 -165z"/>
<path d="M19590 815 l0 -165 170 0 170 0 0 165 0 165 -170 0 -170 0 0 -165z"/>
<path d="M370 425 l0 -165 170 0 170 0 0 165 0 165 -170 0 -170 0 0 -165z"/>
<path d="M1720 425 l0 -165 170 0 170 0 0 165 0 165 -170 0 -170 0 0 -165z"/>
<path d="M2560 425 l0 -165 170 0 170 0 0 165 0 165 -170 0 -170 0 0 -165z"/>
<path d="M3070 425 l0 -165 165 0 165 0 0 165 0 165 -165 0 -165 0 0 -165z"/>
<path d="M3910 425 l0 -165 335 0 335 0 0 165 0 165 -335 0 -335 0 0 -165z"/>
<path d="M5090 425 l0 -165 170 0 170 0 0 165 0 165 -170 0 -170 0 0 -165z"/>
<path d="M5930 425 l0 -165 170 0 170 0 0 165 0 165 -170 0 -170 0 0 -165z"/>
<path d="M6610 425 l0 -165 505 0 505 0 0 165 0 165 -505 0 -505 0 0 -165z"/>
<path d="M8290 425 l0 -165 170 0 170 0 0 165 0 165 -170 0 -170 0 0 -165z"/>
<path d="M10480 425 l0 -165 170 0 170 0 0 165 0 165 -170 0 -170 0 0 -165z"/>
<path d="M11500 425 l0 -165 590 0 590 0 0 165 0 165 -590 0 -590 0 0 -165z"/>
<path d="M12840 425 l0 -165 170 0 170 0 0 165 0 165 -170 0 -170 0 0 -165z"/>
<path d="M13690 425 l0 -165 170 0 170 0 0 165 0 165 -170 0 -170 0 0 -165z"/>
<path d="M14190 425 l0 -165 170 0 170 0 0 165 0 165 -170 0 -170 0 0 -165z"/>
<path d="M15540 425 l0 -165 170 0 170 0 0 165 0 165 -170 0 -170 0 0 -165z"/>
<path d="M16050 425 l0 -165 170 0 170 0 0 165 0 165 -170 0 -170 0 0 -165z"/>
<path d="M16550 425 l0 -165 170 0 170 0 0 165 0 165 -170 0 -170 0 0 -165z"/>
<path d="M17400 425 l0 -165 335 0 335 0 0 165 0 165 -335 0 -335 0 0 -165z"/>
<path d="M18240 425 l0 -165 170 0 170 0 0 165 0 165 -170 0 -170 0 0 -165z"/>
<path d="M19080 425 l0 -165 170 0 170 0 0 165 0 165 -170 0 -170 0 0 -165z"/>
<path d="M19590 425 l0 -165 590 0 590 0 0 165 0 165 -590 0 -590 0 0 -165z"/>
  </g>
</svg>