<svg xmlns="http://www.w3.org/2000/svg" viewBox="0 0 1182 468" role="img" aria-label="Privacy Terminal">
  <defs>
    <filter id="glow" x="-10%" y="-10%" width="120%" height="120%">
      <feGaussianBlur stdDeviation="1.5" result="blur"/>
      <feMerge>
        <feMergeNode in="blur"/>
        <feMergeNode in="SourceGraphic"/>
      </feMerge>
    </filter>
  </defs>
  <g transform="translate(0,468) scale(0.1,-0.1)" fill="#00ff41" stroke="none" filter="url(#glow)">
    <path d="M0 2340 l0 -2340 5910 0 5910 0 0 2340 0 2340 -5910 0 -5910 0 0
-2340z m1480 1975 l0 -65 60 0 60 0 0 -100 c0 -124 -18 -134 -22 -12 l-3 87
-49 3 c-36 2 -47 0 -44 -10 3 -7 19 -14 36 -16 l32 -3 0 -75 c0 -43 -4 -74
-10 -74 -6 0 -10 28 -10 65 0 63 -1 65 -25 65 -24 0 -25 -2 -25 -65 l0 -65
-505 0 -505 0 0 165 0 165 505 0 505 0 0 -65z m1350 0 l0 -65 60 0 60 0 0
-100 c0 -124 -18 -134 -22 -12 l-3 87 -49 3 c-36 2 -47 0 -44 -10 3 -7 19 -14
36 -16 l32 -3 0 -75 c0 -43 -4 -74 -10 -74 -6 0 -10 28 -10 65 0 63 -1 65 -25
65 -24 0 -25 -2 -25 -65 l0 -65 -505 0 -505 0 0 165 0 165 505 0 505 0 0 -65z
m670 0 l0 -65 60 0 60 0 0 -100 c0 -124 -18 -134 -22 -12 l-3 87 -49 3 c-36 2
-47 0 -44 -10 3 -7 19 -14 36 -16 l32 -3 0 -75 c0 -43 -4 -74 -10 -74 -6 0
-10 28 -10 65 0 63 -1 65 -25 65 -24 0 -25 -2 -25 -65 l0 -65 -165 0 -165 0 0
165 0 165 165 0 165 0 0 -65z m510 0 l0 -65 60 0 60 0 0 -100 c0 -124 -18
-134 -22 -12 l-3 87 -49 3 c-36 2 -47 0 -44 -10 3 -7 19 -14 36 -16 l32 -3 0
-75 c0 -43 -4 -74 -10 -74 -6 0 -10 28 -10 65 0 63 -1 65 -25 65 -24 0 -25 -2
-25 -65 l0 -65 -170 0 -170 0 0 165 0 165 170 0 170 0 0 -65z m1010 0 l0 -65
60 0 60 0 0 -100 c0 -124 -18 -134 -22 -12 l-3 87 -49 3 c-36 2 -47 0 -44 -10
3 -7 19 -14 36 -16 l32 -3 0 -75 c0 -43 -4 -74 -10 -74 -6 0 -10 28 -10 65 0
63 -1 65 -25 65 -24 0 -25 -2 -25 -65 l0 -65 -170 0 -170 0 0 165 0 165 170 0
170 0 0 -65z m1180 0 l0 -65 60 0 60 0 0 -100 c0 -124 -18 -134 -22 -12 l-3
87 -49 3 c-36 2 -47 0 -44 -10 3 -7 19 -14 36 -16 l32 -3 0 -75 c0 -43 -4 -74
-10 -74 -6 0 -10 28 -10 65 0 63 -1 65 -25 65 -24 0 -25 -2 -25 -65 l0 -65
-420 0 -420 0 0 165 0 165 420 0 420 0 0 -65z m1520 0 l0 -65 60 0 60 0 0
-100 c0 -124 -18 -134 -22 -12 l-3 87 -49 3 c-36 2 -47 0 -44 -10 3 -7 19 -14
36 -16 l32 -3 0 -75 c0 -43 -4 -74 -10 -74 -6 0 -10 28 -10 65 0 63 -1 65 -25
65 -24 0 -25 -2 -25 -65 l0 -65 -505 0 -505 0 0 165 0 165 505 0 505 0 0 -65z
m510 0 l0 -65 55 0 55 0 0 -100 c0 -124 -18 -134 -22 -12 l-3 87 -44 3 c-32 2
-42 0 -39 -10 3 -7 17 -14 31 -16 27 -3 27 -5 27 -78 0 -43 -4 -74 -10 -74 -6
0 -10 28 -10 65 0 58 -2 65 -20 65 -18 0 -20 -7 -20 -65 l0 -65 -170 0 -170 0
0 165 0 165 170 0 170 0 0 -65z m1010 0 l0 -65 60 0 60 0 0 -100 c0 -124 -18
-134 -22 -12 l-3 87 -49 3 c-36 2 -47 0 -44 -10 3 -7 19 -14 36 -16 l32 -3 0
-75 c0 -43 -4 -74 -10 -74 -6 0 -10 28 -10 65 0 63 -1 65 -25 65 -24 0 -25 -2
-25 -65 l0 -65 -170 0 -170 0 0 165 0 165 170 0 170 0 0 -65z m-8430 -440 l0
-165 -170 0 -170 0 0 165 0 165 170 0 170 0 0 -165z m840 100 l0 -65 60 0 60
0 0 -100 c0 -124 -18 -134 -22 -12 l-3 87 -49 3 c-36 2 -47 0 -44 -10 3 -7 19
-14 36 -16 l32 -3 0 -75 c0 -43 -4 -74 -10 -74 -6 0 -10 28 -10 65 0 63 -1 65
-25 65 -24 0 -25 -2 -25 -65 l0 -65 -170 0 -170 0 0 65 0 65 -190 0 -190 0 0
-65 c0 -37 -4 -65 -10 -65 -6 0 -10 32 -10 75 0 75 0 75 28 76 15 0 103 1 196
2 125 2 170 5 173 15 4 9 -43 12 -211 12 l-216 0 0 -90 c0 -53 -4 -90 -10 -90
-6 0 -10 40 -10 100 l0 100 225 0 225 0 0 65 0 65 170 0 170 0 0 -65z m510
-100 l0 -165 -170 0 -170 0 0 165 0 165 170 0 170 0 0 -165z m840 100 l0 -65
60 0 60 0 0 -100 c0 -124 -18 -134 -22 -12 l-3 87 -49 3 c-36 2 -47 0 -44 -10
3 -7 19 -14 36 -16 l32 -3 0 -75 c0 -43 -4 -74 -10 -74 -6 0 -10 28 -10 65 0
63 -1 65 -25 65 -24 0 -25 -2 -25 -65 l0 -65 -170 0 -170 0 0 65 0 65 -195 0
-195 0 0 -65 c0 -37 -4 -65 -10 -65 -6 0 -10 32 -10 75 l0 75 33 0 c17 1 108
2 201 3 125 1 170 5 173 15 4 9 -44 12 -216 12 l-221 0 0 -90 c0 -53 -4 -90
-10 -90 -6 0 -10 40 -10 100 l0 100 230 0 230 0 0 65 0 65 170 0 170 0 0 -65z
m500 -100 l0 -165 -165 0 -165 0 0 165 0 165 165 0 165 0 0 -165z m70 0 c0
-103 -4 -165 -10 -165 -6 0 -10 62 -10 165 0 103 4 165 10 165 6 0 10 -62 10
-165z m50 0 c0 -103 -4 -165 -10 -165 -6 0 -10 62 -10 165 0 103 4 165 10 165
6 0 10 -62 10 -165z m390 0 l0 -165 -170 0 -170 0 0 165 0 165 170 0 170 0 0
-165z m70 0 c0 -103 -4 -165 -10 -165 -6 0 -10 62 -10 165 0 103 4 165 10 165
6 0 10 -62 10 -165z m50 0 c0 -103 -4 -165 -10 -165 -6 0 -10 62 -10 165 0
103 4 165 10 165 6 0 10 -62 10 -165z m890 0 l0 -165 -170 0 -170 0 0 165 0
165 170 0 170 0 0 -165z m70 0 c0 -103 -4 -165 -10 -165 -6 0 -10 62 -10 165
0 103 4 165 10 165 6 0 10 -62 10 -165z m50 0 c0 -103 -4 -165 -10 -165 -6 0
-10 62 -10 165 0 103 4 165 10 165 6 0 10 -62 10 -165z m390 0 l0 -165 -170 0
-170 0 0 165 0 165 170 0 170 0 0 -165z m840 100 l0 -65 60 0 60 0 0 -100 c0
-124 -18 -134 -22 -12 l-3 87 -49 3 c-36 2 -47 0 -44 -10 3 -7 19 -14 36 -16
l32 -3 0 -75 c0 -43 -4 -74 -10 -74 -6 0 -10 28 -10 65 0 63 -1 65 -25 65 -24
0 -25 -2 -25 -65 l0 -65 -170 0 -170 0 0 65 0 65 -190 0 -190 0 0 -65 c0 -37
-4 -65 -10 -65 -6 0 -10 32 -10 75 l0 75 33 0 c17 1 106 2 196 3 121 1 165 5
168 15 4 9 -43 12 -211 12 l-216 0 0 -90 c0 -53 -4 -90 -10 -90 -6 0 -10 40
-10 100 l0 100 225 0 225 0 0 65 0 65 170 0 170 0 0 -65z m510 -100 l0 -165
-170 0 -170 0 0 165 0 165 170 0 170 0 0 -165z m910 90 l0 -75 -420 0 -420 0
0 -90 c0 -53 -4 -90 -10 -90 -6 0 -10 40 -10 100 l0 100 420 0 420 0 0 65 c0
37 4 65 10 65 6 0 10 -32 10 -75z m50 -25 l0 -100 -420 0 -420 0 0 -65 c0 -37
-4 -65 -10 -65 -6 0 -10 32 -10 75 l0 75 28 0 c15 1 203 2 417 3 l390 2 3 88
c4 121 22 111 22 -13z m122 13 l3 -88 44 0 c27 0 46 5 49 13 2 8 -8 12 -32 12
l-36 0 0 75 c0 43 4 75 10 75 6 0 10 -28 10 -65 0 -63 1 -65 25 -65 24 0 25 2
25 65 l0 65 165 0 165 0 0 -65 0 -65 60 0 60 0 0 -100 c0 -124 -18 -134 -22
-12 l-3 87 -49 3 c-36 2 -47 0 -44 -10 3 -7 19 -14 36 -16 l32 -3 0 -75 c0
-43 -4 -74 -10 -74 -6 0 -10 28 -10 65 0 63 -1 65 -25 65 -24 0 -25 -2 -25
-65 l0 -65 -165 0 -165 0 0 65 0 65 -60 0 -60 0 0 100 c0 124 18 134 22 13z
m1108 -78 l0 -165 -170 0 -170 0 0 165 0 165 170 0 170 0 0 -165z m240 90 l0
-75 -85 0 -85 0 0 -90 c0 -53 -4 -90 -10 -90 -6 0 -10 40 -10 100 l0 100 85 0
85 0 0 65 c0 37 4 65 10 65 6 0 10 -32 10 -75z m50 -25 l0 -100 -85 0 -85 0 0
-65 c0 -37 -4 -65 -10 -65 -6 0 -10 32 -10 75 l0 75 33 1 c17 0 55 1 82 2 l50
2 3 88 c4 121 22 111 22 -13z m-7880 -405 l0 -165 -505 0 -505 0 0 165 0 165
505 0 505 0 0 -165z m240 90 l0 -75 -85 0 -85 0 0 -90 c0 -53 -4 -90 -10 -90
-6 0 -10 40 -10 100 l0 100 85 0 85 0 0 65 c0 37 4 65 10 65 6 0 10 -32 10
-75z m50 -25 l0 -100 -85 0 -85 0 0 -65 c0 -37 -4 -65 -10 -65 -6 0 -10 32
-10 75 l0 75 33 1 c17 0 55 1 82 2 l50 2 3 88 c4 121 22 111 22 -13z m1060
-65 l0 -165 -505 0 -505 0 0 165 0 165 505 0 505 0 0 -165z m240 90 l0 -75
-85 0 -85 0 0 -90 c0 -53 -4 -90 -10 -90 -6 0 -10 40 -10 100 l0 100 85 0 85
0 0 65 c0 37 4 65 10 65 6 0 10 -32 10 -75z m50 -25 l0 -100 -85 0 -85 0 0
-65 c0 -37 -4 -65 -10 -65 -6 0 -10 32 -10 75 l0 75 33 1 c17 0 55 1 82 2 l50
2 3 88 c4 121 22 111 22 -13z m380 -65 l0 -165 -165 0 -165 0 0 165 0 165 165
0 165 0 0 -165z m70 0 c0 -103 -4 -165 -10 -165 -6 0 -10 62 -10 165 0 103 4
165 10 165 6 0 10 -62 10 -165z m50 0 c0 -103 -4 -165 -10 -165 -6 0 -10 62
-10 165 0 103 4 165 10 165 6 0 10 -62 10 -165z m390 0 l0 -165 -170 0 -170 0
0 165 0 165 170 0 170 0 0 -165z m70 0 c0 -103 -4 -165 -10 -165 -6 0 -10 62
-10 165 0 103 4 165 10 165 6 0 10 -62 10 -165z m50 0 c0 -103 -4 -165 -10
-165 -6 0 -10 62 -10 165 0 103 4 165 10 165 6 0 10 -62 10 -165z m890 0 l0
-165 -170 0 -170 0 0 165 0 165 170 0 170 0 0 -165z m70 0 c0 -103 -4 -165
-10 -165 -6 0 -10 62 -10 165 0 103 4 165 10 165 6 0 10 -62 10 -165z m50 0
c0 -103 -4 -165 -10 -165 -6 0 -10 62 -10 165 0 103 4 165 10 165 6 0 10 -62
10 -165z m1230 0 l0 -165 -590 0 -590 0 0 165 0 165 590 0 590 0 0 -165z m70
0 c0 -103 -4 -165 -10 -165 -6 0 -10 62 -10 165 0 103 4 165 10 165 6 0 10
-62 10 -165z m50 0 c0 -103 -4 -165 -10 -165 -6 0 -10 62 -10 165 0 103 4 165
10 165 6 0 10 -62 10 -165z m390 0 l0 -165 -170 0 -170 0 0 165 0 165 170 0
170 0 0 -165z m70 0 c0 -103 -4 -165 -10 -165 -6 0 -10 62 -10 165 0 103 4
165 10 165 6 0 10 -62 10 -165z m50 0 c0 -103 -4 -165 -10 -165 -6 0 -10 62
-10 165 0 103 4 165 10 165 6 0 10 -62 10 -165z m1132 78 l3 -88 39 0 c23 0
41 5 44 13 2 8 -7 12 -27 12 l-31 0 0 75 c0 43 4 75 10 75 6 0 10 -28 10 -65
0 -58 2 -65 20 -65 18 0 20 7 20 65 l0 65 340 0 340 0 0 -165 0 -165 -340 0
-340 0 0 65 0 65 -55 0 -55 0 0 100 c0 124 18 134 22 13z m1008 12 l0 -75 -85
0 -85 0 0 -90 c0 -53 -4 -90 -10 -90 -6 0 -10 40 -10 100 l0 100 85 0 85 0 0
65 c0 37 4 65 10 65 6 0 10 -32 10 -75z m50 -25 l0 -100 -85 0 -85 0 0 -65 c0
-37 -4 -65 -10 -65 -6 0 -10 32 -10 75 l0 75 33 1 c17 0 55 1 82 2 l50 2 3 88
c4 121 22 111 22 -13z m-8380 -405 l0 -165 -170 0 -170 0 0 165 0 165 170 0
170 0 0 -165z m740 90 l0 -75 -335 0 -335 0 0 -90 c0 -53 -4 -90 -10 -90 -6 0
-10 40 -10 100 l0 100 335 0 335 0 0 65 c0 37 4 65 10 65 6 0 10 -32 10 -75z
m50 -25 l0 -100 -335 0 -335 0 0 -65 c0 -37 -4 -65 -10 -65 -6 0 -10 32 -10
75 l0 75 28 0 c15 1 164 2 332 3 l305 2 3 88 c4 121 22 111 22 -13z m560 -65
l0 -165 -170 0 -170 0 0 165 0 165 170 0 170 0 0 -165z m840 100 l0 -65 60 0
60 0 0 -100 c0 -124 -18 -134 -22 -12 l-3 87 -49 3 c-36 2 -47 0 -44 -10 3 -7
19 -14 36 -16 l32 -3 0 -75 c0 -43 -4 -74 -10 -74 -6 0 -10 28 -10 65 0 63 -1
65 -25 65 -24 0 -25 -2 -25 -65 l0 -65 -170 0 -170 0 0 65 0 65 -195 0 -195 0
0 -65 c0 -37 -4 -65 -10 -65 -6 0 -10 32 -10 75 l0 75 33 0 c17 1 108 2 201 3
125 1 170 5 173 15 4 9 -44 12 -216 12 l-221 0 0 -90 c0 -53 -4 -90 -10 -90
-6 0 -10 40 -10 100 l0 100 230 0 230 0 0 65 0 65 170 0 170 0 0 -65z m500
-100 l0 -165 -165 0 -165 0 0 165 0 165 165 0 165 0 0 -165z m70 0 c0 -103 -4
-165 -10 -165 -6 0 -10 62 -10 165 0 103 4 165 10 165 6 0 10 -62 10 -165z
m50 0 c0 -103 -4 -165 -10 -165 -6 0 -10 62 -10 165 0 103 4 165 10 165 6 0
10 -62 10 -165z m122 78 l3 -88 44 0 c27 0 46 5 49 13 2 8 -8 12 -32 12 l-36
0 0 75 c0 43 4 75 10 75 6 0 10 -28 10 -65 0 -63 1 -65 25 -65 24 0 25 2 25
65 l0 65 170 0 170 0 0 -65 0 -65 60 0 60 0 0 -100 c0 -124 -18 -134 -22 -12
l-3 87 -49 3 c-36 2 -47 0 -44 -10 3 -7 19 -14 36 -16 l32 -3 0 -75 c0 -43 -4
-74 -10 -74 -6 0 -10 28 -10 65 0 63 -1 65 -25 65 -24 0 -25 -2 -25 -65 l0
-65 -170 0 -170 0 0 65 0 65 -60 0 -60 0 0 100 c0 124 18 134 22 13z m1108
-78 l0 -165 -170 0 -170 0 0 165 0 165 170 0 170 0 0 -165z m240 90 l0 -75
-85 0 -85 0 0 -90 c0 -53 -4 -90 -10 -90 -6 0 -10 40 -10 100 l0 100 85 0 85
0 0 65 c0 37 4 65 10 65 6 0 10 -32 10 -75z m50 -25 l0 -100 -85 0 -85 0 0
-65 c0 -37 -4 -65 -10 -65 -6 0 -10 32 -10 75 l0 75 33 1 c17 0 55 1 82 2 l50
2 3 88 c4 121 22 111 22 -13z m390 -65 l0 -165 -170 0 -170 0 0 165 0 165 170
0 170 0 0 -165z m840 0 l0 -165 -170 0 -170 0 0 65 0 65 -190 0 -190 0 0 -65
c0 -37 -4 -65 -10 -65 -6 0 -10 32 -10 75 l0 75 33 0 c17 1 106 2 196 3 121 1
165 5 168 15 4 9 -43 12 -211 12 l-216 0 0 -90 c0 -53 -4 -90 -10 -90 -6 0
-10 40 -10 100 l0 100 225 0 225 0 0 65 0 65 170 0 170 0 0 -165z m70 0 c0
-103 -4 -165 -10 -165 -6 0 -10 62 -10 165 0 103 4 165 10 165 6 0 10 -62 10
-165z m50 0 c0 -103 -4 -165 -10 -165 -6 0 -10 62 -10 165 0 103 4 165 10 165
6 0 10 -62 10 -165z m390 0 l0 -165 -170 0 -170 0 0 165 0 165 170 0 170 0 0
-165z m70 0 c0 -103 -4 -165 -10 -165 -6 0 -10 62 -10 165 0 103 4 165 10 165
6 0 10 -62 10 -165z m50 0 c0 -103 -4 -165 -10 -165 -6 0 -10 62 -10 165 0
103 4 165 10 165 6 0 10 -62 10 -165z m1292 78 l3 -88 44 0 c27 0 46 5 49 13
2 8 -8 12 -32 12 l-36 0 0 75 c0 43 4 75 10 75 6 0 10 -28 10 -65 0 -63 1 -65
25 -65 24 0 25 2 25 65 l0 65 170 0 170 0 0 -165 0 -165 -170 0 -170 0 0 65 0
65 -60 0 -60 0 0 100 c0 124 18 134 22 13z m678 12 l0 -75 -85 0 -85 0 0 -90
c0 -53 -4 -90 -10 -90 -6 0 -10 40 -10 100 l0 100 85 0 85 0 0 65 c0 37 4 65
10 65 6 0 10 -32 10 -75z m50 -25 l0 -100 -85 0 -85 0 0 -65 c0 -37 -4 -65
-10 -65 -6 0 -10 32 -10 75 l0 75 33 1 c17 0 55 1 82 2 l50 2 3 88 c4 121 22
111 22 -13z m-8210 -405 l0 -165 -170 0 -170 0 0 165 0 165 170 0 170 0 0
-165z m70 0 c0 -103 -4 -165 -10 -165 -6 0 -10 62 -10 165 0 103 4 165 10 165
6 0 10 -62 10 -165z m50 0 c0 -103 -4 -165 -10 -165 -6 0 -10 62 -10 165 0
103 4 165 10 165 6 0 10 -62 10 -165z m1230 0 l0 -165 -170 0 -170 0 0 165 0
165 170 0 170 0 0 -165z m60 0 c0 -103 -4 -165 -10 -165 -6 0 -10 62 -10 165
0 103 4 165 10 165 6 0 10 -62 10 -165z m50 0 c0 -103 -4 -165 -10 -165 -6 0
-10 62 -10 165 0 103 4 165 10 165 6 0 10 -62 10 -165z m730 0 l0 -165 -170 0
-170 0 0 165 0 165 170 0 170 0 0 -165z m70 0 c0 -103 -4 -165 -10 -165 -6 0
-10 62 -10 165 0 103 4 165 10 165 6 0 10 -62 10 -165z m50 0 c0 -103 -4 -165
-10 -165 -6 0 -10 62 -10 165 0 103 4 165 10 165 6 0 10 -62 10 -165z m380 0
l0 -165 -165 0 -165 0 0 165 0 165 165 0 165 0 0 -165z m70 0 c0 -103 -4 -165
-10 -165 -6 0 -10 62 -10 165 0 103 4 165 10 165 6 0 10 -62 10 -165z m50 0
c0 -103 -4 -165 -10 -165 -6 0 -10 62 -10 165 0 103 4 165 10 165 6 0 10 -62
10 -165z m292 78 l3 -88 44 0 c27 0 46 5 49 13 2 8 -8 12 -32 12 l-36 0 0 75
c0 43 4 75 10 75 6 0 10 -28 10 -65 0 -63 1 -65 25 -65 24 0 25 2 25 65 l0 65
335 0 335 0 0 -165 0 -165 -335 0 -335 0 0 65 0 65 -60 0 -60 0 0 100 c0 124
18 134 22 13z m1008 12 l0 -75 -85 0 -85 0 0 -90 c0 -53 -4 -90 -10 -90 -6 0
-10 40 -10 100 l0 100 85 0 85 0 0 65 c0 37 4 65 10 65 6 0 10 -32 10 -75z
m50 -25 l0 -100 -85 0 -85 0 0 -65 c0 -37 -4 -65 -10 -65 -6 0 -10 32 -10 75
l0 75 33 1 c17 0 55 1 82 2 l50 2 3 88 c4 121 22 111 22 -13z m560 -65 l0
-165 -170 0 -170 0 0 165 0 165 170 0 170 0 0 -165z m70 0 c0 -103 -4 -165
-10 -165 -6 0 -10 62 -10 165 0 103 4 165 10 165 6 0 10 -62 10 -165z m50 0
c0 -103 -4 -165 -10 -165 -6 0 -10 62 -10 165 0 103 4 165 10 165 6 0 10 -62
10 -165z m720 0 l0 -165 -170 0 -170 0 0 165 0 165 170 0 170 0 0 -165z m70 0
c0 -103 -4 -165 -10 -165 -6 0 -10 62 -10 165 0 103 4 165 10 165 6 0 10 -62
10 -165z m50 0 c0 -103 -4 -165 -10 -165 -6 0 -10 62 -10 165 0 103 4 165 10
165 6 0 10 -62 10 -165z m122 78 l3 -88 44 0 c27 0 46 5 49 13 2 8 -8 12 -32
12 l-36 0 0 75 c0 43 4 75 10 75 6 0 10 -28 10 -65 0 -63 1 -65 25 -65 24 0
25 2 25 65 l0 65 505 0 505 0 0 -65 0 -65 60 0 60 0 0 -100 c0 -124 -18 -134
-22 -12 l-3 87 -49 3 c-36 2 -47 0 -44 -10 3 -7 19 -14 36 -16 l32 -3 0 -75
c0 -43 -4 -74 -10 -74 -6 0 -10 28 -10 65 0 63 -1 65 -25 65 -24 0 -25 -2 -25
-65 l0 -65 -505 0 -505 0 0 65 0 65 -60 0 -60 0 0 100 c0 124 18 134 22 13z
m2118 -78 l0 -165 -170 0 -170 0 0 165 0 165 170 0 170 0 0 -165z m70 0 c0
-103 -4 -165 -10 -165 -6 0 -10 62 -10 165 0 103 4 165 10 165 6 0 10 -62 10
-165z m50 0 c0 -103 -4 -165 -10 -165 -6 0 -10 62 -10 165 0 103 4 165 10 165
6 0 10 -62 10 -165z m-8308 -262 l3 -88 180 0 180 0 3 88 c4 121 22 111 22
-13 l0 -100 -205 0 -205 0 0 100 c0 124 18 134 22 13z m48 22 l0 -65 135 0
135 0 0 65 c0 37 4 65 10 65 6 0 10 -32 10 -75 l0 -75 -155 0 -155 0 0 75 c0
43 4 75 10 75 6 0 10 -28 10 -65z m1302 -22 l3 -88 175 0 175 0 3 88 c4 121
22 111 22 -13 l0 -100 -200 0 -200 0 0 100 c0 124 18 134 22 13z m48 22 l0
-65 130 0 130 0 0 65 c0 37 4 65 10 65 6 0 10 -32 10 -75 l0 -75 -150 0 -150
0 0 75 c0 43 4 75 10 75 6 0 10 -28 10 -65z m792 -22 l3 -88 180 0 180 0 3 88
c4 121 22 111 22 -13 l0 -100 -205 0 -205 0 0 100 c0 124 18 134 22 13z m48
22 l0 -65 135 0 135 0 0 65 c0 37 4 65 10 65 6 0 10 -32 10 -75 l0 -75 -155 0
-155 0 0 75 c0 43 4 75 10 75 6 0 10 -28 10 -65z m462 -22 l3 -88 175 0 175 0
3 88 c4 121 22 111 22 -13 l0 -100 -200 0 -200 0 0 100 c0 124 18 134 22 13z
m48 22 l0 -65 130 0 130 0 0 65 c0 37 4 65 10 65 6 0 10 -32 10 -75 l0 -75
-150 0 -150 0 0 75 c0 43 4 75 10 75 6 0 10 -28 10 -65z m792 -22 l3 -88 345
0 345 0 3 88 c4 121 22 111 22 -13 l0 -100 -370 0 -370 0 0 100 c0 124 18 134
22 13z m48 22 l0 -65 300 0 300 0 0 65 c0 37 4 65 10 65 6 0 10 -32 10 -75 l0
-75 -320 0 -320 0 0 75 c0 43 4 75 10 75 6 0 10 -28 10 -65z m1132 -22 l3 -88
180 0 180 0 3 88 c4 121 22 111 22 -13 l0 -100 -205 0 -205 0 0 100 c0 124 18
134 22 13z m48 22 l0 -65 135 0 135 0 0 65 c0 37 4 65 10 65 6 0 10 -32 10
-75 l0 -75 -155 0 -155 0 0 75 c0 43 4 75 10 75 6 0 10 -28 10 -65z m792 -22
l3 -88 180 0 180 0 3 88 c4 121 22 111 22 -13 l0 -100 -205 0 -205 0 0 100 c0
124 18 134 22 13z m48 22 l0 -65 135 0 135 0 0 65 c0 37 4 65 10 65 6 0 10
-32 10 -75 l0 -75 -155 0 -155 0 0 75 c0 43 4 75 10 75 6 0 10 -28 10 -65z
m632 -22 l3 -88 515 0 515 0 3 88 c4 121 22 111 22 -13 l0 -100 -540 0 -540 0
0 100 c0 124 18 134 22 13z m48 22 l0 -65 470 0 470 0 0 65 c0 37 4 65 10 65
6 0 10 -32 10 -75 l0 -75 -490 0 -490 0 0 75 c0 43 4 75 10 75 6 0 10 -28 10
-65z m1632 -22 l3 -88 180 0 180 0 3 88 c4 121 22 111 22 -13 l0 -100 -205 0
-205 0 0 100 c0 124 18 134 22 13z m48 22 l0 -65 135 0 135 0 0 65 c0 37 4 65
10 65 6 0 10 -32 10 -75 l0 -75 -155 0 -155 0 0 75 c0 43 4 75 10 75 6 0 10
-28 10 -65z m-6690 -340 l0 -65 60 0 60 0 0 -100 c0 -124 -18 -134 -22 -12
l-3 87 -49 3 c-36 2 -47 0 -44 -10 3 -7 19 -14 36 -16 l32 -3 0 -75 c0 -43 -4
-74 -10 -74 -6 0 -10 28 -10 65 0 63 -1 65 -25 65 -24 0 -25 -2 -25 -65 l0
-65 -675 0 -675 0 0 165 0 165 675 0 675 0 0 -65z m1350 0 l0 -65 60 0 60 0 0
-100 c0 -124 -18 -134 -22 -12 l-3 87 -49 3 c-36 2 -47 0 -44 -10 3 -7 19 -14
36 -16 l32 -3 0 -75 c0 -43 -4 -74 -10 -74 -6 0 -10 28 -10 65 0 63 -1 65 -25
65 -24 0 -25 -2 -25 -65 l0 -65 -590 0 -590 0 0 165 0 165 590 0 590 0 0 -65z
m1180 0 l0 -65 60 0 60 0 0 -100 c0 -124 -18 -134 -22 -12 l-3 87 -49 3 c-36
2 -47 0 -44 -10 3 -7 19 -14 36 -16 l32 -3 0 -75 c0 -43 -4 -74 -10 -74 -6 0
-10 28 -10 65 0 63 -1 65 -25 65 -24 0 -25 -2 -25 -65 l0 -65 -510 0 -510 0 0
165 0 165 510 0 510 0 0 -65z m840 0 l0 -65 60 0 60 0 0 -100 c0 -124 -18
-134 -22 -12 l-3 87 -49 3 c-36 2 -47 0 -44 -10 3 -7 19 -14 36 -16 l32 -3 0
-75 c0 -43 -4 -74 -10 -74 -6 0 -10 28 -10 65 0 63 -1 65 -25 65 -24 0 -25 -2
-25 -65 l0 -65 -255 0 -255 0 0 165 0 165 255 0 255 0 0 -65z m1180 0 l0 -65
60 0 60 0 0 -100 c0 -124 -18 -134 -22 -12 l-3 87 -49 3 c-36 2 -47 0 -44 -10
3 -7 19 -14 36 -16 l32 -3 0 -75 c0 -43 -4 -74 -10 -74 -6 0 -10 28 -10 65 0
63 -1 65 -25 65 -24 0 -25 -2 -25 -65 l0 -65 -255 0 -255 0 0 165 0 165 255 0
255 0 0 -65z m510 0 l0 -65 60 0 60 0 0 -100 c0 -124 -18 -134 -22 -12 l-3 87
-49 3 c-36 2 -47 0 -44 -10 3 -7 19 -14 36 -16 l32 -3 0 -75 c0 -43 -4 -74
-10 -74 -6 0 -10 28 -10 65 0 63 -1 65 -25 65 -24 0 -25 -2 -25 -65 l0 -65
-170 0 -170 0 0 165 0 165 170 0 170 0 0 -65z m670 0 l0 -65 60 0 60 0 0 -100
c0 -124 -18 -134 -22 -12 l-3 87 -49 3 c-36 2 -47 0 -44 -10 3 -7 19 -14 36
-16 l32 -3 0 -75 c0 -43 -4 -74 -10 -74 -6 0 -10 28 -10 65 0 63 -1 65 -25 65
-24 0 -25 -2 -25 -65 l0 -65 -255 0 -255 0 0 165 0 165 255 0 255 0 0 -65z
m1010 0 l0 -65 60 0 60 0 0 -100 c0 -124 -18 -134 -22 -12 l-3 87 -49 3 c-36
2 -47 0 -44 -10 3 -7 19 -14 36 -16 l32 -3 0 -75 c0 -43 -4 -74 -10 -74 -6 0
-10 28 -10 65 0 63 -1 65 -25 65 -24 0 -25 -2 -25 -65 l0 -65 -170 0 -170 0 0
165 0 165 170 0 170 0 0 -65z m1180 0 l0 -65 60 0 60 0 0 -100 c0 -124 -18
-134 -22 -12 l-3 87 -49 3 c-36 2 -47 0 -44 -10 3 -7 19 -14 36 -16 l32 -3 0
-75 c0 -43 -4 -74 -10 -74 -6 0 -10 28 -10 65 0 63 -1 65 -25 65 -24 0 -25 -2
-25 -65 l0 -65 -420 0 -420 0 0 165 0 165 420 0 420 0 0 -65z m680 0 l0 -65
60 0 60 0 0 -100 c0 -124 -18 -134 -22 -12 l-3 87 -49 3 c-36 2 -47 0 -44 -10
3 -7 19 -14 36 -16 l32 -3 0 -75 c0 -43 -4 -74 -10 -74 -6 0 -10 28 -10 65 0
63 -1 65 -25 65 -24 0 -25 -2 -25 -65 l0 -65 -170 0 -170 0 0 165 0 165 170 0
170 0 0 -65z m-9878 -362 l3 -88 209 0 c159 0 210 3 213 13 4 9 -40 12 -196
12 l-201 0 0 75 c0 43 4 75 10 75 6 0 10 -28 10 -65 l0 -65 190 0 190 0 0 65
0 65 170 0 170 0 0 -165 0 -165 -170 0 -170 0 0 65 0 65 -225 0 -225 0 0 100
c0 124 18 134 22 13z m1348 12 l0 -75 -255 0 -255 0 0 -90 c0 -53 -4 -90 -10
-90 -6 0 -10 40 -10 100 l0 100 255 0 255 0 0 65 c0 37 4 65 10 65 6 0 10 -32
10 -75z m50 -25 l0 -100 -255 0 -255 0 0 -65 c0 -37 -4 -65 -10 -65 -6 0 -10
32 -10 75 l0 75 33 0 c17 1 131 2 252 3 l220 2 3 88 c4 121 22 111 22 -13z
m380 -65 l0 -165 -165 0 -165 0 0 165 0 165 165 0 165 0 0 -165z m920 90 l0
-75 -425 0 -425 0 0 -90 c0 -53 -4 -90 -10 -90 -6 0 -10 40 -10 100 l0 100
425 0 425 0 0 65 c0 37 4 65 10 65 6 0 10 -32 10 -75z m50 -25 l0 -100 -425 0
-425 0 0 -65 c0 -37 -4 -65 -10 -65 -6 0 -10 32 -10 75 l0 75 33 0 c17 0 208
2 422 3 l390 2 3 88 c4 121 22 111 22 -13z m380 -65 l0 -165 -170 0 -170 0 0
165 0 165 170 0 170 0 0 -165z m850 100 l0 -65 55 0 55 0 0 -100 c0 -124 -18
-134 -22 -12 l-3 87 -44 3 c-32 2 -42 0 -39 -10 3 -7 17 -14 31 -16 27 -3 27
-5 27 -78 0 -43 -4 -74 -10 -74 -6 0 -10 28 -10 65 0 58 -2 65 -20 65 -18 0
-20 -7 -20 -65 l0 -65 -170 0 -170 0 0 65 0 65 -195 0 -195 0 0 -65 c0 -37 -4
-65 -10 -65 -6 0 -10 32 -10 75 l0 75 33 0 c17 1 108 2 201 3 125 1 170 5 173
15 4 9 -44 12 -216 12 l-221 0 0 -90 c0 -53 -4 -90 -10 -90 -6 0 -10 40 -10
100 l0 100 230 0 230 0 0 65 0 65 170 0 170 0 0 -65z m840 0 l0 -65 60 0 60 0
0 -100 c0 -124 -18 -134 -22 -12 l-3 87 -49 3 c-36 2 -47 0 -44 -10 3 -7 19
-14 36 -16 l32 -3 0 -75 c0 -43 -4 -74 -10 -74 -6 0 -10 28 -10 65 0 63 -1 65
-25 65 -24 0 -25 -2 -25 -65 l0 -65 -340 0 -340 0 0 165 0 165 340 0 340 0 0
-65z m1010 -100 l0 -165 -335 0 -335 0 0 165 0 165 335 0 335 0 0 -165z m70 0
c0 -103 -4 -165 -10 -165 -6 0 -10 62 -10 165 0 103 4 165 10 165 6 0 10 -62
10 -165z m50 0 c0 -103 -4 -165 -10 -165 -6 0 -10 62 -10 165 0 103 4 165 10
165 6 0 10 -62 10 -165z m390 0 l0 -165 -170 0 -170 0 0 165 0 165 170 0 170
0 0 -165z m70 0 c0 -103 -4 -165 -10 -165 -6 0 -10 62 -10 165 0 103 4 165 10
165 6 0 10 -62 10 -165z m50 0 c0 -103 -4 -165 -10 -165 -6 0 -10 62 -10 165
0 103 4 165 10 165 6 0 10 -62 10 -165z m720 100 l0 -65 60 0 60 0 0 -100 c0
-124 -18 -134 -22 -12 l-3 87 -49 3 c-36 2 -47 0 -44 -10 3 -7 19 -14 36 -16
l32 -3 0 -75 c0 -43 -4 -74 -10 -74 -6 0 -10 28 -10 65 0 63 -1 65 -25 65 -24
0 -25 -2 -25 -65 l0 -65 -340 0 -340 0 0 165 0 165 340 0 340 0 0 -65z m840
-100 l0 -165 -170 0 -170 0 0 165 0 165 170 0 170 0 0 -165z m70 0 c0 -103 -4
-165 -10 -165 -6 0 -10 62 -10 165 0 103 4 165 10 165 6 0 10 -62 10 -165z
m50 0 c0 -103 -4 -165 -10 -165 -6 0 -10 62 -10 165 0 103 4 165 10 165 6 0
10 -62 10 -165z m390 0 l0 -165 -170 0 -170 0 0 165 0 165 170 0 170 0 0 -165z
m840 100 l0 -65 60 0 60 0 0 -100 c0 -124 -18 -134 -22 -12 l-3 87 -49 3 c-36
2 -47 0 -44 -10 3 -7 19 -14 36 -16 l32 -3 0 -75 c0 -43 -4 -74 -10 -74 -6 0
-10 28 -10 65 0 63 -1 65 -25 65 -24 0 -25 -2 -25 -65 l0 -65 -170 0 -170 0 0
65 0 65 -190 0 -190 0 0 -65 c0 -37 -4 -65 -10 -65 -6 0 -10 32 -10 75 l0 75
33 0 c17 1 106 2 196 3 121 1 165 5 168 15 4 9 -43 12 -211 12 l-216 0 0 -90
c0 -53 -4 -90 -10 -90 -6 0 -10 40 -10 100 l0 100 225 0 225 0 0 65 0 65 170
0 170 0 0 -65z m510 -100 l0 -165 -170 0 -170 0 0 165 0 165 170 0 170 0 0
-165z m70 0 c0 -103 -4 -165 -10 -165 -6 0 -10 62 -10 165 0 103 4 165 10 165
6 0 10 -62 10 -165z m50 0 c0 -103 -4 -165 -10 -165 -6 0 -10 62 -10 165 0
103 4 165 10 165 6 0 10 -62 10 -165z m-9230 -340 l0 -165 -170 0 -170 0 0
165 0 165 170 0 170 0 0 -165z m70 0 c0 -103 -4 -165 -10 -165 -6 0 -10 62
-10 165 0 103 4 165 10 165 6 0 10 -62 10 -165z m50 0 c0 -103 -4 -165 -10
-165 -6 0 -10 62 -10 165 0 103 4 165 10 165 6 0 10 -62 10 -165z m1400 100
l0 -65 60 0 60 0 0 -100 c0 -124 -18 -134 -22 -12 l-3 87 -49 3 c-36 2 -47 0
-44 -10 3 -7 19 -14 36 -16 l32 -3 0 -75 c0 -43 -4 -74 -10 -74 -6 0 -10 28
-10 65 0 63 -1 65 -25 65 -24 0 -25 -2 -25 -65 l0 -65 -420 0 -420 0 0 165 0
165 420 0 420 0 0 -65z m1520 -100 l0 -165 -510 0 -510 0 0 165 0 165 510 0
510 0 0 -165z m230 90 l0 -75 -80 0 -80 0 0 -90 c0 -53 -4 -90 -10 -90 -6 0
-10 40 -10 100 l0 100 80 0 80 0 0 65 c0 37 4 65 10 65 6 0 10 -32 10 -75z
m50 -25 l0 -100 -80 0 -80 0 0 -65 c0 -37 -4 -65 -10 -65 -6 0 -10 32 -10 75
0 85 -13 75 105 79 l50 1 3 88 c4 121 22 111 22 -13z m390 -65 l0 -165 -170 0
-170 0 0 165 0 165 170 0 170 0 0 -165z m850 0 l0 -165 -340 0 -340 0 0 65 c0
63 -1 65 -25 65 -24 0 -25 -2 -25 -65 0 -37 -4 -65 -10 -65 -6 0 -10 31 -10
74 l0 75 32 3 c55 5 46 28 -11 28 l-51 0 0 -90 c0 -53 -4 -90 -10 -90 -6 0
-10 40 -10 100 l0 100 60 0 60 0 0 65 0 65 340 0 340 0 0 -165z m500 0 l0
-165 -170 0 -170 0 0 65 c0 63 -1 65 -25 65 -24 0 -25 -2 -25 -65 0 -37 -4
-65 -10 -65 -6 0 -10 31 -10 74 l0 75 32 3 c55 5 46 28 -11 28 l-51 0 0 -90
c0 -53 -4 -90 -10 -90 -6 0 -10 40 -10 100 l0 100 60 0 60 0 0 65 0 65 170 0
170 0 0 -165z m70 0 c0 -103 -4 -165 -10 -165 -6 0 -10 62 -10 165 0 103 4
165 10 165 6 0 10 -62 10 -165z m50 0 c0 -103 -4 -165 -10 -165 -6 0 -10 62
-10 165 0 103 4 165 10 165 6 0 10 -62 10 -165z m390 0 l0 -165 -170 0 -170 0
0 165 0 165 170 0 170 0 0 -165z m70 0 c0 -103 -4 -165 -10 -165 -6 0 -10 62
-10 165 0 103 4 165 10 165 6 0 10 -62 10 -165z m50 0 c0 -103 -4 -165 -10
-165 -6 0 -10 62 -10 165 0 103 4 165 10 165 6 0 10 -62 10 -165z m380 0 l0
-165 -170 0 -170 0 0 165 0 165 170 0 170 0 0 -165z m510 100 l0 -65 60 0 60
0 0 -100 c0 -124 -18 -134 -22 -12 l-3 87 -49 3 c-36 2 -47 0 -44 -10 3 -7 19
-14 36 -16 l32 -3 0 -75 c0 -43 -4 -74 -10 -74 -6 0 -10 28 -10 65 0 63 -1 65
-25 65 -24 0 -25 -2 -25 -65 l0 -65 -170 0 -170 0 0 65 c0 63 -1 65 -25 65
-24 0 -25 -2 -25 -65 0 -37 -4 -65 -10 -65 -6 0 -10 31 -10 74 l0 75 32 3 c55
5 46 28 -11 28 l-51 0 0 -90 c0 -53 -4 -90 -10 -90 -6 0 -10 40 -10 100 l0
100 60 0 60 0 0 65 0 65 170 0 170 0 0 -65z m670 -100 l0 -165 -170 0 -170 0
0 165 0 165 170 0 170 0 0 -165z m70 0 c0 -103 -4 -165 -10 -165 -6 0 -10 62
-10 165 0 103 4 165 10 165 6 0 10 -62 10 -165z m50 0 c0 -103 -4 -165 -10
-165 -6 0 -10 62 -10 165 0 103 4 165 10 165 6 0 10 -62 10 -165z m1230 0 l0
-165 -590 0 -590 0 0 165 0 165 590 0 590 0 0 -165z m70 0 c0 -103 -4 -165
-10 -165 -6 0 -10 62 -10 165 0 103 4 165 10 165 6 0 10 -62 10 -165z m50 0
c0 -103 -4 -165 -10 -165 -6 0 -10 62 -10 165 0 103 4 165 10 165 6 0 10 -62
10 -165z m390 0 l0 -165 -170 0 -170 0 0 165 0 165 170 0 170 0 0 -165z m70 0
c0 -103 -4 -165 -10 -165 -6 0 -10 62 -10 165 0 103 4 165 10 165 6 0 10 -62
10 -165z m50 0 c0 -103 -4 -165 -10 -165 -6 0 -10 62 -10 165 0 103 4 165 10
165 6 0 10 -62 10 -165z m-9230 -340 l0 -165 -170 0 -170 0 0 165 0 165 170 0
170 0 0 -165z m70 0 c0 -103 -4 -165 -10 -165 -6 0 -10 62 -10 165 0 103 4
165 10 165 6 0 10 -62 10 -165z m50 0 c0 -103 -4 -165 -10 -165 -6 0 -10 62
-10 165 0 103 4 165 10 165 6 0 10 -62 10 -165z m890 0 l0 -165 -165 0 -165 0
0 165 0 165 165 0 165 0 0 -165z m580 90 l0 -75 -255 0 -255 0 0 -90 c0 -53
-4 -90 -10 -90 -6 0 -10 40 -10 100 l0 100 255 0 255 0 0 65 c0 37 4 65 10 65
6 0 10 -32 10 -75z m50 -25 l0 -100 -255 0 -255 0 0 -65 c0 -37 -4 -65 -10
-65 -6 0 -10 32 -10 75 l0 75 33 0 c17 1 131 2 252 3 l220 2 3 88 c4 121 22
111 22 -13z m720 -65 l0 -165 -170 0 -170 0 0 165 0 165 170 0 170 0 0 -165z
m850 100 l0 -65 55 0 55 0 0 -100 c0 -124 -18 -134 -22 -12 l-3 87 -44 3 c-32
2 -42 0 -39 -10 3 -7 17 -14 31 -16 27 -3 27 -5 27 -78 0 -43 -4 -74 -10 -74
-6 0 -10 28 -10 65 0 58 -2 65 -20 65 -18 0 -20 -7 -20 -65 l0 -65 -170 0
-170 0 0 65 0 65 -195 0 -195 0 0 -65 c0 -37 -4 -65 -10 -65 -6 0 -10 32 -10
75 l0 75 33 0 c17 1 108 2 201 3 125 1 170 5 173 15 4 9 -44 12 -216 12 l-221
0 0 -90 c0 -53 -4 -90 -10 -90 -6 0 -10 40 -10 100 l0 100 230 0 230 0 0 65 0
65 170 0 170 0 0 -65z m500 -100 l0 -165 -170 0 -170 0 0 165 0 165 170 0 170
0 0 -165z m70 0 c0 -103 -4 -165 -10 -165 -6 0 -10 62 -10 165 0 103 4 165 10
165 6 0 10 -62 10 -165z m50 0 c0 -103 -4 -165 -10 -165 -6 0 -10 62 -10 165
0 103 4 165 10 165 6 0 10 -62 10 -165z m122 78 l3 -88 44 0 c27 0 46 5 49 13
2 8 -8 12 -32 12 l-36 0 0 75 c0 43 4 75 10 75 6 0 10 -28 10 -65 0 -63 1 -65
25 -65 24 0 25 2 25 65 l0 65 170 0 170 0 0 -165 0 -165 -170 0 -170 0 0 65 0
65 -60 0 -60 0 0 100 c0 124 18 134 22 13z m668 12 l0 -75 -80 0 -80 0 0 -90
c0 -53 -4 -90 -10 -90 -6 0 -10 40 -10 100 l0 100 80 0 80 0 0 65 c0 37 4 65
10 65 6 0 10 -32 10 -75z m50 -25 l0 -100 -80 0 -80 0 0 -65 c0 -37 -4 -65
-10 -65 -6 0 -10 32 -10 75 0 85 -13 75 105 79 l50 1 3 88 c4 121 22 111 22
-13z m390 -65 l0 -165 -170 0 -170 0 0 165 0 165 170 0 170 0 0 -165z m70 0
c0 -103 -4 -165 -10 -165 -6 0 -10 62 -10 165 0 103 4 165 10 165 6 0 10 -62
10 -165z m50 0 c0 -103 -4 -165 -10 -165 -6 0 -10 62 -10 165 0 103 4 165 10
165 6 0 10 -62 10 -165z m390 0 l0 -165 -170 0 -170 0 0 165 0 165 170 0 170
0 0 -165z m70 0 c0 -103 -4 -165 -10 -165 -6 0 -10 62 -10 165 0 103 4 165 10
165 6 0 10 -62 10 -165z m50 0 c0 -103 -4 -165 -10 -165 -6 0 -10 62 -10 165
0 103 4 165 10 165 6 0 10 -62 10 -165z m380 0 l0 -165 -170 0 -170 0 0 165 0
165 170 0 170 0 0 -165z m70 0 c0 -103 -4 -165 -10 -165 -6 0 -10 62 -10 165
0 103 4 165 10 165 6 0 10 -62 10 -165z m50 0 c0 -103 -4 -165 -10 -165 -6 0
-10 62 -10 165 0 103 4 165 10 165 6 0 10 -62 10 -165z m122 78 l3 -88 44 0
c27 0 46 5 49 13 2 8 -8 12 -32 12 l-36 0 0 75 c0 43 4 75 10 75 6 0 10 -28
10 -65 0 -63 1 -65 25 -65 24 0 25 2 25 65 l0 65 170 0 170 0 0 -65 0 -65 60
0 60 0 0 -100 c0 -124 -18 -134 -22 -12 l-3 87 -49 3 c-36 2 -47 0 -44 -10 3
-7 19 -14 36 -16 l32 -3 0 -75 c0 -43 -4 -74 -10 -74 -6 0 -10 28 -10 65 0 63
-1 65 -25 65 -24 0 -25 -2 -25 -65 l0 -65 -170 0 -170 0 0 65 0 65 -60 0 -60
0 0 100 c0 124 18 134 22 13z m938 -78 l0 -165 -170 0 -170 0 0 165 0 165 170
0 170 0 0 -165z m70 0 c0 -103 -4 -165 -10 -165 -6 0 -10 62 -10 165 0 103 4
165 10 165 6 0 10 -62 10 -165z m50 0 c0 -103 -4 -165 -10 -165 -6 0 -10 62
-10 165 0 103 4 165 10 165 6 0 10 -62 10 -165z m390 0 l0 -165 -170 0 -170 0
0 165 0 165 170 0 170 0 0 -165z m840 0 l0 -165 -170 0 -170 0 0 65 0 65 -190
0 -190 0 0 -65 c0 -37 -4 -65 -10 -65 -6 0 -10 32 -10 75 l0 75 33 0 c17 1
106 2 196 3 121 1 165 5 168 15 4 9 -43 12 -211 12 l-216 0 0 -90 c0 -53 -4
-90 -10 -90 -6 0 -10 40 -10 100 l0 100 225 0 225 0 0 65 0 65 170 0 170 0 0
-165z m70 0 c0 -103 -4 -165 -10 -165 -6 0 -10 62 -10 165 0 103 4 165 10 165
6 0 10 -62 10 -165z m50 0 c0 -103 -4 -165 -10 -165 -6 0 -10 62 -10 165 0
103 4 165 10 165 6 0 10 -62 10 -165z m390 0 l0 -165 -170 0 -170 0 0 165 0
165 170 0 170 0 0 -165z m70 0 c0 -103 -4 -165 -10 -165 -6 0 -10 62 -10 165
0 103 4 165 10 165 6 0 10 -62 10 -165z m50 0 c0 -103 -4 -165 -10 -165 -6 0
-10 62 -10 165 0 103 4 165 10 165 6 0 10 -62 10 -165z m-9230 -340 l0 -165
-170 0 -170 0 0 165 0 165 170 0 170 0 0 -165z m70 0 c0 -103 -4 -165 -10
-165 -6 0 -10 62 -10 165 0 103 4 165 10 165 6 0 10 -62 10 -165z m50 0 c0
-103 -4 -165 -10 -165 -6 0 -10 62 -10 165 0 103 4 165 10 165 6 0 10 -62 10
-165z m1740 100 l0 -65 60 0 60 0 0 -100 c0 -124 -18 -134 -22 -12 l-3 87 -49
3 c-36 2 -47 0 -44 -10 3 -7 19 -14 36 -16 l32 -3 0 -75 c0 -43 -4 -74 -10
-74 -6 0 -10 28 -10 65 0 63 -1 65 -25 65 -24 0 -25 -2 -25 -65 l0 -65 -590 0
-590 0 0 165 0 165 590 0 590 0 0 -65z m500 -100 l0 -165 -170 0 -170 0 0 165
0 165 170 0 170 0 0 -165z m70 0 c0 -103 -4 -165 -10 -165 -6 0 -10 62 -10
165 0 103 4 165 10 165 6 0 10 -62 10 -165z m50 0 c0 -103 -4 -165 -10 -165
-6 0 -10 62 -10 165 0 103 4 165 10 165 6 0 10 -62 10 -165z m730 0 l0 -165
-170 0 -170 0 0 165 0 165 170 0 170 0 0 -165z m60 0 c0 -103 -4 -165 -10
-165 -6 0 -10 62 -10 165 0 103 4 165 10 165 6 0 10 -62 10 -165z m50 0 c0
-103 -4 -165 -10 -165 -6 0 -10 62 -10 165 0 103 4 165 10 165 6 0 10 -62 10
-165z m390 0 l0 -165 -170 0 -170 0 0 165 0 165 170 0 170 0 0 -165z m70 0 c0
-103 -4 -165 -10 -165 -6 0 -10 62 -10 165 0 103 4 165 10 165 6 0 10 -62 10
-165z m50 0 c0 -103 -4 -165 -10 -165 -6 0 -10 62 -10 165 0 103 4 165 10 165
6 0 10 -62 10 -165z m292 78 l3 -88 180 0 180 0 3 88 c4 121 22 111 22 -13 l0
-100 -205 0 -205 0 0 100 c0 124 18 134 22 13z m48 22 l0 -65 135 0 135 0 0
65 c0 37 4 65 10 65 6 0 10 -32 10 -75 l0 -75 -155 0 -155 0 0 75 c0 43 4 75
10 75 6 0 10 -28 10 -65z m890 -100 l0 -165 -170 0 -170 0 0 165 0 165 170 0
170 0 0 -165z m70 0 c0 -103 -4 -165 -10 -165 -6 0 -10 62 -10 165 0 103 4
165 10 165 6 0 10 -62 10 -165z m50 0 c0 -103 -4 -165 -10 -165 -6 0 -10 62
-10 165 0 103 4 165 10 165 6 0 10 -62 10 -165z m390 0 l0 -165 -170 0 -170 0
0 165 0 165 170 0 170 0 0 -165z m70 0 c0 -103 -4 -165 -10 -165 -6 0 -10 62
-10 165 0 103 4 165 10 165 6 0 10 -62 10 -165z m50 0 c0 -103 -4 -165 -10
-165 -6 0 -10 62 -10 165 0 103 4 165 10 165 6 0 10 -62 10 -165z m380 0 l0
-165 -170 0 -170 0 0 165 0 165 170 0 170 0 0 -165z m70 0 c0 -103 -4 -165
-10 -165 -6 0 -10 62 -10 165 0 103 4 165 10 165 6 0 10 -62 10 -165z m50 0
c0 -103 -4 -165 -10 -165 -6 0 -10 62 -10 165 0 103 4 165 10 165 6 0 10 -62
10 -165z m292 78 l3 -88 44 0 c27 0 46 5 49 13 2 8 -8 12 -32 12 l-36 0 0 75
c0 43 4 75 10 75 6 0 10 -28 10 -65 0 -63 1 -65 25 -65 24 0 25 2 25 65 l0 65
335 0 335 0 0 -165 0 -165 -335 0 -335 0 0 65 0 65 -60 0 -60 0 0 100 c0 124
18 134 22 13z m838 -78 c0 -103 -4 -165 -10 -165 -6 0 -10 62 -10 165 0 103 4
165 10 165 6 0 10 -62 10 -165z m50 0 c0 -103 -4 -165 -10 -165 -6 0 -10 62
-10 165 0 103 4 165 10 165 6 0 10 -62 10 -165z m390 0 l0 -165 -170 0 -170 0
0 165 0 165 170 0 170 0 0 -165z m70 0 c0 -103 -4 -165 -10 -165 -6 0 -10 62
-10 165 0 103 4 165 10 165 6 0 10 -62 10 -165z m50 0 c0 -103 -4 -165 -10
-165 -6 0 -10 62 -10 165 0 103 4 165 10 165 6 0 10 -62 10 -165z m720 0 l0
-165 -170 0 -170 0 0 165 0 165 170 0 170 0 0 -165z m70 0 c0 -103 -4 -165
-10 -165 -6 0 -10 62 -10 165 0 103 4 165 10 165 6 0 10 -62 10 -165z m50 0
c0 -103 -4 -165 -10 -165 -6 0 -10 62 -10 165 0 103 4 165 10 165 6 0 10 -62
10 -165z m1230 100 l0 -65 60 0 60 0 0 -100 c0 -124 -18 -134 -22 -12 l-3 87
-49 3 c-36 2 -47 0 -44 -10 3 -7 19 -14 36 -16 l32 -3 0 -75 c0 -43 -4 -74
-10 -74 -6 0 -10 28 -10 65 0 63 -1 65 -25 65 -24 0 -25 -2 -25 -65 l0 -65
-590 0 -590 0 0 165 0 165 590 0 590 0 0 -65z m-10218 -362 l3 -88 180 0 180
0 3 88 c4 121 22 111 22 -13 l0 -100 -205 0 -205 0 0 100 c0 124 18 134 22 13z
m48 22 l0 -65 135 0 135 0 0 65 c0 37 4 65 10 65 6 0 10 -32 10 -75 l0 -75
-155 0 -155 0 0 75 c0 43 4 75 10 75 6 0 10 -28 10 -65z m972 -22 l3 -88 600
0 600 0 3 88 c4 121 22 111 22 -13 l0 -100 -625 0 -625 0 0 100 c0 124 18 134
22 13z m48 22 l0 -65 555 0 555 0 0 65 c0 37 4 65 10 65 6 0 10 -32 10 -75 l0
-75 -575 0 -575 0 0 75 c0 43 4 75 10 75 6 0 10 -28 10 -65z m1292 -22 l3 -88
180 0 180 0 3 88 c4 121 22 111 22 -13 l0 -100 -205 0 -205 0 0 100 c0 124 18
134 22 13z m48 22 l0 -65 135 0 135 0 0 65 c0 37 4 65 10 65 6 0 10 -32 10
-75 l0 -75 -155 0 -155 0 0 75 c0 43 4 75 10 75 6 0 10 -28 10 -65z m802 -22
l3 -88 175 0 175 0 3 88 c4 121 22 111 22 -13 l0 -100 -200 0 -200 0 0 100 c0
124 18 134 22 13z m48 22 l0 -65 130 0 130 0 0 65 c0 37 4 65 10 65 6 0 10
-32 10 -75 l0 -75 -150 0 -150 0 0 75 c0 43 4 75 10 75 6 0 10 -28 10 -65z
m452 -22 l3 -88 180 0 180 0 3 88 c4 121 22 111 22 -13 l0 -100 -205 0 -205 0
0 100 c0 124 18 134 22 13z m48 22 l0 -65 135 0 135 0 0 65 c0 37 4 65 10 65
6 0 10 -32 10 -75 l0 -75 -155 0 -155 0 0 75 c0 43 4 75 10 75 6 0 10 -28 10
-65z m1302 -22 l3 -88 180 0 180 0 3 88 c4 121 22 111 22 -13 l0 -100 -205 0
-205 0 0 100 c0 124 18 134 22 13z m48 22 l0 -65 135 0 135 0 0 65 c0 37 4 65
10 65 6 0 10 -32 10 -75 l0 -75 -155 0 -155 0 0 75 c0 43 4 75 10 75 6 0 10
-28 10 -65z m462 -22 l3 -88 180 0 180 0 3 88 c4 121 22 111 22 -13 l0 -100
-205 0 -205 0 0 100 c0 124 18 134 22 13z m48 22 l0 -65 135 0 135 0 0 65 c0
37 4 65 10 65 6 0 10 -32 10 -75 l0 -75 -155 0 -155 0 0 75 c0 43 4 75 10 75
6 0 10 -28 10 -65z m452 -22 l3 -88 180 0 180 0 3 88 c4 121 22 111 22 -13 l0
-100 -205 0 -205 0 0 100 c0 124 18 134 22 13z m48 22 l0 -65 135 0 135 0 0
65 c0 37 4 65 10 65 6 0 10 -32 10 -75 l0 -75 -155 0 -155 0 0 75 c0 43 4 75
10 75 6 0 10 -28 10 -65z m802 -22 l3 -88 345 0 345 0 3 88 c4 121 22 111 22
-13 l0 -100 -370 0 -370 0 0 100 c0 124 18 134 22 13z m48 22 l0 -65 300 0
300 0 0 65 c0 37 4 65 10 65 6 0 10 -32 10 -75 l0 -75 -320 0 -320 0 0 75 c0
43 4 75 10 75 6 0 10 -28 10 -65z m792 -22 l3 -88 180 0 180 0 3 88 c4 121 22
111 22 -13 l0 -100 -205 0 -205 0 0 100 c0 124 18 134 22 13z m48 22 l0 -65
135 0 135 0 0 65 c0 37 4 65 10 65 6 0 10 -32 10 -75 l0 -75 -155 0 -155 0 0
75 c0 43 4 75 10 75 6 0 10 -28 10 -65z m792 -22 l3 -88 180 0 180 0 3 88 c4
121 22 111 22 -13 l0 -100 -205 0 -205 0 0 100 c0 124 18 134 22 13z m48 22
l0 -65 135 0 135 0 0 65 c0 37 4 65 10 65 6 0 10 -32 10 -75 l0 -75 -155 0
-155 0 0 75 c0 43 4 75 10 75 6 0 10 -28 10 -65z m462 -22 l3 -88 600 0 600 0
3 88 c4 121 22 111 22 -13 l0 -100 -625 0 -625 0 0 100 c0 124 18 134 22 13z
m48 22 l0 -65 555 0 555 0 0 65 c0 37 4 65 10 65 6 0 10 -32 10 -75 l0 -75
-575 0 -575 0 0 75 c0 43 4 75 10 75 6 0 10 -28 10 -65z"/>
  </g>
</svg>