<svg xmlns="http://www.w3.org/2000/svg" viewBox="0 0 2106 862" role="img" aria-label="Privacy Terminal">
  <defs>
    <!-- Subtle phosphor glow -->
    <filter id="glow" x="-5%" y="-5%" width="110%" height="110%">
      <feGaussianBlur in="SourceGraphic" stdDeviation="0.8" result="softBlur"/>
      <feMerge>
        <feMergeNode in="softBlur"/>
        <feMergeNode in="SourceGraphic"/>
      </feMerge>
    </filter>

    <!-- Scanline texture overlay -->
    <pattern id="scanlines" patternUnits="userSpaceOnUse" width="100%" height="4">
      <rect width="100%" height="2" fill="rgba(0,0,0,0)" />
      <rect y="2" width="100%" height="2" fill="rgba(0,0,0,0.08)" />
    </pattern>


  </defs>
  <g transform="translate(0.000000,862.000000) scale(0.100000,-0.100000)"
fill="#00ff41" stroke="none" filter="url(#glow)">

<path d="M590 8035 l0 -285 865 0 865 0 0 110 0 110 45 0 45 0 0 -110 c0 -103
1 -110 20 -110 19 0 20 7 20 130 l0 129 -62 3 c-55 3 -63 5 -63 23 0 18 8 20
78 23 l77 3 0 -156 c0 -148 1 -155 20 -155 19 0 20 7 20 175 l0 175 -100 0
-100 0 0 110 0 110 -865 0 -865 0 0 -285z"/>
<path d="M2900 8035 l0 -285 870 0 870 0 0 110 0 110 45 0 45 0 0 -110 c0
-103 1 -110 20 -110 19 0 20 7 20 130 l0 129 -62 3 c-55 3 -63 5 -63 23 0 18
8 20 78 23 l77 3 0 -156 c0 -148 1 -155 20 -155 19 0 20 7 20 175 l0 175 -100
0 -100 0 0 110 0 110 -870 0 -870 0 0 -285z"/>
<path d="M5210 8035 l0 -285 290 0 290 0 0 110 0 110 45 0 45 0 0 -110 c0
-103 1 -110 20 -110 19 0 20 7 20 130 l0 129 -62 3 c-55 3 -63 5 -63 23 0 18
8 20 78 23 l77 3 0 -156 c0 -148 1 -155 20 -155 19 0 20 7 20 175 l0 175 -100
0 -100 0 0 110 0 110 -290 0 -290 0 0 -285z"/>
<path d="M6080 8035 l0 -285 290 0 290 0 0 110 0 110 45 0 45 0 0 -110 c0
-103 1 -110 20 -110 19 0 20 7 20 130 l0 129 -62 3 c-55 3 -63 5 -63 23 0 18
8 20 78 23 l77 3 0 -156 c0 -148 1 -155 20 -155 19 0 20 7 20 175 l0 175 -100
0 -100 0 0 110 0 110 -290 0 -290 0 0 -285z"/>
<path d="M7820 8035 l0 -285 285 0 285 0 0 110 0 110 45 0 45 0 0 -110 c0
-103 1 -110 20 -110 19 0 20 7 20 130 l0 129 -62 3 c-55 3 -63 5 -63 23 0 18
8 20 78 23 l77 3 0 -156 c0 -148 1 -155 20 -155 19 0 20 7 20 175 l0 175 -100
0 -100 0 0 110 0 110 -285 0 -285 0 0 -285z"/>
<path d="M8970 8035 l0 -285 725 0 725 0 0 110 0 110 45 0 45 0 0 -110 c0
-103 1 -110 20 -110 19 0 20 7 20 130 l0 129 -62 3 c-55 3 -63 5 -63 23 0 18
8 20 78 23 l77 3 0 -156 c0 -148 1 -155 20 -155 19 0 20 7 20 175 l0 175 -100
0 -100 0 0 110 0 110 -725 0 -725 0 0 -285z"/>
<path d="M11280 8035 l0 -285 870 0 870 0 0 110 0 110 45 0 45 0 0 -110 c0
-103 1 -110 20 -110 19 0 20 7 20 130 l0 129 -62 3 c-55 3 -63 5 -63 23 0 18
8 20 78 23 l77 3 0 -156 c0 -148 1 -155 20 -155 19 0 20 7 20 175 l0 175 -100
0 -100 0 0 110 0 110 -870 0 -870 0 0 -285z"/>
<path d="M13310 8035 l0 -285 290 0 290 0 0 110 0 110 45 0 45 0 0 -110 c0
-103 1 -110 20 -110 19 0 20 7 20 130 l0 129 -62 3 c-55 3 -63 5 -63 23 0 18
8 20 78 23 l77 3 0 -156 c0 -148 1 -155 20 -155 19 0 20 7 20 175 l0 175 -100
0 -100 0 0 110 0 110 -290 0 -290 0 0 -285z"/>
<path d="M15040 8035 l0 -285 290 0 290 0 0 110 0 110 45 0 45 0 0 -110 c0
-103 1 -110 20 -110 19 0 20 7 20 130 l0 129 -62 3 c-55 3 -63 5 -63 23 0 18
8 20 78 23 l77 3 0 -156 c0 -148 1 -155 20 -155 19 0 20 7 20 175 l0 175 -100
0 -100 0 0 110 0 110 -290 0 -290 0 0 -285z"/>
<path d="M590 7405 l0 -285 290 0 290 0 0 285 0 285 -290 0 -290 0 0 -285z"/>
<path d="M2030 7580 l0 -110 -385 0 -385 0 0 -175 c0 -168 1 -175 20 -175 19
0 20 7 20 155 l0 154 363 -2 c355 -2 362 -2 362 -22 0 -19 -7 -20 -285 -22
-157 -1 -313 -2 -347 -3 l-63 0 0 -130 c0 -123 1 -130 20 -130 19 0 20 7 20
110 l0 110 330 0 330 0 0 -110 0 -110 290 0 290 0 0 110 0 110 45 0 45 0 0
-110 c0 -103 1 -110 20 -110 19 0 20 7 20 130 l0 129 -62 3 c-55 3 -63 5 -63
23 0 18 8 20 78 23 l77 3 0 -156 c0 -148 1 -155 20 -155 19 0 20 7 20 175 l0
175 -100 0 -100 0 0 110 0 110 -290 0 -290 0 0 -110z"/>
<path d="M2900 7405 l0 -285 290 0 290 0 0 285 0 285 -290 0 -290 0 0 -285z"/>
<path d="M4350 7580 l0 -110 -390 0 -390 0 0 -175 c0 -168 1 -175 20 -175 19
0 20 7 20 155 l0 154 368 -2 c360 -2 367 -2 367 -22 0 -19 -7 -20 -290 -22
-159 -1 -318 -2 -352 -3 l-63 0 0 -130 c0 -123 1 -130 20 -130 19 0 20 7 20
110 l0 110 335 0 335 0 0 -110 0 -110 290 0 290 0 0 110 0 110 45 0 45 0 0
-110 c0 -103 1 -110 20 -110 19 0 20 7 20 130 l0 129 -62 3 c-55 3 -63 5 -63
23 0 18 8 20 78 23 l77 3 0 -156 c0 -148 1 -155 20 -155 19 0 20 7 20 175 l0
175 -100 0 -100 0 0 110 0 110 -290 0 -290 0 0 -110z"/>
<path d="M5210 7405 l0 -285 290 0 290 0 0 285 0 285 -290 0 -290 0 0 -285z"/>
<path d="M5880 7405 c0 -278 0 -285 20 -285 20 0 20 7 20 285 0 278 0 285 -20
285 -20 0 -20 -7 -20 -285z"/>
<path d="M5950 7405 c0 -278 0 -285 20 -285 20 0 20 7 20 285 0 278 0 285 -20
285 -20 0 -20 -7 -20 -285z"/>
<path d="M6080 7405 l0 -285 290 0 290 0 0 285 0 285 -290 0 -290 0 0 -285z"/>
<path d="M6750 7405 c0 -278 0 -285 20 -285 20 0 20 7 20 285 0 278 0 285 -20
285 -20 0 -20 -7 -20 -285z"/>
<path d="M6820 7405 c0 -278 0 -285 20 -285 20 0 20 7 20 285 0 278 0 285 -20
285 -20 0 -20 -7 -20 -285z"/>
<path d="M7820 7405 l0 -285 285 0 285 0 0 285 0 285 -285 0 -285 0 0 -285z"/>
<path d="M8480 7405 c0 -278 0 -285 20 -285 20 0 20 7 20 285 0 278 0 285 -20
285 -20 0 -20 -7 -20 -285z"/>
<path d="M8550 7405 c0 -278 0 -285 20 -285 20 0 20 7 20 285 0 278 0 285 -20
285 -20 0 -20 -7 -20 -285z"/>
<path d="M8680 7405 l0 -285 290 0 290 0 0 285 0 285 -290 0 -290 0 0 -285z"/>
<path d="M10130 7580 l0 -110 -390 0 -390 0 0 -175 c0 -168 1 -175 20 -175 19
0 20 7 20 155 l0 154 368 -2 c360 -2 367 -2 367 -22 0 -19 -7 -20 -290 -22
-159 -1 -318 -2 -352 -3 l-63 0 0 -130 c0 -123 1 -130 20 -130 19 0 20 7 20
110 l0 110 335 0 335 0 0 -110 0 -110 290 0 290 0 0 110 0 110 45 0 45 0 0
-110 c0 -103 1 -110 20 -110 19 0 20 7 20 130 l0 129 -62 3 c-55 3 -63 5 -63
23 0 18 8 20 78 23 l77 3 0 -156 c0 -148 1 -155 20 -155 19 0 20 7 20 175 l0
175 -100 0 -100 0 0 110 0 110 -290 0 -290 0 0 -110z"/>
<path d="M11000 7405 l0 -285 285 0 285 0 0 285 0 285 -285 0 -285 0 0 -285z"/>
<path d="M13110 7580 l0 -110 -725 0 -725 0 0 -175 c0 -168 1 -175 20 -175 19
0 20 7 20 155 l0 154 663 0 c364 0 690 0 725 1 l62 0 0 130 c0 123 -1 130 -20
130 -19 0 -20 -7 -20 -110z"/>
<path d="M13180 7535 l0 -154 -662 0 c-365 0 -691 0 -725 -1 l-63 0 0 -130 c0
-123 1 -130 20 -130 19 0 20 7 20 110 l0 110 725 0 725 0 0 175 c0 168 -1 175
-20 175 -19 0 -20 -7 -20 -155z"/>
<path d="M13400 7515 l0 -175 100 0 100 0 0 -110 0 -110 290 0 290 0 0 110 0
110 45 0 45 0 0 -110 c0 -103 1 -110 20 -110 19 0 20 7 20 130 l0 129 -62 3
c-55 3 -63 5 -63 23 0 18 8 20 78 23 l77 3 0 -156 c0 -148 1 -155 20 -155 19
0 20 7 20 175 l0 175 -100 0 -100 0 0 110 0 110 -290 0 -290 0 0 -110 0 -110
-45 0 -45 0 0 110 c0 103 -1 110 -20 110 -19 0 -20 -7 -20 -130 l0 -129 63 -3
c54 -3 62 -5 62 -23 0 -18 -8 -20 -77 -23 l-78 -3 0 156 c0 148 -1 155 -20
155 -19 0 -20 -7 -20 -175z"/>
<path d="M14750 7405 l0 -285 290 0 290 0 0 285 0 285 -290 0 -290 0 0 -285z"/>
<path d="M15710 7580 l0 -110 -145 0 -145 0 0 -175 c0 -168 1 -175 20 -175 19
0 20 7 20 156 l0 156 83 -2 c45 -1 110 -2 145 -1 l62 1 0 130 c0 123 -1 130
-20 130 -19 0 -20 -7 -20 -110z"/>
<path d="M15780 7534 l0 -156 -82 2 c-46 1 -111 2 -145 1 l-63 -1 0 -130 c0
-123 1 -130 20 -130 19 0 20 7 20 110 l0 110 145 0 145 0 0 175 c0 168 -1 175
-20 175 -19 0 -20 -7 -20 -156z"/>
<path d="M590 6775 l0 -285 865 0 865 0 0 285 0 285 -865 0 -865 0 0 -285z"/>
<path d="M2700 6950 l0 -110 -145 0 -145 0 0 -175 c0 -168 1 -175 20 -175 19
0 20 7 20 156 l0 156 83 -2 c45 -1 110 -2 145 -1 l62 1 0 130 c0 123 -1 130
-20 130 -19 0 -20 -7 -20 -110z"/>
<path d="M2770 6904 l0 -156 -82 2 c-46 1 -111 2 -145 1 l-63 -1 0 -130 c0
-123 1 -130 20 -130 19 0 20 7 20 110 l0 110 145 0 145 0 0 175 c0 168 -1 175
-20 175 -19 0 -20 -7 -20 -156z"/>
<path d="M2900 6775 l0 -285 870 0 870 0 0 285 0 285 -870 0 -870 0 0 -285z"/>
<path d="M5020 6950 l0 -110 -145 0 -145 0 0 -175 c0 -168 1 -175 20 -175 19
0 20 7 20 156 l0 156 83 -2 c45 -1 110 -2 145 -1 l62 1 0 130 c0 123 -1 130
-20 130 -19 0 -20 -7 -20 -110z"/>
<path d="M5090 6904 l0 -156 -82 2 c-46 1 -111 2 -145 1 l-63 -1 0 -130 c0
-123 1 -130 20 -130 19 0 20 7 20 110 l0 110 145 0 145 0 0 175 c0 168 -1 175
-20 175 -19 0 -20 -7 -20 -156z"/>
<path d="M5210 6775 l0 -285 290 0 290 0 0 285 0 285 -290 0 -290 0 0 -285z"/>
<path d="M5880 6775 c0 -278 0 -285 20 -285 20 0 20 7 20 285 0 278 0 285 -20
285 -20 0 -20 -7 -20 -285z"/>
<path d="M5950 6775 c0 -278 0 -285 20 -285 20 0 20 7 20 285 0 278 0 285 -20
285 -20 0 -20 -7 -20 -285z"/>
<path d="M6080 6775 l0 -285 290 0 290 0 0 285 0 285 -290 0 -290 0 0 -285z"/>
<path d="M6750 6775 c0 -278 0 -285 20 -285 20 0 20 7 20 285 0 278 0 285 -20
285 -20 0 -20 -7 -20 -285z"/>
<path d="M6820 6775 c0 -278 0 -285 20 -285 20 0 20 7 20 285 0 278 0 285 -20
285 -20 0 -20 -7 -20 -285z"/>
<path d="M7820 6775 l0 -285 285 0 285 0 0 285 0 285 -285 0 -285 0 0 -285z"/>
<path d="M8480 6775 c0 -278 0 -285 20 -285 20 0 20 7 20 285 0 278 0 285 -20
285 -20 0 -20 -7 -20 -285z"/>
<path d="M8550 6775 c0 -278 0 -285 20 -285 20 0 20 7 20 285 0 278 0 285 -20
285 -20 0 -20 -7 -20 -285z"/>
<path d="M8680 6775 l0 -285 1015 0 1015 0 0 285 0 285 -1015 0 -1015 0 0
-285z"/>
<path d="M10800 6775 c0 -278 0 -285 20 -285 20 0 20 7 20 285 0 278 0 285
-20 285 -20 0 -20 -7 -20 -285z"/>
<path d="M10870 6775 c0 -278 0 -285 20 -285 20 0 20 7 20 285 0 278 0 285
-20 285 -20 0 -20 -7 -20 -285z"/>
<path d="M11000 6775 l0 -285 285 0 285 0 0 285 0 285 -285 0 -285 0 0 -285z"/>
<path d="M11660 6775 c0 -278 0 -285 20 -285 20 0 20 7 20 285 0 278 0 285
-20 285 -20 0 -20 -7 -20 -285z"/>
<path d="M11730 6775 c0 -278 0 -285 20 -285 20 0 20 7 20 285 0 278 0 285
-20 285 -20 0 -20 -7 -20 -285z"/>
<path d="M13690 6885 l0 -175 100 0 100 0 0 -110 0 -110 575 0 575 0 0 285 0
285 -575 0 -575 0 0 -110 0 -110 -45 0 -45 0 0 110 c0 103 -1 110 -20 110 -19
0 -20 -7 -20 -130 l0 -129 63 -3 c54 -3 62 -5 62 -23 0 -18 -8 -20 -77 -23
l-78 -3 0 156 c0 148 -1 155 -20 155 -19 0 -20 -7 -20 -175z"/>
<path d="M15420 6950 l0 -110 -145 0 -145 0 0 -175 c0 -168 1 -175 20 -175 19
0 20 7 20 156 l0 156 83 -2 c45 -1 110 -2 145 -1 l62 1 0 130 c0 123 -1 130
-20 130 -19 0 -20 -7 -20 -110z"/>
<path d="M15490 6904 l0 -156 -82 2 c-46 1 -111 2 -145 1 l-63 -1 0 -130 c0
-123 1 -130 20 -130 19 0 20 7 20 110 l0 110 145 0 145 0 0 175 c0 168 -1 175
-20 175 -19 0 -20 -7 -20 -156z"/>
<path d="M590 6145 l0 -285 290 0 290 0 0 285 0 285 -290 0 -290 0 0 -285z"/>
<path d="M2410 6320 l0 -110 -575 0 -575 0 0 -175 c0 -168 1 -175 20 -175 19
0 20 7 20 155 l0 154 513 0 c281 0 540 0 575 1 l62 0 0 130 c0 123 -1 130 -20
130 -19 0 -20 -7 -20 -110z"/>
<path d="M2480 6275 l0 -154 -512 0 c-282 0 -541 0 -575 -1 l-63 0 0 -130 c0
-123 1 -130 20 -130 19 0 20 7 20 110 l0 110 575 0 575 0 0 175 c0 168 -1 175
-20 175 -19 0 -20 -7 -20 -155z"/>
<path d="M2900 6145 l0 -285 290 0 290 0 0 285 0 285 -290 0 -290 0 0 -285z"/>
<path d="M4350 6320 l0 -110 -390 0 -390 0 0 -175 c0 -168 1 -175 20 -175 19
0 20 7 20 155 l0 154 368 -2 c360 -2 367 -2 367 -22 0 -19 -7 -20 -290 -22
-159 -1 -318 -2 -352 -3 l-63 0 0 -130 c0 -123 1 -130 20 -130 19 0 20 7 20
110 l0 110 335 0 335 0 0 -110 0 -110 290 0 290 0 0 110 0 110 45 0 45 0 0
-110 c0 -103 1 -110 20 -110 19 0 20 7 20 130 l0 129 -62 3 c-55 3 -63 5 -63
23 0 18 8 20 78 23 l77 3 0 -156 c0 -148 1 -155 20 -155 19 0 20 7 20 175 l0
175 -100 0 -100 0 0 110 0 110 -290 0 -290 0 0 -110z"/>
<path d="M5210 6145 l0 -285 290 0 290 0 0 285 0 285 -290 0 -290 0 0 -285z"/>
<path d="M5880 6145 c0 -278 0 -285 20 -285 20 0 20 7 20 285 0 278 0 285 -20
285 -20 0 -20 -7 -20 -285z"/>
<path d="M5950 6145 c0 -278 0 -285 20 -285 20 0 20 7 20 285 0 278 0 285 -20
285 -20 0 -20 -7 -20 -285z"/>
<path d="M6170 6255 l0 -175 100 0 100 0 0 -110 0 -110 290 0 290 0 0 110 0
110 45 0 45 0 0 -110 c0 -103 1 -110 20 -110 19 0 20 7 20 130 l0 129 -62 3
c-55 3 -63 5 -63 23 0 18 8 20 78 23 l77 3 0 -156 c0 -148 1 -155 20 -155 19
0 20 7 20 175 l0 175 -100 0 -100 0 0 110 0 110 -290 0 -290 0 0 -110 0 -110
-45 0 -45 0 0 110 c0 103 -1 110 -20 110 -19 0 -20 -7 -20 -130 l0 -129 63 -3
c54 -3 62 -5 62 -23 0 -18 -8 -20 -77 -23 l-78 -3 0 156 c0 148 -1 155 -20
155 -19 0 -20 -7 -20 -175z"/>
<path d="M7530 6145 l0 -285 290 0 290 0 0 285 0 285 -290 0 -290 0 0 -285z"/>
<path d="M8480 6320 l0 -110 -145 0 -145 0 0 -175 c0 -168 1 -175 20 -175 19
0 20 7 20 156 l0 156 83 -2 c45 -1 110 -2 145 -1 l62 1 0 130 c0 123 -1 130
-20 130 -19 0 -20 -7 -20 -110z"/>
<path d="M8550 6274 l0 -156 -82 2 c-46 1 -111 2 -145 1 l-63 -1 0 -130 c0
-123 1 -130 20 -130 19 0 20 7 20 110 l0 110 145 0 145 0 0 175 c0 168 -1 175
-20 175 -19 0 -20 -7 -20 -156z"/>
<path d="M8680 6145 l0 -285 290 0 290 0 0 285 0 285 -290 0 -290 0 0 -285z"/>
<path d="M10130 6320 l0 -110 -390 0 -390 0 0 -175 c0 -168 1 -175 20 -175 19
0 20 7 20 155 l0 154 368 -2 c360 -2 367 -2 367 -22 0 -19 -7 -20 -290 -22
-159 -1 -318 -2 -352 -3 l-63 0 0 -130 c0 -123 1 -130 20 -130 19 0 20 7 20
110 l0 110 335 0 335 0 0 -110 0 -110 290 0 290 0 0 285 0 285 -290 0 -290 0
0 -110z"/>
<path d="M10800 6145 c0 -278 0 -285 20 -285 20 0 20 7 20 285 0 278 0 285
-20 285 -20 0 -20 -7 -20 -285z"/>
<path d="M10870 6145 c0 -278 0 -285 20 -285 20 0 20 7 20 285 0 278 0 285
-20 285 -20 0 -20 -7 -20 -285z"/>
<path d="M11000 6145 l0 -285 285 0 285 0 0 285 0 285 -285 0 -285 0 0 -285z"/>
<path d="M11660 6145 c0 -278 0 -285 20 -285 20 0 20 7 20 285 0 278 0 285
-20 285 -20 0 -20 -7 -20 -285z"/>
<path d="M11730 6145 c0 -278 0 -285 20 -285 20 0 20 7 20 285 0 278 0 285
-20 285 -20 0 -20 -7 -20 -285z"/>
<path d="M13980 6255 l0 -175 100 0 100 0 0 -110 0 -110 285 0 285 0 0 285 0
285 -285 0 -285 0 0 -110 0 -110 -45 0 -45 0 0 110 c0 103 -1 110 -20 110 -19
0 -20 -7 -20 -130 l0 -129 63 -3 c54 -3 62 -5 62 -23 0 -18 -8 -20 -77 -23
l-78 -3 0 156 c0 148 -1 155 -20 155 -19 0 -20 -7 -20 -175z"/>
<path d="M15130 6320 l0 -110 -145 0 -145 0 0 -175 c0 -168 1 -175 20 -175 19
0 20 7 20 156 l0 156 83 -2 c45 -1 110 -2 145 -1 l62 1 0 130 c0 123 -1 130
-20 130 -19 0 -20 -7 -20 -110z"/>
<path d="M15200 6274 l0 -156 -82 2 c-46 1 -111 2 -145 1 l-63 -1 0 -130 c0
-123 1 -130 20 -130 19 0 20 7 20 110 l0 110 145 0 145 0 0 175 c0 168 -1 175
-20 175 -19 0 -20 -7 -20 -156z"/>
<path d="M590 5515 l0 -285 290 0 290 0 0 285 0 285 -290 0 -290 0 0 -285z"/>
<path d="M1260 5515 c0 -278 0 -285 20 -285 20 0 20 7 20 285 0 278 0 285 -20
285 -20 0 -20 -7 -20 -285z"/>
<path d="M1330 5515 c0 -278 0 -285 20 -285 20 0 20 7 20 285 0 278 0 285 -20
285 -20 0 -20 -7 -20 -285z"/>
<path d="M2900 5515 l0 -285 290 0 290 0 0 285 0 285 -290 0 -290 0 0 -285z"/>
<path d="M3570 5515 c0 -278 0 -285 20 -285 20 0 20 7 20 285 0 278 0 285 -20
285 -20 0 -20 -7 -20 -285z"/>
<path d="M3640 5515 c0 -278 0 -285 20 -285 20 0 20 7 20 285 0 278 0 285 -20
285 -20 0 -20 -7 -20 -285z"/>
<path d="M4350 5515 l0 -285 290 0 290 0 0 285 0 285 -290 0 -290 0 0 -285z"/>
<path d="M5020 5515 c0 -278 0 -285 20 -285 20 0 20 7 20 285 0 278 0 285 -20
285 -20 0 -20 -7 -20 -285z"/>
<path d="M5090 5515 c0 -278 0 -285 20 -285 20 0 20 7 20 285 0 278 0 285 -20
285 -20 0 -20 -7 -20 -285z"/>
<path d="M5210 5515 l0 -285 290 0 290 0 0 285 0 285 -290 0 -290 0 0 -285z"/>
<path d="M5880 5515 c0 -278 0 -285 20 -285 20 0 20 7 20 285 0 278 0 285 -20
285 -20 0 -20 -7 -20 -285z"/>
<path d="M5950 5515 c0 -278 0 -285 20 -285 20 0 20 7 20 285 0 278 0 285 -20
285 -20 0 -20 -7 -20 -285z"/>
<path d="M6460 5625 l0 -175 100 0 100 0 0 -110 0 -110 580 0 580 0 0 285 0
285 -580 0 -580 0 0 -110 0 -110 -45 0 -45 0 0 110 c0 103 -1 110 -20 110 -19
0 -20 -7 -20 -130 l0 -129 63 -3 c54 -3 62 -5 62 -23 0 -18 -8 -20 -77 -23
l-78 -3 0 156 c0 148 -1 155 -20 155 -19 0 -20 -7 -20 -175z"/>
<path d="M8190 5690 l0 -110 -140 0 -140 0 0 -175 c0 -168 1 -175 20 -175 19
0 20 7 20 156 l0 156 83 -2 c45 -2 108 -2 140 -1 l57 1 0 130 c0 123 -1 130
-20 130 -19 0 -20 -7 -20 -110z"/>
<path d="M8260 5644 l0 -156 -82 2 c-46 2 -109 2 -140 1 l-58 -1 0 -130 c0
-123 1 -130 20 -130 19 0 20 7 20 110 l0 110 140 0 140 0 0 175 c0 168 -1 175
-20 175 -19 0 -20 -7 -20 -156z"/>
<path d="M8680 5515 l0 -285 290 0 290 0 0 285 0 285 -290 0 -290 0 0 -285z"/>
<path d="M9350 5515 c0 -278 0 -285 20 -285 20 0 20 7 20 285 0 278 0 285 -20
285 -20 0 -20 -7 -20 -285z"/>
<path d="M9420 5515 c0 -278 0 -285 20 -285 20 0 20 7 20 285 0 278 0 285 -20
285 -20 0 -20 -7 -20 -285z"/>
<path d="M10130 5515 l0 -285 290 0 290 0 0 285 0 285 -290 0 -290 0 0 -285z"/>
<path d="M10800 5515 c0 -278 0 -285 20 -285 20 0 20 7 20 285 0 278 0 285
-20 285 -20 0 -20 -7 -20 -285z"/>
<path d="M10870 5515 c0 -278 0 -285 20 -285 20 0 20 7 20 285 0 278 0 285
-20 285 -20 0 -20 -7 -20 -285z"/>
<path d="M11090 5625 l0 -175 95 0 95 0 0 -110 0 -110 870 0 870 0 0 110 0
110 45 0 45 0 0 -110 c0 -103 1 -110 20 -110 19 0 20 7 20 130 l0 129 -62 3
c-55 3 -63 5 -63 23 0 18 8 20 78 23 l77 3 0 -156 c0 -148 1 -155 20 -155 19
0 20 7 20 175 l0 175 -100 0 -100 0 0 110 0 110 -870 0 -870 0 0 -110 0 -110
-40 0 -40 0 0 110 c0 103 -1 110 -20 110 -19 0 -20 -7 -20 -130 l0 -129 58 -3
c49 -3 57 -6 57 -23 0 -18 -8 -20 -72 -23 l-73 -3 0 156 c0 148 -1 155 -20
155 -19 0 -20 -7 -20 -175z"/>
<path d="M14180 5515 l0 -285 285 0 285 0 0 285 0 285 -285 0 -285 0 0 -285z"/>
<path d="M14840 5515 c0 -278 0 -285 20 -285 20 0 20 7 20 285 0 278 0 285
-20 285 -20 0 -20 -7 -20 -285z"/>
<path d="M14910 5515 c0 -278 0 -285 20 -285 20 0 20 7 20 285 0 278 0 285
-20 285 -20 0 -20 -7 -20 -285z"/>
<path d="M680 4995 l0 -175 345 0 345 0 0 175 c0 168 -1 175 -20 175 -19 0
-20 -7 -20 -155 l0 -154 -305 0 -305 0 0 154 c0 148 -1 155 -20 155 -19 0 -20
-7 -20 -175z"/>
<path d="M750 5040 l0 -130 60 0 c33 -1 130 -1 215 -1 85 0 182 0 215 1 l60 0
0 130 c0 123 -1 130 -20 130 -19 0 -20 -7 -20 -110 l0 -110 -235 0 -235 0 0
110 c0 103 -1 110 -20 110 -19 0 -20 -7 -20 -130z"/>
<path d="M2990 4995 l0 -175 345 0 345 0 0 175 c0 168 -1 175 -20 175 -19 0
-20 -7 -20 -155 l0 -154 -305 0 -305 0 0 154 c0 148 -1 155 -20 155 -19 0 -20
-7 -20 -175z"/>
<path d="M3060 5040 l0 -130 60 0 c33 -1 130 -1 215 -1 85 0 182 0 215 1 l60
0 0 130 c0 123 -1 130 -20 130 -19 0 -20 -7 -20 -110 l0 -110 -235 0 -235 0 0
110 c0 103 -1 110 -20 110 -19 0 -20 -7 -20 -130z"/>
<path d="M4440 4995 l0 -175 345 0 345 0 0 175 c0 168 -1 175 -20 175 -19 0
-20 -7 -20 -155 l0 -154 -305 0 -305 0 0 154 c0 148 -1 155 -20 155 -19 0 -20
-7 -20 -175z"/>
<path d="M4510 5040 l0 -130 60 0 c33 -1 130 -1 215 -1 85 0 182 0 215 1 l60
0 0 130 c0 123 -1 130 -20 130 -19 0 -20 -7 -20 -110 l0 -110 -235 0 -235 0 0
110 c0 103 -1 110 -20 110 -19 0 -20 -7 -20 -130z"/>
<path d="M5300 4995 l0 -175 345 0 345 0 0 175 c0 168 -1 175 -20 175 -19 0
-20 -7 -20 -155 l0 -154 -305 0 -305 0 0 154 c0 148 -1 155 -20 155 -19 0 -20
-7 -20 -175z"/>
<path d="M5370 5040 l0 -130 60 0 c33 -1 130 -1 215 -1 85 0 182 0 215 1 l60
0 0 130 c0 123 -1 130 -20 130 -19 0 -20 -7 -20 -110 l0 -110 -235 0 -235 0 0
110 c0 103 -1 110 -20 110 -19 0 -20 -7 -20 -130z"/>
<path d="M6750 4995 l0 -175 635 0 635 0 0 175 c0 168 -1 175 -20 175 -19 0
-20 -7 -20 -155 l0 -154 -595 0 -595 0 0 154 c0 148 -1 155 -20 155 -19 0 -20
-7 -20 -175z"/>
<path d="M6820 5040 l0 -130 60 0 c33 0 260 -1 505 -1 245 0 472 1 505 1 l60
0 0 130 c0 123 -1 130 -20 130 -19 0 -20 -7 -20 -110 l0 -110 -525 0 -525 0 0
110 c0 103 -1 110 -20 110 -19 0 -20 -7 -20 -130z"/>
<path d="M8770 4995 l0 -175 345 0 345 0 0 175 c0 168 -1 175 -20 175 -19 0
-20 -7 -20 -155 l0 -154 -305 0 -305 0 0 154 c0 148 -1 155 -20 155 -19 0 -20
-7 -20 -175z"/>
<path d="M8840 5040 l0 -130 60 0 c33 -1 130 -1 215 -1 85 0 182 0 215 1 l60
0 0 130 c0 123 -1 130 -20 130 -19 0 -20 -7 -20 -110 l0 -110 -235 0 -235 0 0
110 c0 103 -1 110 -20 110 -19 0 -20 -7 -20 -130z"/>
<path d="M10220 4995 l0 -175 345 0 345 0 0 175 c0 168 -1 175 -20 175 -19 0
-20 -7 -20 -155 l0 -154 -305 0 -305 0 0 154 c0 148 -1 155 -20 155 -19 0 -20
-7 -20 -175z"/>
<path d="M10290 5040 l0 -130 60 0 c33 -1 130 -1 215 -1 85 0 182 0 215 1 l60
0 0 130 c0 123 -1 130 -20 130 -19 0 -20 -7 -20 -110 l0 -110 -235 0 -235 0 0
110 c0 103 -1 110 -20 110 -19 0 -20 -7 -20 -130z"/>
<path d="M11370 4995 l0 -175 925 0 925 0 0 175 c0 168 -1 175 -20 175 -19 0
-20 -7 -20 -155 l0 -154 -885 0 -885 0 0 154 c0 148 -1 155 -20 155 -19 0 -20
-7 -20 -175z"/>
<path d="M11440 5040 l0 -130 60 0 c33 0 391 -1 795 -1 404 0 762 1 795 1 l60
0 0 130 c0 123 -1 130 -20 130 -19 0 -20 -7 -20 -110 l0 -110 -815 0 -815 0 0
110 c0 103 -1 110 -20 110 -19 0 -20 -7 -20 -130z"/>
<path d="M14270 4995 l0 -175 340 0 340 0 0 175 c0 168 -1 175 -20 175 -19 0
-20 -7 -20 -155 l0 -154 -300 0 -300 0 0 155 c0 147 -1 154 -20 154 -19 0 -20
-7 -20 -175z"/>
<path d="M14340 5040 l0 -130 58 -1 c55 0 305 0 425 1 l57 0 0 130 c0 123 -1
130 -20 130 -19 0 -20 -7 -20 -110 l0 -110 -230 0 -230 0 0 110 c0 103 -1 110
-20 110 -19 0 -20 -7 -20 -130z"/>
<path d="M590 3795 l0 -285 1155 0 1155 0 0 110 0 110 45 0 45 0 0 -110 c0
-103 1 -110 20 -110 19 0 20 7 20 130 l0 129 -62 3 c-55 3 -63 5 -63 23 0 18
8 20 78 23 l77 3 0 -156 c0 -148 1 -155 20 -155 19 0 20 7 20 175 l0 175 -100
0 -100 0 0 110 0 110 -1155 0 -1155 0 0 -285z"/>
<path d="M3190 3795 l0 -285 1015 0 1015 0 0 110 0 110 40 0 40 0 0 -110 c0
-103 1 -110 20 -110 19 0 20 7 20 130 l0 129 -57 3 c-50 3 -58 6 -58 23 0 18
8 20 73 23 l72 3 0 -156 c0 -148 1 -155 20 -155 19 0 20 7 20 175 l0 175 -95
0 -95 0 0 110 0 110 -1015 0 -1015 0 0 -285z"/>
<path d="M5500 3795 l0 -285 870 0 870 0 0 110 0 110 45 0 45 0 0 -110 c0
-103 1 -110 20 -110 19 0 20 7 20 130 l0 129 -62 3 c-55 3 -63 5 -63 23 0 18
8 20 78 23 l77 3 0 -156 c0 -148 1 -155 20 -155 19 0 20 7 20 175 l0 175 -100
0 -100 0 0 110 0 110 -870 0 -870 0 0 -285z"/>
<path d="M7820 3795 l0 -285 430 0 430 0 0 110 0 110 45 0 45 0 0 -110 c0
-103 1 -110 20 -110 19 0 20 7 20 130 l0 129 -62 3 c-55 3 -63 5 -63 23 0 18
8 20 78 23 l77 3 0 -156 c0 -148 1 -155 20 -155 19 0 20 7 20 175 l0 175 -100
0 -100 0 0 110 0 110 -430 0 -430 0 0 -285z"/>
<path d="M9840 3795 l0 -285 435 0 435 0 0 110 0 110 45 0 45 0 0 -110 c0
-103 1 -110 20 -110 19 0 20 7 20 130 l0 129 -62 3 c-55 3 -63 5 -63 23 0 18
8 20 78 23 l77 3 0 -156 c0 -148 1 -155 20 -155 19 0 20 7 20 175 l0 175 -100
0 -100 0 0 110 0 110 -435 0 -435 0 0 -285z"/>
<path d="M11000 3795 l0 -285 285 0 285 0 0 110 0 110 45 0 45 0 0 -110 c0
-103 1 -110 20 -110 19 0 20 7 20 130 l0 129 -62 3 c-55 3 -63 5 -63 23 0 18
8 20 78 23 l77 3 0 -156 c0 -148 1 -155 20 -155 19 0 20 7 20 175 l0 175 -100
0 -100 0 0 110 0 110 -285 0 -285 0 0 -285z"/>
<path d="M11860 3795 l0 -285 435 0 435 0 0 110 0 110 45 0 45 0 0 -110 c0
-103 1 -110 20 -110 19 0 20 7 20 130 l0 129 -62 3 c-55 3 -63 5 -63 23 0 18
8 20 78 23 l77 3 0 -156 c0 -148 1 -155 20 -155 19 0 20 7 20 175 l0 175 -100
0 -100 0 0 110 0 110 -435 0 -435 0 0 -285z"/>
<path d="M13890 3795 l0 -285 290 0 290 0 0 110 0 110 40 0 40 0 0 -110 c0
-103 1 -110 20 -110 19 0 20 7 20 130 l0 129 -57 3 c-50 3 -58 6 -58 23 0 18
8 20 73 23 l72 3 0 -156 c0 -148 1 -155 20 -155 19 0 20 7 20 175 l0 175 -95
0 -95 0 0 110 0 110 -290 0 -290 0 0 -285z"/>
<path d="M15040 3795 l0 -285 725 0 725 0 0 110 0 110 45 0 45 0 0 -110 c0
-103 1 -110 20 -110 19 0 20 7 20 130 l0 129 -62 3 c-55 3 -63 5 -63 23 0 18
8 20 78 23 l77 3 0 -156 c0 -148 1 -155 20 -155 19 0 20 7 20 175 l0 175 -100
0 -100 0 0 110 0 110 -725 0 -725 0 0 -285z"/>
<path d="M17070 3795 l0 -285 285 0 285 0 0 110 0 110 45 0 45 0 0 -110 c0
-103 1 -110 20 -110 19 0 20 7 20 130 l0 129 -62 3 c-55 3 -63 5 -63 23 0 18
8 20 78 23 l77 3 0 -156 c0 -148 1 -155 20 -155 19 0 20 7 20 175 l0 175 -100
0 -100 0 0 110 0 110 -285 0 -285 0 0 -285z"/>
<path d="M680 3275 l0 -175 390 0 390 0 0 -110 0 -110 290 0 290 0 0 285 0
285 -290 0 -290 0 0 -110 0 -110 -335 0 -335 0 0 110 c0 103 -1 110 -20 110
-19 0 -20 -7 -20 -130 l0 -130 63 0 c34 -1 193 -2 352 -3 283 -2 290 -3 290
-22 0 -20 -7 -20 -367 -22 l-368 -2 0 154 c0 148 -1 155 -20 155 -19 0 -20 -7
-20 -175z"/>
<path d="M2990 3340 l0 -110 -435 0 -435 0 0 -175 c0 -168 1 -175 20 -175 19
0 20 7 20 155 l0 154 373 0 c204 0 400 0 435 1 l62 0 0 130 c0 123 -1 130 -20
130 -19 0 -20 -7 -20 -110z"/>
<path d="M3060 3295 l0 -154 -372 0 c-205 0 -401 0 -435 -1 l-63 0 0 -130 c0
-123 1 -130 20 -130 19 0 20 7 20 110 l0 110 435 0 435 0 0 175 c0 168 -1 175
-20 175 -19 0 -20 -7 -20 -155z"/>
<path d="M3190 3165 l0 -285 290 0 290 0 0 285 0 285 -290 0 -290 0 0 -285z"/>
<path d="M5300 3340 l0 -110 -720 0 -720 0 0 -175 c0 -168 1 -175 20 -175 19
0 20 7 20 155 l0 154 663 0 c364 0 688 0 720 1 l57 0 0 130 c0 123 -1 130 -20
130 -19 0 -20 -7 -20 -110z"/>
<path d="M5370 3295 l0 -154 -657 0 c-362 0 -686 -1 -720 -1 l-63 0 0 -130 c0
-123 1 -130 20 -130 19 0 20 7 20 110 l0 110 720 0 720 0 0 175 c0 168 -1 175
-20 175 -19 0 -20 -7 -20 -155z"/>
<path d="M5500 3165 l0 -285 290 0 290 0 0 285 0 285 -290 0 -290 0 0 -285z"/>
<path d="M6950 3340 l0 -110 -390 0 -390 0 0 -175 c0 -168 1 -175 20 -175 19
0 20 7 20 155 l0 154 368 -2 c360 -2 367 -2 367 -22 0 -19 -7 -20 -290 -22
-159 -1 -318 -2 -352 -3 l-63 0 0 -130 c0 -123 1 -130 20 -130 19 0 20 7 20
110 l0 110 335 0 335 0 0 -110 0 -110 290 0 290 0 0 110 0 110 45 0 45 0 0
-110 c0 -103 1 -110 20 -110 19 0 20 7 20 130 l0 129 -62 3 c-55 3 -63 5 -63
23 0 18 8 20 78 23 l77 3 0 -156 c0 -148 1 -155 20 -155 19 0 20 7 20 175 l0
175 -100 0 -100 0 0 110 0 110 -290 0 -290 0 0 -110z"/>
<path d="M7820 3165 l0 -285 575 0 575 0 0 110 0 110 45 0 45 0 0 -110 c0
-103 1 -110 20 -110 19 0 20 7 20 130 l0 129 -62 3 c-55 3 -63 5 -63 23 0 18
8 20 78 23 l77 3 0 -156 c0 -148 1 -155 20 -155 19 0 20 7 20 175 l0 175 -100
0 -100 0 0 110 0 110 -575 0 -575 0 0 -285z"/>
<path d="M9550 3165 l0 -285 580 0 580 0 0 285 0 285 -580 0 -580 0 0 -285z"/>
<path d="M10800 3165 c0 -278 0 -285 20 -285 20 0 20 7 20 285 0 278 0 285
-20 285 -20 0 -20 -7 -20 -285z"/>
<path d="M10870 3165 c0 -278 0 -285 20 -285 20 0 20 7 20 285 0 278 0 285
-20 285 -20 0 -20 -7 -20 -285z"/>
<path d="M11000 3165 l0 -285 285 0 285 0 0 285 0 285 -285 0 -285 0 0 -285z"/>
<path d="M11660 3165 c0 -278 0 -285 20 -285 20 0 20 7 20 285 0 278 0 285
-20 285 -20 0 -20 -7 -20 -285z"/>
<path d="M11730 3165 c0 -278 0 -285 20 -285 20 0 20 7 20 285 0 278 0 285
-20 285 -20 0 -20 -7 -20 -285z"/>
<path d="M11860 3165 l0 -285 580 0 580 0 0 110 0 110 45 0 45 0 0 -110 c0
-103 1 -110 20 -110 19 0 20 7 20 130 l0 129 -62 3 c-55 3 -63 5 -63 23 0 18
8 20 78 23 l77 3 0 -156 c0 -148 1 -155 20 -155 19 0 20 7 20 175 l0 175 -100
0 -100 0 0 110 0 110 -580 0 -580 0 0 -285z"/>
<path d="M13890 3165 l0 -285 290 0 290 0 0 285 0 285 -290 0 -290 0 0 -285z"/>
<path d="M14550 3165 c0 -278 0 -285 20 -285 20 0 20 7 20 285 0 278 0 285
-20 285 -20 0 -20 -7 -20 -285z"/>
<path d="M14620 3165 c0 -278 0 -285 20 -285 20 0 20 7 20 285 0 278 0 285
-20 285 -20 0 -20 -7 -20 -285z"/>
<path d="M14750 3165 l0 -285 290 0 290 0 0 285 0 285 -290 0 -290 0 0 -285z"/>
<path d="M16200 3340 l0 -110 -390 0 -390 0 0 -175 c0 -168 1 -175 20 -175 19
0 20 7 20 155 l0 154 368 -2 c360 -2 367 -2 367 -22 0 -19 -7 -20 -290 -22
-159 -1 -318 -2 -352 -3 l-63 0 0 -130 c0 -123 1 -130 20 -130 19 0 20 7 20
110 l0 110 335 0 335 0 0 -110 0 -110 290 0 290 0 0 110 0 110 45 0 45 0 0
-110 c0 -103 1 -110 20 -110 19 0 20 7 20 130 l0 129 -62 3 c-55 3 -63 5 -63
23 0 18 8 20 78 23 l77 3 0 -156 c0 -148 1 -155 20 -155 19 0 20 7 20 175 l0
175 -100 0 -100 0 0 110 0 110 -290 0 -290 0 0 -110z"/>
<path d="M17070 3165 l0 -285 285 0 285 0 0 285 0 285 -285 0 -285 0 0 -285z"/>
<path d="M17730 3165 c0 -278 0 -285 20 -285 20 0 20 7 20 285 0 278 0 285
-20 285 -20 0 -20 -7 -20 -285z"/>
<path d="M17800 3165 c0 -278 0 -285 20 -285 20 0 20 7 20 285 0 278 0 285
-20 285 -20 0 -20 -7 -20 -285z"/>
<path d="M1460 2535 l0 -285 290 0 290 0 0 285 0 285 -290 0 -290 0 0 -285z"/>
<path d="M2120 2535 c0 -278 0 -285 20 -285 20 0 20 7 20 285 0 278 0 285 -20
285 -20 0 -20 -7 -20 -285z"/>
<path d="M2190 2535 c0 -278 0 -285 20 -285 20 0 20 7 20 285 0 278 0 285 -20
285 -20 0 -20 -7 -20 -285z"/>
<path d="M3190 2535 l0 -285 725 0 725 0 0 110 0 110 45 0 45 0 0 -110 c0
-103 1 -110 20 -110 19 0 20 7 20 130 l0 129 -62 3 c-55 3 -63 5 -63 23 0 18
8 20 78 23 l77 3 0 -156 c0 -148 1 -155 20 -155 19 0 20 7 20 175 l0 175 -100
0 -100 0 0 110 0 110 -725 0 -725 0 0 -285z"/>
<path d="M5500 2535 l0 -285 870 0 870 0 0 285 0 285 -870 0 -870 0 0 -285z"/>
<path d="M7620 2710 l0 -110 -145 0 -145 0 0 -175 c0 -168 1 -175 20 -175 19
0 20 7 20 156 l0 156 83 -2 c45 -1 110 -2 145 -1 l62 1 0 130 c0 123 -1 130
-20 130 -19 0 -20 -7 -20 -110z"/>
<path d="M7690 2664 l0 -156 -82 2 c-46 1 -111 2 -145 1 l-63 -1 0 -130 c0
-123 1 -130 20 -130 19 0 20 7 20 110 l0 110 145 0 145 0 0 175 c0 168 -1 175
-20 175 -19 0 -20 -7 -20 -156z"/>
<path d="M7820 2535 l0 -285 285 0 285 0 0 285 0 285 -285 0 -285 0 0 -285z"/>
<path d="M8680 2710 l0 -110 -100 0 -100 0 0 -175 c0 -168 1 -175 20 -175 19
0 20 7 20 155 l0 156 78 -3 c69 -3 77 -5 77 -23 0 -18 -8 -20 -62 -23 l-63 -3
0 -129 c0 -123 1 -130 20 -130 19 0 20 7 20 110 l0 110 45 0 45 0 0 -110 0
-110 580 0 580 0 0 285 0 285 -580 0 -580 0 0 -110z"/>
<path d="M10130 2710 l0 -110 -100 0 -100 0 0 -175 c0 -168 1 -175 20 -175 19
0 20 7 20 155 l0 156 78 -3 c69 -3 77 -5 77 -23 0 -18 -8 -20 -62 -23 l-63 -3
0 -129 c0 -123 1 -130 20 -130 19 0 20 7 20 110 l0 110 45 0 45 0 0 -110 0
-110 290 0 290 0 0 285 0 285 -290 0 -290 0 0 -110z"/>
<path d="M10800 2535 c0 -278 0 -285 20 -285 20 0 20 7 20 285 0 278 0 285
-20 285 -20 0 -20 -7 -20 -285z"/>
<path d="M10870 2535 c0 -278 0 -285 20 -285 20 0 20 7 20 285 0 278 0 285
-20 285 -20 0 -20 -7 -20 -285z"/>
<path d="M11000 2535 l0 -285 285 0 285 0 0 285 0 285 -285 0 -285 0 0 -285z"/>
<path d="M11660 2535 c0 -278 0 -285 20 -285 20 0 20 7 20 285 0 278 0 285
-20 285 -20 0 -20 -7 -20 -285z"/>
<path d="M11730 2535 c0 -278 0 -285 20 -285 20 0 20 7 20 285 0 278 0 285
-20 285 -20 0 -20 -7 -20 -285z"/>
<path d="M11860 2535 l0 -285 290 0 290 0 0 285 0 285 -290 0 -290 0 0 -285z"/>
<path d="M12730 2710 l0 -110 -100 0 -100 0 0 -175 c0 -168 1 -175 20 -175 19
0 20 7 20 155 l0 156 78 -3 c69 -3 77 -5 77 -23 0 -18 -8 -20 -62 -23 l-63 -3
0 -129 c0 -123 1 -130 20 -130 19 0 20 7 20 110 l0 110 45 0 45 0 0 -110 0
-110 290 0 290 0 0 110 0 110 45 0 45 0 0 -110 c0 -103 1 -110 20 -110 19 0
20 7 20 130 l0 129 -62 3 c-55 3 -63 5 -63 23 0 18 8 20 78 23 l77 3 0 -156
c0 -148 1 -155 20 -155 19 0 20 7 20 175 l0 175 -100 0 -100 0 0 110 0 110
-290 0 -290 0 0 -110z"/>
<path d="M13890 2535 l0 -285 290 0 290 0 0 285 0 285 -290 0 -290 0 0 -285z"/>
<path d="M14550 2535 c0 -278 0 -285 20 -285 20 0 20 7 20 285 0 278 0 285
-20 285 -20 0 -20 -7 -20 -285z"/>
<path d="M14620 2535 c0 -278 0 -285 20 -285 20 0 20 7 20 285 0 278 0 285
-20 285 -20 0 -20 -7 -20 -285z"/>
<path d="M14750 2535 l0 -285 1015 0 1015 0 0 285 0 285 -1015 0 -1015 0 0
-285z"/>
<path d="M16870 2535 c0 -278 0 -285 20 -285 20 0 20 7 20 285 0 278 0 285
-20 285 -20 0 -20 -7 -20 -285z"/>
<path d="M16940 2535 c0 -278 0 -285 20 -285 20 0 20 7 20 285 0 278 0 285
-20 285 -20 0 -20 -7 -20 -285z"/>
<path d="M17070 2535 l0 -285 285 0 285 0 0 285 0 285 -285 0 -285 0 0 -285z"/>
<path d="M17730 2535 c0 -278 0 -285 20 -285 20 0 20 7 20 285 0 278 0 285
-20 285 -20 0 -20 -7 -20 -285z"/>
<path d="M17800 2535 c0 -278 0 -285 20 -285 20 0 20 7 20 285 0 278 0 285
-20 285 -20 0 -20 -7 -20 -285z"/>
<path d="M1460 1905 l0 -285 290 0 290 0 0 285 0 285 -290 0 -290 0 0 -285z"/>
<path d="M2120 1905 c0 -278 0 -285 20 -285 20 0 20 7 20 285 0 278 0 285 -20
285 -20 0 -20 -7 -20 -285z"/>
<path d="M2190 1905 c0 -278 0 -285 20 -285 20 0 20 7 20 285 0 278 0 285 -20
285 -20 0 -20 -7 -20 -285z"/>
<path d="M3190 1905 l0 -285 290 0 290 0 0 285 0 285 -290 0 -290 0 0 -285z"/>
<path d="M4730 2080 l0 -110 -435 0 -435 0 0 -175 c0 -168 1 -175 20 -175 19
0 20 7 20 155 l0 154 373 0 c204 0 400 0 435 1 l62 0 0 130 c0 123 -1 130 -20
130 -19 0 -20 -7 -20 -110z"/>
<path d="M4800 2035 l0 -154 -372 0 c-205 0 -401 0 -435 -1 l-63 0 0 -130 c0
-123 1 -130 20 -130 19 0 20 7 20 110 l0 110 435 0 435 0 0 175 c0 168 -1 175
-20 175 -19 0 -20 -7 -20 -155z"/>
<path d="M5500 1905 l0 -285 290 0 290 0 0 285 0 285 -290 0 -290 0 0 -285z"/>
<path d="M6950 2080 l0 -110 -390 0 -390 0 0 -175 c0 -168 1 -175 20 -175 19
0 20 7 20 155 l0 154 368 -2 c360 -2 367 -2 367 -22 0 -19 -7 -20 -290 -22
-159 -1 -318 -2 -352 -3 l-63 0 0 -130 c0 -123 1 -130 20 -130 19 0 20 7 20
110 l0 110 335 0 335 0 0 -110 0 -110 290 0 290 0 0 110 0 110 45 0 45 0 0
-110 c0 -103 1 -110 20 -110 19 0 20 7 20 130 l0 129 -62 3 c-55 3 -63 5 -63
23 0 18 8 20 78 23 l77 3 0 -156 c0 -148 1 -155 20 -155 19 0 20 7 20 175 l0
175 -100 0 -100 0 0 110 0 110 -290 0 -290 0 0 -110z"/>
<path d="M7820 1905 l0 -285 285 0 285 0 0 285 0 285 -285 0 -285 0 0 -285z"/>
<path d="M8480 1905 c0 -278 0 -285 20 -285 20 0 20 7 20 285 0 278 0 285 -20
285 -20 0 -20 -7 -20 -285z"/>
<path d="M8550 1905 c0 -278 0 -285 20 -285 20 0 20 7 20 285 0 278 0 285 -20
285 -20 0 -20 -7 -20 -285z"/>
<path d="M8770 2015 l0 -175 100 0 100 0 0 -110 0 -110 290 0 290 0 0 285 0
285 -290 0 -290 0 0 -110 0 -110 -45 0 -45 0 0 110 c0 103 -1 110 -20 110 -19
0 -20 -7 -20 -130 l0 -129 63 -3 c54 -3 62 -5 62 -23 0 -18 -8 -20 -77 -23
l-78 -3 0 156 c0 148 -1 155 -20 155 -19 0 -20 -7 -20 -175z"/>
<path d="M9930 2080 l0 -110 -145 0 -145 0 0 -175 c0 -168 1 -175 20 -175 19
0 20 7 20 156 l0 156 83 -2 c45 -1 110 -2 145 -1 l62 1 0 130 c0 123 -1 130
-20 130 -19 0 -20 -7 -20 -110z"/>
<path d="M10000 2034 l0 -156 -82 2 c-46 1 -111 2 -145 1 l-63 -1 0 -130 c0
-123 1 -130 20 -130 19 0 20 7 20 110 l0 110 145 0 145 0 0 175 c0 168 -1 175
-20 175 -19 0 -20 -7 -20 -156z"/>
<path d="M10130 1905 l0 -285 290 0 290 0 0 285 0 285 -290 0 -290 0 0 -285z"/>
<path d="M10800 1905 c0 -278 0 -285 20 -285 20 0 20 7 20 285 0 278 0 285
-20 285 -20 0 -20 -7 -20 -285z"/>
<path d="M10870 1905 c0 -278 0 -285 20 -285 20 0 20 7 20 285 0 278 0 285
-20 285 -20 0 -20 -7 -20 -285z"/>
<path d="M11000 1905 l0 -285 285 0 285 0 0 285 0 285 -285 0 -285 0 0 -285z"/>
<path d="M11660 1905 c0 -278 0 -285 20 -285 20 0 20 7 20 285 0 278 0 285
-20 285 -20 0 -20 -7 -20 -285z"/>
<path d="M11730 1905 c0 -278 0 -285 20 -285 20 0 20 7 20 285 0 278 0 285
-20 285 -20 0 -20 -7 -20 -285z"/>
<path d="M11860 1905 l0 -285 290 0 290 0 0 285 0 285 -290 0 -290 0 0 -285z"/>
<path d="M12530 1905 c0 -278 0 -285 20 -285 20 0 20 7 20 285 0 278 0 285
-20 285 -20 0 -20 -7 -20 -285z"/>
<path d="M12600 1905 c0 -278 0 -285 20 -285 20 0 20 7 20 285 0 278 0 285
-20 285 -20 0 -20 -7 -20 -285z"/>
<path d="M12820 2015 l0 -175 100 0 100 0 0 -110 0 -110 290 0 290 0 0 110 0
110 45 0 45 0 0 -110 c0 -103 1 -110 20 -110 19 0 20 7 20 130 l0 129 -62 3
c-55 3 -63 5 -63 23 0 18 8 20 78 23 l77 3 0 -156 c0 -148 1 -155 20 -155 19
0 20 7 20 175 l0 175 -100 0 -100 0 0 110 0 110 -290 0 -290 0 0 -110 0 -110
-45 0 -45 0 0 110 c0 103 -1 110 -20 110 -19 0 -20 -7 -20 -130 l0 -129 63 -3
c54 -3 62 -5 62 -23 0 -18 -8 -20 -77 -23 l-78 -3 0 156 c0 148 -1 155 -20
155 -19 0 -20 -7 -20 -175z"/>
<path d="M13890 1905 l0 -285 290 0 290 0 0 285 0 285 -290 0 -290 0 0 -285z"/>
<path d="M14550 1905 c0 -278 0 -285 20 -285 20 0 20 7 20 285 0 278 0 285
-20 285 -20 0 -20 -7 -20 -285z"/>
<path d="M14620 1905 c0 -278 0 -285 20 -285 20 0 20 7 20 285 0 278 0 285
-20 285 -20 0 -20 -7 -20 -285z"/>
<path d="M14750 1905 l0 -285 290 0 290 0 0 285 0 285 -290 0 -290 0 0 -285z"/>
<path d="M16200 2080 l0 -110 -390 0 -390 0 0 -175 c0 -168 1 -175 20 -175 19
0 20 7 20 155 l0 154 368 -2 c360 -2 367 -2 367 -22 0 -19 -7 -20 -290 -22
-159 -1 -318 -2 -352 -3 l-63 0 0 -130 c0 -123 1 -130 20 -130 19 0 20 7 20
110 l0 110 335 0 335 0 0 -110 0 -110 290 0 290 0 0 285 0 285 -290 0 -290 0
0 -110z"/>
<path d="M16870 1905 c0 -278 0 -285 20 -285 20 0 20 7 20 285 0 278 0 285
-20 285 -20 0 -20 -7 -20 -285z"/>
<path d="M16940 1905 c0 -278 0 -285 20 -285 20 0 20 7 20 285 0 278 0 285
-20 285 -20 0 -20 -7 -20 -285z"/>
<path d="M17070 1905 l0 -285 285 0 285 0 0 285 0 285 -285 0 -285 0 0 -285z"/>
<path d="M17730 1905 c0 -278 0 -285 20 -285 20 0 20 7 20 285 0 278 0 285
-20 285 -20 0 -20 -7 -20 -285z"/>
<path d="M17800 1905 c0 -278 0 -285 20 -285 20 0 20 7 20 285 0 278 0 285
-20 285 -20 0 -20 -7 -20 -285z"/>
<path d="M1460 1275 l0 -285 290 0 290 0 0 285 0 285 -290 0 -290 0 0 -285z"/>
<path d="M2120 1275 c0 -278 0 -285 20 -285 20 0 20 7 20 285 0 278 0 285 -20
285 -20 0 -20 -7 -20 -285z"/>
<path d="M2190 1275 c0 -278 0 -285 20 -285 20 0 20 7 20 285 0 278 0 285 -20
285 -20 0 -20 -7 -20 -285z"/>
<path d="M3190 1275 l0 -285 1015 0 1015 0 0 110 0 110 40 0 40 0 0 -110 c0
-103 1 -110 20 -110 19 0 20 7 20 130 l0 129 -57 3 c-50 3 -58 6 -58 23 0 18
8 20 73 23 l72 3 0 -156 c0 -148 1 -155 20 -155 19 0 20 7 20 175 l0 175 -95
0 -95 0 0 110 0 110 -1015 0 -1015 0 0 -285z"/>
<path d="M5500 1275 l0 -285 290 0 290 0 0 285 0 285 -290 0 -290 0 0 -285z"/>
<path d="M6170 1275 c0 -278 0 -285 20 -285 20 0 20 7 20 285 0 278 0 285 -20
285 -20 0 -20 -7 -20 -285z"/>
<path d="M6240 1275 c0 -278 0 -285 20 -285 20 0 20 7 20 285 0 278 0 285 -20
285 -20 0 -20 -7 -20 -285z"/>
<path d="M6950 1275 l0 -285 290 0 290 0 0 285 0 285 -290 0 -290 0 0 -285z"/>
<path d="M7620 1275 c0 -278 0 -285 20 -285 20 0 20 7 20 285 0 278 0 285 -20
285 -20 0 -20 -7 -20 -285z"/>
<path d="M7690 1275 c0 -278 0 -285 20 -285 20 0 20 7 20 285 0 278 0 285 -20
285 -20 0 -20 -7 -20 -285z"/>
<path d="M7820 1275 l0 -285 285 0 285 0 0 285 0 285 -285 0 -285 0 0 -285z"/>
<path d="M8480 1275 c0 -278 0 -285 20 -285 20 0 20 7 20 285 0 278 0 285 -20
285 -20 0 -20 -7 -20 -285z"/>
<path d="M8550 1275 c0 -278 0 -285 20 -285 20 0 20 7 20 285 0 278 0 285 -20
285 -20 0 -20 -7 -20 -285z"/>
<path d="M9060 1385 l0 -175 345 0 345 0 0 175 c0 168 -1 175 -20 175 -19 0
-20 -7 -20 -155 l0 -154 -305 0 -305 0 0 154 c0 148 -1 155 -20 155 -19 0 -20
-7 -20 -175z"/>
<path d="M9130 1430 l0 -130 60 0 c33 -1 130 -1 215 -1 85 0 182 0 215 1 l60
0 0 130 c0 123 -1 130 -20 130 -19 0 -20 -7 -20 -110 l0 -110 -235 0 -235 0 0
110 c0 103 -1 110 -20 110 -19 0 -20 -7 -20 -130z"/>
<path d="M10130 1275 l0 -285 290 0 290 0 0 285 0 285 -290 0 -290 0 0 -285z"/>
<path d="M10800 1275 c0 -278 0 -285 20 -285 20 0 20 7 20 285 0 278 0 285
-20 285 -20 0 -20 -7 -20 -285z"/>
<path d="M10870 1275 c0 -278 0 -285 20 -285 20 0 20 7 20 285 0 278 0 285
-20 285 -20 0 -20 -7 -20 -285z"/>
<path d="M11000 1275 l0 -285 285 0 285 0 0 285 0 285 -285 0 -285 0 0 -285z"/>
<path d="M11660 1275 c0 -278 0 -285 20 -285 20 0 20 7 20 285 0 278 0 285
-20 285 -20 0 -20 -7 -20 -285z"/>
<path d="M11730 1275 c0 -278 0 -285 20 -285 20 0 20 7 20 285 0 278 0 285
-20 285 -20 0 -20 -7 -20 -285z"/>
<path d="M11860 1275 l0 -285 290 0 290 0 0 285 0 285 -290 0 -290 0 0 -285z"/>
<path d="M12530 1275 c0 -278 0 -285 20 -285 20 0 20 7 20 285 0 278 0 285
-20 285 -20 0 -20 -7 -20 -285z"/>
<path d="M12600 1275 c0 -278 0 -285 20 -285 20 0 20 7 20 285 0 278 0 285
-20 285 -20 0 -20 -7 -20 -285z"/>
<path d="M13110 1385 l0 -175 100 0 100 0 0 -110 0 -110 580 0 580 0 0 285 0
285 -580 0 -580 0 0 -110 0 -110 -45 0 -45 0 0 110 c0 103 -1 110 -20 110 -19
0 -20 -7 -20 -130 l0 -129 63 -3 c54 -3 62 -5 62 -23 0 -18 -8 -20 -77 -23
l-78 -3 0 156 c0 148 -1 155 -20 155 -19 0 -20 -7 -20 -175z"/>
<path d="M14550 1275 c0 -278 0 -285 20 -285 20 0 20 7 20 285 0 278 0 285
-20 285 -20 0 -20 -7 -20 -285z"/>
<path d="M14620 1275 c0 -278 0 -285 20 -285 20 0 20 7 20 285 0 278 0 285
-20 285 -20 0 -20 -7 -20 -285z"/>
<path d="M14750 1275 l0 -285 290 0 290 0 0 285 0 285 -290 0 -290 0 0 -285z"/>
<path d="M15420 1275 c0 -278 0 -285 20 -285 20 0 20 7 20 285 0 278 0 285
-20 285 -20 0 -20 -7 -20 -285z"/>
<path d="M15490 1275 c0 -278 0 -285 20 -285 20 0 20 7 20 285 0 278 0 285
-20 285 -20 0 -20 -7 -20 -285z"/>
<path d="M16200 1275 l0 -285 290 0 290 0 0 285 0 285 -290 0 -290 0 0 -285z"/>
<path d="M16870 1275 c0 -278 0 -285 20 -285 20 0 20 7 20 285 0 278 0 285
-20 285 -20 0 -20 -7 -20 -285z"/>
<path d="M16940 1275 c0 -278 0 -285 20 -285 20 0 20 7 20 285 0 278 0 285
-20 285 -20 0 -20 -7 -20 -285z"/>
<path d="M17070 1275 l0 -285 1010 0 1010 0 0 110 0 110 45 0 45 0 0 -110 c0
-103 1 -110 20 -110 19 0 20 7 20 130 l0 129 -62 3 c-55 3 -63 5 -63 23 0 18
8 20 78 23 l77 3 0 -156 c0 -148 1 -155 20 -155 19 0 20 7 20 175 l0 175 -100
0 -100 0 0 110 0 110 -1010 0 -1010 0 0 -285z"/>
<path d="M1550 755 l0 -175 340 0 340 0 0 175 c0 168 -1 175 -20 175 -19 0
-20 -7 -20 -154 l0 -155 -300 0 -300 0 0 154 c0 148 -1 155 -20 155 -19 0 -20
-7 -20 -175z"/>
<path d="M1620 800 l0 -130 58 0 c119 -1 369 -1 425 -1 l57 1 0 130 c0 123 -1
130 -20 130 -19 0 -20 -7 -20 -110 l0 -110 -230 0 -230 0 0 110 c0 103 -1 110
-20 110 -19 0 -20 -7 -20 -130z"/>
<path d="M3280 755 l0 -175 1065 0 1065 0 0 175 c0 168 -1 175 -20 175 -19 0
-20 -7 -20 -154 l0 -155 -1025 0 -1025 0 0 154 c0 148 -1 155 -20 155 -19 0
-20 -7 -20 -175z"/>
<path d="M3350 800 l0 -130 58 0 c86 -1 1808 -1 1875 0 l57 0 0 130 c0 123 -1
130 -20 130 -19 0 -20 -7 -20 -110 l0 -110 -955 0 -955 0 0 110 c0 103 -1 110
-20 110 -19 0 -20 -7 -20 -130z"/>
<path d="M5590 755 l0 -175 345 0 345 0 0 175 c0 168 -1 175 -20 175 -19 0
-20 -7 -20 -155 l0 -154 -305 0 -305 0 0 154 c0 148 -1 155 -20 155 -19 0 -20
-7 -20 -175z"/>
<path d="M5660 800 l0 -130 60 0 c33 -1 130 -1 215 -1 85 0 182 0 215 1 l60 0
0 130 c0 123 -1 130 -20 130 -19 0 -20 -7 -20 -110 l0 -110 -235 0 -235 0 0
110 c0 103 -1 110 -20 110 -19 0 -20 -7 -20 -130z"/>
<path d="M7040 755 l0 -175 345 0 345 0 0 175 c0 168 -1 175 -20 175 -19 0
-20 -7 -20 -155 l0 -154 -305 0 -305 0 0 154 c0 148 -1 155 -20 155 -19 0 -20
-7 -20 -175z"/>
<path d="M7110 800 l0 -130 60 0 c33 -1 130 -1 215 -1 85 0 182 0 215 1 l60 0
0 130 c0 123 -1 130 -20 130 -19 0 -20 -7 -20 -110 l0 -110 -235 0 -235 0 0
110 c0 103 -1 110 -20 110 -19 0 -20 -7 -20 -130z"/>
<path d="M7910 755 l0 -175 340 0 340 0 0 175 c0 168 -1 175 -20 175 -19 0
-20 -7 -20 -155 l0 -154 -300 0 -300 0 0 155 c0 147 -1 154 -20 154 -19 0 -20
-7 -20 -175z"/>
<path d="M7980 800 l0 -130 58 -1 c55 0 305 0 425 1 l57 0 0 130 c0 123 -1
130 -20 130 -19 0 -20 -7 -20 -110 l0 -110 -230 0 -230 0 0 110 c0 103 -1 110
-20 110 -19 0 -20 -7 -20 -130z"/>
<path d="M10220 755 l0 -175 345 0 345 0 0 175 c0 168 -1 175 -20 175 -19 0
-20 -7 -20 -155 l0 -154 -305 0 -305 0 0 154 c0 148 -1 155 -20 155 -19 0 -20
-7 -20 -175z"/>
<path d="M10290 800 l0 -130 60 0 c33 -1 130 -1 215 -1 85 0 182 0 215 1 l60
0 0 130 c0 123 -1 130 -20 130 -19 0 -20 -7 -20 -110 l0 -110 -235 0 -235 0 0
110 c0 103 -1 110 -20 110 -19 0 -20 -7 -20 -130z"/>
<path d="M11090 755 l0 -175 340 0 340 0 0 175 c0 168 -1 175 -20 175 -19 0
-20 -7 -20 -155 l0 -154 -300 0 -300 0 0 155 c0 147 -1 154 -20 154 -19 0 -20
-7 -20 -175z"/>
<path d="M11160 800 l0 -130 58 -1 c55 0 305 0 425 1 l57 0 0 130 c0 123 -1
130 -20 130 -19 0 -20 -7 -20 -110 l0 -110 -230 0 -230 0 0 110 c0 103 -1 110
-20 110 -19 0 -20 -7 -20 -130z"/>
<path d="M11950 755 l0 -175 345 0 345 0 0 175 c0 168 -1 175 -20 175 -19 0
-20 -7 -20 -155 l0 -154 -305 0 -305 0 0 154 c0 148 -1 155 -20 155 -19 0 -20
-7 -20 -175z"/>
<path d="M12020 800 l0 -130 60 0 c33 -1 130 -1 215 -1 85 0 182 0 215 1 l60
0 0 130 c0 123 -1 130 -20 130 -19 0 -20 -7 -20 -110 l0 -110 -235 0 -235 0 0
110 c0 103 -1 110 -20 110 -19 0 -20 -7 -20 -130z"/>
<path d="M13400 755 l0 -175 630 0 630 0 0 175 c0 168 -1 175 -20 175 -19 0
-20 -7 -20 -154 l0 -155 -590 0 -590 0 0 154 c0 148 -1 155 -20 155 -19 0 -20
-7 -20 -175z"/>
<path d="M13470 800 l0 -130 58 0 c96 -1 943 -1 1005 0 l57 0 0 130 c0 123 -1
130 -20 130 -19 0 -20 -7 -20 -110 l0 -110 -520 0 -520 0 0 110 c0 103 -1 110
-20 110 -19 0 -20 -7 -20 -130z"/>
<path d="M14840 755 l0 -175 345 0 345 0 0 175 c0 168 -1 175 -20 175 -19 0
-20 -7 -20 -155 l0 -154 -305 0 -305 0 0 154 c0 148 -1 155 -20 155 -19 0 -20
-7 -20 -175z"/>
<path d="M14910 800 l0 -130 60 0 c33 -1 130 -1 215 -1 85 0 182 0 215 1 l60
0 0 130 c0 123 -1 130 -20 130 -19 0 -20 -7 -20 -110 l0 -110 -235 0 -235 0 0
110 c0 103 -1 110 -20 110 -19 0 -20 -7 -20 -130z"/>
<path d="M16290 755 l0 -175 345 0 345 0 0 175 c0 168 -1 175 -20 175 -19 0
-20 -7 -20 -155 l0 -154 -305 0 -305 0 0 154 c0 148 -1 155 -20 155 -19 0 -20
-7 -20 -175z"/>
<path d="M16360 800 l0 -130 60 0 c33 -1 130 -1 215 -1 85 0 182 0 215 1 l60
0 0 130 c0 123 -1 130 -20 130 -19 0 -20 -7 -20 -110 l0 -110 -235 0 -235 0 0
110 c0 103 -1 110 -20 110 -19 0 -20 -7 -20 -130z"/>
<path d="M17160 755 l0 -175 1065 0 1065 0 0 175 c0 168 -1 175 -20 175 -19 0
-20 -7 -20 -155 l0 -154 -1025 0 -1025 0 0 155 c0 147 -1 154 -20 154 -19 0
-20 -7 -20 -175z"/>
<path d="M17230 800 l0 -130 58 0 c66 -1 1788 -1 1875 0 l57 0 0 130 c0 123
-1 130 -20 130 -19 0 -20 -7 -20 -110 l0 -110 -955 0 -955 0 0 110 c0 103 -1
110 -20 110 -19 0 -20 -7 -20 -130z"/>
  </g>

  <!-- Scanline overlay -->
  <rect width="100%" height="100%" fill="url(#scanlines)" opacity="0.5" pointer-events="none"/>
</svg>