<svg xmlns="http://www.w3.org/2000/svg" viewBox="0 0 997 376" role="img" aria-label="Privacy Terminal">
  <defs>
    <filter id="glow" x="-20%" y="-20%" width="140%" height="140%">
      <feGaussianBlur stdDeviation="2" result="blur"/>
      <feMerge>
        <feMergeNode in="blur"/>
        <feMergeNode in="SourceGraphic"/>
      </feMerge>
    </filter>
  </defs>
  <rect width="100%" height="100%" fill="transparent"/>
  <g transform="translate(0,376) scale(0.1,-0.1)" fill="#00ff41" stroke="none" filter="url(#glow)">
    <path d="M0 1880 l0 -1880 4985 0 4985 0 0 1880 0 1880 -4985 0 -4985 0 0
-1880z m1218 1618 l3 -58 44 0 45 0 0 -79 c0 -75 1 -80 23 -83 19 -3 22 -10
25 -60 l3 -58 49 0 50 0 0 -170 0 -170 -75 0 -75 0 0 -140 0 -140 -290 0 -290
0 0 -280 0 -280 -172 2 -173 3 -3 83 c-3 74 -5 82 -22 82 -20 0 -20 12 -20
705 l0 705 438 -3 437 -2 3 -57z m1150 0 l3 -58 49 0 50 0 0 -79 c0 -75 1 -80
23 -83 19 -3 22 -10 25 -60 l3 -58 44 0 45 0 0 -170 0 -170 -70 0 -70 0 0 -49
c0 -44 3 -50 23 -53 19 -3 22 -10 25 -60 l3 -58 44 0 45 0 0 -310 0 -310 -172
2 -173 3 -3 83 c-3 74 -5 82 -22 82 -19 0 -20 8 -20 195 l0 195 -165 0 -165 0
0 -280 0 -280 -172 2 -173 3 -3 83 c-3 74 -5 82 -22 82 -20 0 -20 12 -20 705
l0 705 433 -3 432 -2 3 -57z m580 0 l3 -58 49 0 50 0 0 -730 0 -730 -172 2
-173 3 -3 83 c-3 74 -5 82 -22 82 -20 0 -20 12 -20 705 l0 706 143 -3 142 -3
3 -57z m440 0 l3 -58 44 0 45 0 0 -359 0 -360 23 -3 c19 -3 22 -10 25 -60 l3
-58 44 0 45 0 0 -79 c0 -92 -5 -88 118 -83 l72 4 0 139 0 139 75 0 75 0 0 420
0 421 143 -3 142 -3 3 -57 3 -58 49 0 50 0 0 -450 0 -450 -75 0 -75 0 0 -140
0 -140 -70 0 -70 0 0 -140 0 -140 -317 2 -318 3 -3 83 c-3 74 -5 82 -22 82
-17 0 -20 7 -20 54 l0 55 -47 3 -48 3 -3 83 c-3 74 -5 82 -22 82 -17 0 -20 7
-20 54 l0 55 -52 3 -53 3 -3 83 c-3 74 -5 82 -22 82 -20 0 -20 10 -20 425 l0
425 148 -3 147 -2 3 -57z m1870 0 l3 -58 49 0 50 0 0 -79 c0 -75 1 -80 23 -83
19 -3 22 -10 25 -60 l3 -58 44 0 45 0 0 -590 0 -590 -172 2 -173 3 -3 83 c-3
74 -5 82 -22 82 -19 0 -20 8 -20 195 l0 195 -165 0 -165 0 0 -280 0 -280 -172
2 -173 3 -3 83 c-3 74 -5 82 -22 82 -20 0 -20 11 -20 565 l0 565 75 0 75 0 0
140 0 140 358 -3 357 -2 3 -57z m1300 0 l3 -58 49 0 50 0 0 -170 0 -170 -360
0 -360 0 0 -330 0 -330 93 0 c50 0 189 -2 307 -3 l215 -2 3 -57 3 -58 49 0 50
0 0 -170 0 -170 -462 2 -463 3 -3 83 c-3 74 -5 82 -22 82 -17 0 -20 7 -20 54
l0 55 -47 3 -48 3 -3 83 c-3 74 -5 82 -22 82 -20 0 -20 10 -20 425 l0 425 70
0 70 0 0 140 0 139 433 -2 432 -2 3 -57z m440 0 l3 -58 44 0 45 0 0 -79 c0
-75 1 -80 23 -83 19 -3 22 -10 25 -60 l3 -58 49 0 50 0 0 -80 0 -80 95 0 95 0
0 140 0 140 70 0 70 0 0 140 0 140 148 -3 147 -2 3 -57 3 -58 44 0 45 0 0
-170 0 -170 -70 0 -70 0 0 -140 0 -140 -75 0 -75 0 0 -140 0 -140 -70 0 -70 0
0 -280 0 -280 -172 2 -173 3 -3 83 c-3 74 -5 82 -22 82 -19 0 -20 8 -20 194
l0 195 -52 3 -53 3 -3 83 c-3 74 -5 82 -22 82 -17 0 -20 7 -20 54 l0 55 -47 3
-48 3 -3 83 c-3 74 -5 82 -22 82 -17 0 -20 7 -20 54 l0 55 -52 3 -53 3 -3 83
c-3 74 -5 82 -22 82 -19 0 -20 8 -20 145 l0 145 148 -3 147 -2 3 -57z m-5490
-1680 l3 -58 44 0 45 0 0 -170 0 -170 -215 0 -215 0 0 -560 0 -560 -172 2
-173 3 -3 83 c-3 74 -5 82 -22 82 -20 0 -20 10 -20 475 l0 475 -197 2 -198 3
-3 83 c-3 74 -5 82 -22 82 -19 0 -20 8 -20 145 l0 145 583 -3 582 -2 3 -57z
m1150 0 l3 -58 49 0 50 0 0 -170 0 -170 -365 0 -365 0 0 -50 c0 -45 2 -50 23
-50 12 -1 87 -2 167 -3 l145 -2 3 -57 3 -58 49 0 50 0 0 -170 0 -170 -220 0
-220 0 0 -50 c0 -45 2 -50 23 -50 12 0 153 -2 312 -3 l290 -2 3 -58 3 -57 49
0 50 0 0 -170 0 -170 -532 2 -533 3 -3 82 c-3 75 -5 83 -22 83 -20 0 -20 12
-20 705 l0 705 503 -3 502 -2 3 -57z m1010 0 l3 -58 49 0 50 0 0 -79 c0 -75 1
-80 23 -83 19 -3 22 -10 25 -60 l3 -58 44 0 45 0 0 -170 0 -170 -70 0 -70 0 0
-49 c0 -44 3 -50 23 -53 19 -3 22 -10 25 -60 l3 -58 44 0 45 0 0 -310 0 -310
-172 2 -173 3 -3 82 c-3 75 -5 83 -22 83 -19 0 -20 8 -20 195 l0 195 -165 0
-165 0 0 -280 0 -280 -172 2 -173 3 -3 82 c-3 75 -5 83 -22 83 -20 0 -20 12
-20 705 l0 704 433 -2 432 -2 3 -57z m730 0 l3 -58 44 0 45 0 0 -79 c0 -75 1
-80 23 -83 19 -3 22 -10 25 -60 l3 -58 49 0 50 0 0 -80 0 -80 95 0 95 0 0 140
0 140 70 0 70 0 0 140 0 140 218 -2 217 -3 3 -57 3 -58 44 0 45 0 0 -730 0
-730 -172 2 -173 3 -3 82 c-3 75 -5 83 -22 83 -19 0 -20 9 -20 335 0 328 0
335 -20 335 -19 0 -20 -7 -20 -140 l0 -140 -70 0 -70 0 0 -140 0 -140 -172 2
-173 3 -3 83 c-3 74 -5 82 -22 82 -17 0 -20 7 -20 54 l0 55 -52 3 -53 3 -3 83
c-3 74 -5 82 -22 82 -17 0 -20 7 -20 55 0 48 -2 55 -20 55 -20 0 -20 -7 -20
-420 l0 -420 -172 2 -173 3 -3 82 c-3 75 -5 83 -22 83 -20 0 -20 12 -20 705
l0 705 218 -2 217 -3 3 -57z m1440 0 l3 -58 49 0 50 0 0 -730 0 -730 -172 2
-173 3 -3 82 c-3 75 -5 83 -22 83 -20 0 -20 12 -20 705 l0 706 143 -3 142 -3
3 -57z m580 0 l3 -58 44 0 45 0 0 -79 c0 -75 1 -80 23 -83 19 -3 22 -10 25
-60 l3 -58 49 0 50 0 0 -79 c0 -75 1 -80 23 -83 19 -3 22 -10 25 -60 l3 -58
44 0 45 0 0 -79 c0 -75 1 -80 23 -83 19 -3 22 -10 25 -60 l3 -58 49 0 50 0 0
-80 c0 -73 2 -80 20 -80 20 0 20 7 20 560 l0 560 148 -3 147 -2 3 -57 3 -58
44 0 45 0 0 -730 0 -730 -317 2 -318 3 -3 82 c-3 75 -5 83 -22 83 -17 0 -20 7
-20 54 l0 55 -47 3 -48 3 -3 83 c-3 74 -5 82 -22 82 -17 0 -20 7 -20 54 l0 55
-52 3 -53 3 -3 83 c-3 74 -5 82 -22 82 -17 0 -20 7 -20 55 0 48 -2 55 -20 55
-20 0 -20 -7 -20 -420 l0 -420 -172 2 -173 3 -3 82 c-3 75 -5 83 -22 83 -20 0
-20 12 -20 705 l0 705 218 -3 217 -2 3 -57z m1880 0 l3 -58 44 0 45 0 0 -79
c0 -75 1 -80 23 -83 19 -3 22 -10 25 -60 l3 -58 49 0 50 0 0 -590 0 -590 -172
2 -173 3 -3 83 c-3 74 -5 82 -22 82 -19 0 -20 8 -20 195 l0 195 -165 0 -165 0
0 -280 0 -280 -172 2 -173 3 -3 82 c-3 75 -5 83 -22 83 -20 0 -20 11 -20 565
l0 565 70 0 70 0 0 140 0 140 363 -3 362 -2 3 -57z m580 0 l3 -58 44 0 45 0 0
-500 0 -500 23 0 c12 0 153 -2 312 -3 l290 -2 3 -58 3 -57 44 0 45 0 0 -170 0
-170 -532 2 -533 3 -3 82 c-3 75 -5 83 -22 83 -20 0 -20 12 -20 705 l0 705
148 -3 147 -2 3 -57z M1220 3410 c0 -5 11 -10 25 -10 24 0 25 -3 25 -60 0 -33
4 -60 10 -60 6 0 10 30 10 70 l0 70 -35 0 c-19 0 -35 -4 -35 -10z M1220 3330
c0 -38 4 -50 15 -50 11 0 15 12 15 50 0 38 -4 50 -15 50 -11 0 -15 -12 -15
-50z M640 3135 c0 -113 2 -135 15 -135 12 0 15 16 15 80 l0 80 200 0 200 0 0
55 0 55 -215 0 -215 0 0 -135z M690 3070 c0 -40 4 -70 10 -70 6 0 10 27 10 60
l0 60 180 0 c113 0 180 4 180 10 0 6 -70 10 -190 10 l-190 0 0 -70z M1360
3130 c0 -5 14 -10 30 -10 l30 0 0 -130 0 -130 -75 0 -75 0 0 -140 0 -140 -290
0 -290 0 0 -280 0 -280 -135 0 -135 0 0 65 c0 37 -4 65 -10 65 -6 0 -10 -32
-10 -75 l0 -75 155 0 155 0 0 280 0 280 290 0 290 0 0 140 0 140 75 0 75 0 0
150 0 150 -40 0 c-22 0 -40 -4 -40 -10z M730 3051 c0 -60 -10 -57 193 -53
l147 3 0 50 0 49 -170 0 -170 0 0 -49z M1360 3045 l0 -55 -70 0 -70 0 0 -140
0 -140 -290 0 -290 0 0 -280 0 -280 -100 0 -100 0 0 -55 0 -55 115 0 115 0 0
280 0 280 290 0 290 0 0 140 0 140 75 0 75 0 0 110 c0 103 -1 110 -20 110 -18
0 -20 -7 -20 -55z M2370 3410 c0 -5 14 -10 30 -10 l30 0 0 -60 c0 -33 4 -60
10 -60 6 0 10 30 10 70 l0 70 -40 0 c-22 0 -40 -4 -40 -10z M2370 3330 c0 -43
3 -50 20 -50 17 0 20 7 20 50 0 43 -3 50 -20 50 -17 0 -20 -7 -20 -50z M1800
3135 c0 -113 2 -135 15 -135 12 0 15 16 15 80 l0 80 195 0 195 0 0 55 0 55
-210 0 -210 0 0 -135z M1850 3070 c0 -40 4 -70 10 -70 6 0 10 27 10 60 l0 60
175 0 c110 0 175 4 175 10 0 6 -68 10 -185 10 l-185 0 0 -70z M2520 3130 c0
-5 11 -10 25 -10 l25 0 0 -130 0 -130 -70 0 -70 0 0 -70 c0 -40 4 -70 10 -70
6 0 10 27 10 60 l0 60 70 0 70 0 0 150 0 150 -35 0 c-19 0 -35 -4 -35 -10z
M1890 3051 l0 -50 93 -3 c50 -2 125 -2 165 0 l72 3 0 49 0 50 -165 0 -165 0 0
-49z M2520 3045 l0 -55 -75 0 -75 0 0 -135 c0 -128 1 -135 20 -135 18 0 20 7
20 80 l0 80 70 0 70 0 0 110 c0 91 -3 110 -15 110 -12 0 -15 -13 -15 -55z
M1800 2430 l0 -280 -100 0 -100 0 0 -55 0 -55 115 0 115 0 0 280 0 280 195 0
195 0 0 55 0 55 -210 0 -210 0 0 -280z M1850 2300 l0 -280 -135 0 -135 0 0 65
c0 37 -4 65 -10 65 -6 0 -10 -32 -10 -75 l0 -75 155 0 155 0 0 280 0 280 175
0 c110 0 175 4 175 10 0 6 -68 10 -185 10 l-185 0 0 -280z M2520 2570 c0 -5
11 -10 25 -10 l25 0 0 -270 0 -270 -135 0 -135 0 0 65 c0 37 -4 65 -10 65 -6
0 -10 -32 -10 -75 l0 -75 155 0 155 0 0 290 0 290 -35 0 c-19 0 -35 -4 -35
-10z M2520 2345 l0 -195 -100 0 -100 0 0 -55 0 -55 115 0 115 0 0 250 c0 216
-2 250 -15 250 -13 0 -15 -28 -15 -195z M2950 3410 c0 -5 14 -10 30 -10 l30 0
0 -690 0 -690 -135 0 -135 0 0 65 c0 37 -4 65 -10 65 -6 0 -10 -32 -10 -75 l0
-75 155 0 155 0 0 710 0 710 -40 0 c-22 0 -40 -4 -40 -10z M2950 2765 l0 -615
-95 0 -95 0 0 -55 0 -55 115 0 115 0 0 670 c0 663 0 670 -20 670 -20 0 -20 -7
-20 -615z M3390 3410 c0 -5 11 -10 25 -10 l25 0 0 -340 c0 -220 4 -340 10
-340 6 0 10 123 10 350 l0 350 -35 0 c-19 0 -35 -4 -35 -10z M4250 3410 c0 -5
14 -10 30 -10 l30 0 0 -410 0 -410 -75 0 -75 0 0 -140 0 -140 -70 0 -70 0 0
-140 0 -140 -280 0 -280 0 0 65 c0 37 -4 65 -10 65 -6 0 -10 -32 -10 -75 l0
-75 300 0 300 0 0 140 0 140 70 0 70 0 0 140 0 140 75 0 75 0 0 430 0 430 -40
0 c-22 0 -40 -4 -40 -10z M3390 3050 c0 -287 2 -330 15 -330 13 0 15 43 15
330 0 287 -2 330 -15 330 -13 0 -15 -43 -15 -330z M4250 3045 l0 -335 -70 0
-70 0 0 -140 0 -140 -75 0 -75 0 0 -140 0 -140 -240 0 -240 0 0 -55 0 -55 260
0 260 0 0 140 0 140 70 0 70 0 0 140 0 140 75 0 75 0 0 390 c0 383 0 390 -20
390 -20 0 -20 -7 -20 -335z M3150 2635 l0 -75 45 0 c25 0 45 5 45 10 0 6 -16
10 -35 10 l-35 0 0 65 c0 37 -4 65 -10 65 -6 0 -10 -32 -10 -75z M3190 2655
c0 -52 1 -55 25 -55 24 0 25 3 25 55 0 52 -1 55 -25 55 -24 0 -25 -3 -25 -55z
M3530 2570 c0 -5 11 -10 25 -10 24 0 25 -3 25 -60 0 -33 4 -60 10 -60 6 0 10
30 10 70 l0 70 -35 0 c-19 0 -35 -4 -35 -10z M3530 2490 c0 -38 4 -50 15 -50
11 0 15 12 15 50 0 38 -4 50 -15 50 -11 0 -15 -12 -15 -50z M3300 2355 l0 -75
40 0 c22 0 40 5 40 10 0 6 -13 10 -30 10 l-30 0 0 65 c0 37 -4 65 -10 65 -6 0
-10 -32 -10 -75z M3340 2375 c0 -48 2 -55 20 -55 18 0 20 7 20 55 0 48 -2 55
-20 55 -18 0 -20 -7 -20 -55z M5260 3410 c0 -5 14 -10 30 -10 l30 0 0 -60 c0
-33 4 -60 10 -60 6 0 10 30 10 70 l0 70 -40 0 c-22 0 -40 -4 -40 -10z M5260
3330 c0 -43 3 -50 20 -50 17 0 20 7 20 50 0 43 -3 50 -20 50 -17 0 -20 -7 -20
-50z M4690 3135 c0 -113 2 -135 15 -135 12 0 15 16 15 80 l0 80 195 0 195 0 0
55 0 55 -210 0 -210 0 0 -135z M4740 3070 c0 -40 4 -70 10 -70 6 0 10 27 10
60 l0 60 175 0 c110 0 175 4 175 10 0 6 -68 10 -185 10 l-185 0 0 -70z M5410
3130 c0 -5 11 -10 25 -10 l25 0 0 -550 0 -550 -135 0 -135 0 0 65 c0 37 -4 65
-10 65 -6 0 -10 -32 -10 -75 l0 -75 155 0 155 0 0 570 0 570 -35 0 c-19 0 -35
-4 -35 -10z M4780 3051 c0 -60 -9 -57 188 -53 l142 3 0 50 0 49 -165 0 -165 0
0 -49z M5410 2625 l0 -475 -100 0 -100 0 0 -55 0 -55 115 0 115 0 0 530 c0
464 -2 530 -15 530 -13 0 -15 -59 -15 -475z M4690 2430 l0 -280 -100 0 -100 0
0 -55 0 -55 115 0 115 0 0 280 0 280 195 0 195 0 0 55 0 55 -210 0 -210 0 0
-280z M4740 2300 l0 -280 -135 0 -135 0 0 65 c0 37 -4 65 -10 65 -6 0 -10 -32
-10 -75 l0 -75 155 0 155 0 0 280 0 280 175 0 c110 0 175 4 175 10 0 6 -68 10
-185 10 l-185 0 0 -280z M6560 3410 c0 -5 14 -10 30 -10 l30 0 0 -130 0 -130
-360 0 -360 0 0 -350 c0 -227 4 -350 10 -350 6 0 10 120 10 340 l0 340 360 0
360 0 0 150 0 150 -40 0 c-22 0 -40 -4 -40 -10z M6560 3325 l0 -55 -360 0
-360 0 0 -415 c0 -408 0 -415 20 -415 20 0 20 7 20 360 l0 360 360 0 360 0 0
110 c0 103 -1 110 -20 110 -18 0 -20 -7 -20 -55z M5610 2355 l0 -75 40 0 c22
0 40 5 40 10 0 6 -13 10 -30 10 l-30 0 0 65 c0 37 -4 65 -10 65 -6 0 -10 -32
-10 -75z M5650 2375 c0 -48 2 -55 20 -55 18 0 20 7 20 55 0 48 -2 55 -20 55
-18 0 -20 -7 -20 -55z M6560 2290 c0 -5 14 -10 30 -10 l30 0 0 -130 0 -130
-425 0 -425 0 0 65 c0 37 -4 65 -10 65 -6 0 -10 -32 -10 -75 l0 -75 445 0 445
0 0 150 0 150 -40 0 c-22 0 -40 -4 -40 -10z M6560 2205 l0 -55 -385 0 -385 0
0 -55 0 -55 405 0 405 0 0 110 c0 103 -1 110 -20 110 -18 0 -20 -7 -20 -55z
M7000 3410 c0 -5 11 -10 25 -10 24 0 25 -3 25 -60 0 -33 4 -60 10 -60 6 0 10
30 10 70 l0 70 -35 0 c-19 0 -35 -4 -35 -10z M7870 3410 c0 -5 11 -10 25 -10
l25 0 0 -130 0 -130 -70 0 -70 0 0 -140 0 -140 -75 0 -75 0 0 -140 0 -140 -70
0 -70 0 0 -280 0 -280 -135 0 -135 0 0 65 c0 37 -4 65 -10 65 -6 0 -10 -32
-10 -75 l0 -75 155 0 155 0 0 280 0 280 70 0 70 0 0 140 0 140 75 0 75 0 0
140 0 140 70 0 70 0 0 150 0 150 -35 0 c-19 0 -35 -4 -35 -10z M7000 3330 c0
-38 4 -50 15 -50 11 0 15 12 15 50 0 38 -4 50 -15 50 -11 0 -15 -12 -15 -50z
M7870 3325 l0 -55 -75 0 -75 0 0 -140 0 -140 -70 0 -70 0 0 -140 0 -140 -75 0
-75 0 0 -280 0 -280 -95 0 -95 0 0 -55 0 -55 115 0 115 0 0 280 0 280 70 0 70
0 0 140 0 140 75 0 75 0 0 140 0 140 70 0 70 0 0 110 c0 91 -3 110 -15 110
-12 0 -15 -13 -15 -55z M6760 3195 l0 -75 45 0 c25 0 45 5 45 10 0 6 -16 10
-35 10 l-35 0 0 65 c0 37 -4 65 -10 65 -6 0 -10 -32 -10 -75z M6800 3215 c0
-52 1 -55 25 -55 24 0 25 3 25 55 0 52 -1 55 -25 55 -24 0 -25 -3 -25 -55z
M7140 3130 c0 -5 14 -10 30 -10 l30 0 0 -60 c0 -33 4 -60 10 -60 6 0 10 30 10
70 l0 70 -40 0 c-22 0 -40 -4 -40 -10z M7140 3050 c0 -43 3 -50 20 -50 17 0
20 7 20 50 0 43 -3 50 -20 50 -17 0 -20 -7 -20 -50z M6910 2915 l0 -75 40 0
c22 0 40 5 40 10 0 6 -13 10 -30 10 l-30 0 0 65 c0 37 -4 65 -10 65 -6 0 -10
-32 -10 -75z M6950 2935 c0 -48 2 -55 20 -55 18 0 20 7 20 55 0 48 -2 55 -20
55 -18 0 -20 -7 -20 -55z M7050 2635 l0 -75 45 0 c25 0 45 5 45 10 0 6 -16 10
-35 10 l-35 0 0 65 c0 37 -4 65 -10 65 -6 0 -10 -32 -10 -75z M7090 2655 c0
-52 1 -55 25 -55 24 0 25 3 25 55 0 52 -1 55 -25 55 -24 0 -25 -3 -25 -55z
M1510 1730 c0 -5 11 -10 25 -10 l25 0 0 -130 0 -130 -215 0 -215 0 0 -560 0
-560 -135 0 -135 0 0 65 c0 37 -4 65 -10 65 -6 0 -10 -32 -10 -75 l0 -75 155
0 155 0 0 560 0 560 215 0 215 0 0 150 0 150 -35 0 c-19 0 -35 -4 -35 -10z
M1510 1645 l0 -55 -220 0 -220 0 0 -560 0 -560 -95 0 -95 0 0 -55 0 -55 115 0
115 0 0 560 0 560 215 0 215 0 0 110 c0 91 -3 110 -15 110 -12 0 -15 -13 -15
-55z M400 1515 l0 -75 190 0 c120 0 190 4 190 10 0 6 -67 10 -180 10 l-180 0
0 65 c0 37 -4 65 -10 65 -6 0 -10 -32 -10 -75z M440 1535 l0 -55 170 0 170 0
0 55 0 55 -170 0 -170 0 0 -55z M2660 1730 c0 -5 14 -10 30 -10 l30 0 0 -130
0 -130 -365 0 -365 0 0 -70 c0 -40 4 -70 10 -70 6 0 10 27 10 60 l0 60 365 0
365 0 0 150 0 150 -40 0 c-22 0 -40 -4 -40 -10z M2660 1645 l0 -55 -360 0
-360 0 0 -135 c0 -113 2 -135 15 -135 12 0 15 16 15 80 l0 80 365 0 365 0 0
110 c0 103 -1 110 -20 110 -18 0 -20 -7 -20 -55z M2370 1170 c0 -5 14 -10 30
-10 l30 0 0 -130 0 -130 -220 0 -220 0 0 -70 c0 -40 4 -70 10 -70 6 0 10 27
10 60 l0 60 220 0 220 0 0 150 0 150 -40 0 c-22 0 -40 -4 -40 -10z M2370 1085
l0 -55 -215 0 -215 0 0 -135 c0 -113 2 -135 15 -135 12 0 15 16 15 80 l0 80
220 0 220 0 0 110 c0 103 -1 110 -20 110 -18 0 -20 -7 -20 -55z M2660 610 c0
-5 14 -10 30 -10 l30 0 0 -130 0 -130 -495 0 -495 0 0 65 c0 37 -4 65 -10 65
-6 0 -10 -32 -10 -75 l0 -75 515 0 515 0 0 150 0 150 -40 0 c-22 0 -40 -4 -40
-10z M2660 525 l0 -55 -455 0 -455 0 0 -55 0 -55 475 0 475 0 0 110 c0 103 -1
110 -20 110 -18 0 -20 -7 -20 -55z M3670 1730 c0 -5 14 -10 30 -10 l30 0 0
-60 c0 -33 4 -60 10 -60 6 0 10 30 10 70 l0 70 -40 0 c-22 0 -40 -4 -40 -10z
M3670 1650 c0 -43 3 -50 20 -50 17 0 20 7 20 50 0 43 -3 50 -20 50 -17 0 -20
-7 -20 -50z M3100 1455 c0 -113 2 -135 15 -135 12 0 15 16 15 80 l0 80 195 0
195 0 0 55 0 55 -210 0 -210 0 0 -135z M3150 1390 c0 -40 4 -70 10 -70 6 0 10
27 10 60 l0 60 175 0 c110 0 175 4 175 10 0 6 -68 10 -185 10 l-185 0 0 -70z
M3820 1450 c0 -5 11 -10 25 -10 l25 0 0 -130 0 -130 -70 0 -70 0 0 -70 c0 -40
4 -70 10 -70 6 0 10 27 10 60 l0 60 70 0 70 0 0 150 0 150 -35 0 c-19 0 -35
-4 -35 -10z M3190 1371 c0 -60 -9 -57 188 -53 l142 3 0 50 0 49 -165 0 -165 0
0 -49z M3820 1365 l0 -55 -75 0 -75 0 0 -135 c0 -128 1 -135 20 -135 18 0 20
7 20 80 l0 80 70 0 70 0 0 110 c0 91 -3 110 -15 110 -12 0 -15 -13 -15 -55z
M3100 750 l0 -280 -100 0 -100 0 0 -55 0 -55 115 0 115 0 0 280 0 280 195 0
195 0 0 55 0 55 -210 0 -210 0 0 -280z M3150 620 l0 -280 -135 0 -135 0 0 65
c0 37 -4 65 -10 65 -6 0 -10 -32 -10 -75 l0 -75 155 0 155 0 0 280 0 280 175
0 c110 0 175 4 175 10 0 6 -68 10 -185 10 l-185 0 0 -280z M3820 890 c0 -5 11
-10 25 -10 l25 0 0 -270 0 -270 -135 0 -135 0 0 65 c0 37 -4 65 -10 65 -6 0
-10 -32 -10 -75 l0 -75 155 0 155 0 0 290 0 290 -35 0 c-19 0 -35 -4 -35 -10z
M3820 665 l0 -195 -100 0 -100 0 0 -55 0 -55 115 0 115 0 0 250 c0 216 -2 250
-15 250 -13 0 -15 -28 -15 -195z M4400 1730 c0 -5 11 -10 25 -10 24 0 25 -3
25 -60 0 -33 4 -60 10 -60 6 0 10 30 10 70 l0 70 -35 0 c-19 0 -35 -4 -35 -10z
M5410 1730 c0 -5 11 -10 25 -10 l25 0 0 -690 0 -690 -135 0 -135 0 0 65 c0 37
-4 65 -10 65 -6 0 -10 -32 -10 -75 l0 -75 155 0 155 0 0 710 0 710 -35 0 c-19
0 -35 -4 -35 -10z M4400 1650 c0 -38 4 -50 15 -50 11 0 15 12 15 50 0 38 -4
50 -15 50 -11 0 -15 -12 -15 -50z M5410 1085 l0 -615 -100 0 -100 0 0 -55 0
-55 115 0 115 0 0 670 c0 589 -2 670 -15 670 -13 0 -15 -75 -15 -615z M4540
1450 c0 -5 14 -10 30 -10 l30 0 0 -60 c0 -33 4 -60 10 -60 6 0 10 30 10 70 l0
70 -40 0 c-22 0 -40 -4 -40 -10z M4540 1370 c0 -43 3 -50 20 -50 17 0 20 7 20
50 0 43 -3 50 -20 50 -17 0 -20 -7 -20 -50z M4250 890 l0 -420 -95 0 -95 0 0
-55 0 -55 115 0 115 0 0 420 0 420 50 0 50 0 0 55 0 55 -70 0 -70 0 0 -420z
M4980 1170 l0 -140 -75 0 -75 0 0 -140 0 -140 -95 0 -95 0 0 -55 0 -55 115 0
115 0 0 140 0 140 70 0 70 0 0 140 0 140 50 0 50 0 0 55 0 55 -65 0 -65 0 0
-140z M4310 760 l0 -420 -135 0 -135 0 0 65 c0 37 -4 65 -10 65 -6 0 -10 -32
-10 -75 l0 -75 155 0 155 0 0 420 0 420 30 0 c17 0 30 5 30 10 0 6 -18 10 -40
10 l-40 0 0 -420z M5030 1040 l0 -140 -70 0 -70 0 0 -140 0 -140 -135 0 -135
0 0 65 c0 37 -4 65 -10 65 -6 0 -10 -32 -10 -75 l0 -75 155 0 155 0 0 140 0
140 70 0 70 0 0 140 0 140 30 0 c17 0 30 5 30 10 0 6 -18 10 -40 10 l-40 0 0
-140z M4450 955 l0 -75 45 0 c25 0 45 5 45 10 0 6 -16 10 -35 10 l-35 0 0 65
c0 37 -4 65 -10 65 -6 0 -10 -32 -10 -75z M4490 975 c0 -52 1 -55 25 -55 24 0
25 3 25 55 0 52 -1 55 -25 55 -24 0 -25 -3 -25 -55z M5840 1730 c0 -5 14 -10
30 -10 l30 0 0 -690 0 -690 -135 0 -135 0 0 65 c0 37 -4 65 -10 65 -6 0 -10
-32 -10 -75 l0 -75 155 0 155 0 0 710 0 710 -40 0 c-22 0 -40 -4 -40 -10z
M5840 1085 l0 -615 -95 0 -95 0 0 -55 0 -55 115 0 115 0 0 670 c0 663 0 670
-20 670 -20 0 -20 -7 -20 -615z M6420 1730 c0 -5 11 -10 25 -10 24 0 25 -3 25
-60 0 -33 4 -60 10 -60 6 0 10 30 10 70 l0 70 -35 0 c-19 0 -35 -4 -35 -10z
M7290 1730 c0 -5 11 -10 25 -10 l25 0 0 -690 0 -690 -280 0 -280 0 0 65 c0 37
-4 65 -10 65 -6 0 -10 -32 -10 -75 l0 -75 300 0 300 0 0 710 0 710 -35 0 c-19
0 -35 -4 -35 -10z M6420 1650 c0 -38 4 -50 15 -50 11 0 15 12 15 50 0 38 -4
50 -15 50 -11 0 -15 -12 -15 -50z M7290 1085 l0 -615 -245 0 -245 0 0 -55 0
-55 260 0 260 0 0 670 c0 589 -2 670 -15 670 -13 0 -15 -75 -15 -615z M6560
1450 c0 -5 14 -10 30 -10 l30 0 0 -60 c0 -33 4 -60 10 -60 6 0 10 30 10 70 l0
70 -40 0 c-22 0 -40 -4 -40 -10z M6560 1370 c0 -43 3 -50 20 -50 17 0 20 7 20
50 0 43 -3 50 -20 50 -17 0 -20 -7 -20 -50z M6280 890 l0 -420 -100 0 -100 0
0 -55 0 -55 115 0 115 0 0 420 0 420 50 0 50 0 0 55 0 55 -65 0 -65 0 0 -420z
M6330 760 l0 -420 -135 0 -135 0 0 65 c0 37 -4 65 -10 65 -6 0 -10 -32 -10
-75 l0 -75 155 0 155 0 0 420 0 420 30 0 c17 0 30 5 30 10 0 6 -18 10 -40 10
l-40 0 0 -420z M6710 1170 c0 -5 11 -10 25 -10 24 0 25 -3 25 -60 0 -33 4 -60
10 -60 6 0 10 30 10 70 l0 70 -35 0 c-19 0 -35 -4 -35 -10z M6710 1090 c0 -38
4 -50 15 -50 11 0 15 12 15 50 0 38 -4 50 -15 50 -11 0 -15 -12 -15 -50z
M6470 955 l0 -75 45 0 c25 0 45 5 45 10 0 6 -16 10 -35 10 l-35 0 0 65 c0 37
-4 65 -10 65 -6 0 -10 -32 -10 -75z M6510 975 c0 -52 1 -55 25 -55 24 0 25 3
25 55 0 52 -1 55 -25 55 -24 0 -25 -3 -25 -55z M6850 890 c0 -5 14 -10 30 -10
l30 0 0 -60 c0 -33 4 -60 10 -60 6 0 10 30 10 70 l0 70 -40 0 c-22 0 -40 -4
-40 -10z M6850 810 c0 -43 3 -50 20 -50 17 0 20 7 20 50 0 43 -3 50 -20 50
-17 0 -20 -7 -20 -50z M6620 675 l0 -75 40 0 c22 0 40 5 40 10 0 6 -13 10 -30
10 l-30 0 0 65 c0 37 -4 65 -10 65 -6 0 -10 -32 -10 -75z M6660 695 c0 -48 2
-55 20 -55 18 0 20 7 20 55 0 48 -2 55 -20 55 -18 0 -20 -7 -20 -55z M8300
1730 c0 -5 11 -10 25 -10 24 0 25 -3 25 -60 0 -33 4 -60 10 -60 6 0 10 30 10
70 l0 70 -35 0 c-19 0 -35 -4 -35 -10z M8300 1650 c0 -38 4 -50 15 -50 11 0
15 12 15 50 0 38 -4 50 -15 50 -11 0 -15 -12 -15 -50z M7720 1455 c0 -128 1
-135 20 -135 18 0 20 7 20 80 l0 80 195 0 195 0 0 55 0 55 -215 0 -215 0 0
-135z M7780 1390 c0 -40 4 -70 10 -70 6 0 10 27 10 60 l0 60 175 0 c110 0 175
4 175 10 0 6 -68 10 -185 10 l-185 0 0 -70z M8440 1450 c0 -5 14 -10 30 -10
l30 0 0 -550 0 -550 -135 0 -135 0 0 65 c0 37 -4 65 -10 65 -6 0 -10 -32 -10
-75 l0 -75 155 0 155 0 0 570 0 570 -40 0 c-22 0 -40 -4 -40 -10z M7820 1370
l0 -50 165 0 165 0 0 50 0 50 -165 0 -165 0 0 -50z M8440 945 l0 -475 -95 0
-95 0 0 -55 0 -55 115 0 115 0 0 530 c0 523 0 530 -20 530 -20 0 -20 -7 -20
-475z M7720 750 l0 -280 -95 0 -95 0 0 -55 0 -55 115 0 115 0 0 280 0 280 195
0 195 0 0 55 0 55 -215 0 -215 0 0 -280z M7780 620 l0 -280 -135 0 -135 0 0
65 c0 37 -4 65 -10 65 -6 0 -10 -32 -10 -75 l0 -75 155 0 155 0 0 280 0 280
175 0 c110 0 175 4 175 10 0 6 -68 10 -185 10 l-185 0 0 -280z M8880 1730 c0
-5 11 -10 25 -10 l25 0 0 -480 c0 -313 3 -480 10 -480 7 0 10 170 10 490 l0
490 -35 0 c-19 0 -35 -4 -35 -10z M8880 1230 c0 -411 2 -470 15 -470 13 0 15
59 15 470 0 411 -2 470 -15 470 -13 0 -15 -59 -15 -470z M9600 610 c0 -5 11
-10 25 -10 l25 0 0 -130 0 -130 -495 0 -495 0 0 65 c0 37 -4 65 -10 65 -6 0
-10 -32 -10 -75 l0 -75 515 0 515 0 0 150 0 150 -35 0 c-19 0 -35 -4 -35 -10z
M9600 525 l0 -55 -460 0 -460 0 0 -55 0 -55 475 0 475 0 0 110 c0 91 -3 110
-15 110 -12 0 -15 -13 -15 -55z"/>
  </g>
</svg>