<svg xmlns="http://www.w3.org/2000/svg" viewBox="0 0 1182 468" role="img" aria-label="Privacy Terminal">
  <defs>
    <filter id="glow" x="-10%" y="-10%" width="120%" height="120%">
      <feGaussianBlur stdDeviation="1.5" result="blur"/>
      <feMerge>
        <feMergeNode in="blur"/>
        <feMergeNode in="SourceGraphic"/>
      </feMerge>
    </filter>
  </defs>
  <g transform="translate(0,468) scale(0.1,-0.1)" fill="#00ff41" stroke="none" filter="url(#glow)">
    <path d="M470 4215 l0 -165 505 0 505 0 0 65 c0 63 1 65 25 65 24 0 25 -2 25
-65 0 -37 4 -65 10 -65 6 0 10 31 10 74 l0 75 -32 3 c-17 2 -33 9 -36 16 -3
10 8 12 44 10 l49 -3 3 -87 c4 -122 22 -112 22 12 l0 100 -60 0 -60 0 0 65 0
65 -505 0 -505 0 0 -165z M1820 4215 l0 -165 505 0 505 0 0 65 c0 63 1 65 25
65 24 0 25 -2 25 -65 0 -37 4 -65 10 -65 6 0 10 31 10 74 l0 75 -32 3 c-17 2
-33 9 -36 16 -3 10 8 12 44 10 l49 -3 3 -87 c4 -122 22 -112 22 12 l0 100 -60
0 -60 0 0 65 0 65 -505 0 -505 0 0 -165z M3170 4215 l0 -165 165 0 165 0 0 65
c0 63 1 65 25 65 24 0 25 -2 25 -65 0 -37 4 -65 10 -65 6 0 10 31 10 74 l0 75
-32 3 c-17 2 -33 9 -36 16 -3 10 8 12 44 10 l49 -3 3 -87 c4 -122 22 -112 22
12 l0 100 -60 0 -60 0 0 65 0 65 -165 0 -165 0 0 -165z M3670 4215 l0 -165
170 0 170 0 0 65 c0 63 1 65 25 65 24 0 25 -2 25 -65 0 -37 4 -65 10 -65 6 0
10 31 10 74 l0 75 -32 3 c-17 2 -33 9 -36 16 -3 10 8 12 44 10 l49 -3 3 -87
c4 -122 22 -112 22 12 l0 100 -60 0 -60 0 0 65 0 65 -170 0 -170 0 0 -165z
M4680 4215 l0 -165 170 0 170 0 0 65 c0 63 1 65 25 65 24 0 25 -2 25 -65 0
-37 4 -65 10 -65 6 0 10 31 10 74 l0 75 -32 3 c-17 2 -33 9 -36 16 -3 10 8 12
44 10 l49 -3 3 -87 c4 -122 22 -112 22 12 l0 100 -60 0 -60 0 0 65 0 65 -170
0 -170 0 0 -165z M5360 4215 l0 -165 420 0 420 0 0 65 c0 63 1 65 25 65 24 0
25 -2 25 -65 0 -37 4 -65 10 -65 6 0 10 31 10 74 l0 75 -32 3 c-17 2 -33 9
-36 16 -3 10 8 12 44 10 l49 -3 3 -87 c4 -122 22 -112 22 12 l0 100 -60 0 -60
0 0 65 0 65 -420 0 -420 0 0 -165z M6710 4215 l0 -165 505 0 505 0 0 65 c0 63
1 65 25 65 24 0 25 -2 25 -65 0 -37 4 -65 10 -65 6 0 10 31 10 74 l0 75 -32 3
c-17 2 -33 9 -36 16 -3 10 8 12 44 10 l49 -3 3 -87 c4 -122 22 -112 22 12 l0
100 -60 0 -60 0 0 65 0 65 -505 0 -505 0 0 -165z M7890 4215 l0 -165 170 0
170 0 0 65 c0 58 2 65 20 65 18 0 20 -7 20 -65 0 -37 4 -65 10 -65 6 0 10 31
10 74 0 73 0 75 -27 78 -14 2 -28 9 -31 16 -3 10 7 12 39 10 l44 -3 3 -87 c4
-122 22 -112 22 12 l0 100 -55 0 -55 0 0 65 0 65 -170 0 -170 0 0 -165z M8900
4215 l0 -165 170 0 170 0 0 65 c0 63 1 65 25 65 24 0 25 -2 25 -65 0 -37 4
-65 10 -65 6 0 10 31 10 74 l0 75 -32 3 c-17 2 -33 9 -36 16 -3 10 8 12 44 10
l49 -3 3 -87 c4 -122 22 -112 22 12 l0 100 -60 0 -60 0 0 65 0 65 -170 0 -170
0 0 -165z M470 3875 l0 -165 170 0 170 0 0 165 0 165 -170 0 -170 0 0 -165z
M1310 3975 l0 -65 -225 0 -225 0 0 -100 c0 -60 4 -100 10 -100 6 0 10 37 10
90 l0 90 216 0 c168 0 215 -3 211 -12 -3 -10 -48 -13 -173 -15 -93 -1 -181 -2
-196 -2 -28 -1 -28 -1 -28 -76 0 -43 4 -75 10 -75 6 0 10 28 10 65 l0 65 190
0 190 0 0 -65 0 -65 170 0 170 0 0 65 c0 63 1 65 25 65 24 0 25 -2 25 -65 0
-37 4 -65 10 -65 6 0 10 31 10 74 l0 75 -32 3 c-17 2 -33 9 -36 16 -3 10 8 12
44 10 l49 -3 3 -87 c4 -122 22 -112 22 12 l0 100 -60 0 -60 0 0 65 0 65 -170
0 -170 0 0 -65z M1820 3875 l0 -165 170 0 170 0 0 165 0 165 -170 0 -170 0 0
-165z M2660 3975 l0 -65 -230 0 -230 0 0 -100 c0 -60 4 -100 10 -100 6 0 10
37 10 90 l0 90 221 0 c172 0 220 -3 216 -12 -3 -10 -48 -14 -173 -15 -93 -1
-184 -2 -201 -3 l-33 0 0 -75 c0 -43 4 -75 10 -75 6 0 10 28 10 65 l0 65 195
0 195 0 0 -65 0 -65 170 0 170 0 0 65 c0 63 1 65 25 65 24 0 25 -2 25 -65 0
-37 4 -65 10 -65 6 0 10 31 10 74 l0 75 -32 3 c-17 2 -33 9 -36 16 -3 10 8 12
44 10 l49 -3 3 -87 c4 -122 22 -112 22 12 l0 100 -60 0 -60 0 0 65 0 65 -170
0 -170 0 0 -65z M3170 3875 l0 -165 165 0 165 0 0 165 0 165 -165 0 -165 0 0
-165z M3550 3875 c0 -103 4 -165 10 -165 6 0 10 62 10 165 0 103 -4 165 -10
165 -6 0 -10 -62 -10 -165z M3600 3875 c0 -103 4 -165 10 -165 6 0 10 62 10
165 0 103 -4 165 -10 165 -6 0 -10 -62 -10 -165z M3670 3875 l0 -165 170 0
170 0 0 165 0 165 -170 0 -170 0 0 -165z M4060 3875 c0 -103 4 -165 10 -165 6
0 10 62 10 165 0 103 -4 165 -10 165 -6 0 -10 -62 -10 -165z M4110 3875 c0
-103 4 -165 10 -165 6 0 10 62 10 165 0 103 -4 165 -10 165 -6 0 -10 -62 -10
-165z M4680 3875 l0 -165 170 0 170 0 0 165 0 165 -170 0 -170 0 0 -165z
M5070 3875 c0 -103 4 -165 10 -165 6 0 10 62 10 165 0 103 -4 165 -10 165 -6
0 -10 -62 -10 -165z M5120 3875 c0 -103 4 -165 10 -165 6 0 10 62 10 165 0
103 -4 165 -10 165 -6 0 -10 -62 -10 -165z M5190 3875 l0 -165 170 0 170 0 0
165 0 165 -170 0 -170 0 0 -165z M6030 3975 l0 -65 -225 0 -225 0 0 -100 c0
-60 4 -100 10 -100 6 0 10 37 10 90 l0 90 216 0 c168 0 215 -3 211 -12 -3 -10
-47 -14 -168 -15 -90 -1 -179 -2 -196 -3 l-33 0 0 -75 c0 -43 4 -75 10 -75 6
0 10 28 10 65 l0 65 190 0 190 0 0 -65 0 -65 170 0 170 0 0 65 c0 63 1 65 25
65 24 0 25 -2 25 -65 0 -37 4 -65 10 -65 6 0 10 31 10 74 l0 75 -32 3 c-17 2
-33 9 -36 16 -3 10 8 12 44 10 l49 -3 3 -87 c4 -122 22 -112 22 12 l0 100 -60
0 -60 0 0 65 0 65 -170 0 -170 0 0 -65z M6540 3875 l0 -165 170 0 170 0 0 165
0 165 -170 0 -170 0 0 -165z M7770 3975 l0 -65 -420 0 -420 0 0 -100 c0 -60 4
-100 10 -100 6 0 10 37 10 90 l0 90 420 0 420 0 0 75 c0 43 -4 75 -10 75 -6 0
-10 -28 -10 -65z M7818 3953 l-3 -88 -390 -2 c-214 -1 -402 -2 -417 -3 l-28 0
0 -75 c0 -43 4 -75 10 -75 6 0 10 28 10 65 l0 65 420 0 420 0 0 100 c0 124
-18 134 -22 13z M7940 3940 l0 -100 60 0 60 0 0 -65 0 -65 165 0 165 0 0 65
c0 63 1 65 25 65 24 0 25 -2 25 -65 0 -37 4 -65 10 -65 6 0 10 31 10 74 l0 75
-32 3 c-17 2 -33 9 -36 16 -3 10 8 12 44 10 l49 -3 3 -87 c4 -122 22 -112 22
12 l0 100 -60 0 -60 0 0 65 0 65 -165 0 -165 0 0 -65 c0 -63 -1 -65 -25 -65
-24 0 -25 2 -25 65 0 37 -4 65 -10 65 -6 0 -10 -32 -10 -75 l0 -75 36 0 c24 0
34 -4 32 -12 -3 -8 -22 -13 -49 -13 l-44 0 -3 88 c-4 121 -22 111 -22 -13z
M8730 3875 l0 -165 170 0 170 0 0 165 0 165 -170 0 -170 0 0 -165z M9290 3975
l0 -65 -85 0 -85 0 0 -100 c0 -60 4 -100 10 -100 6 0 10 37 10 90 l0 90 85 0
85 0 0 75 c0 43 -4 75 -10 75 -6 0 -10 -28 -10 -65z M9338 3953 l-3 -88 -50
-2 c-27 -1 -65 -2 -82 -2 l-33 -1 0 -75 c0 -43 4 -75 10 -75 6 0 10 28 10 65
l0 65 85 0 85 0 0 100 c0 124 -18 134 -22 13z M470 3535 l0 -165 505 0 505 0
0 165 0 165 -505 0 -505 0 0 -165z M1700 3635 l0 -65 -85 0 -85 0 0 -100 c0
-60 4 -100 10 -100 6 0 10 37 10 90 l0 90 85 0 85 0 0 75 c0 43 -4 75 -10 75
-6 0 -10 -28 -10 -65z M1748 3613 l-3 -88 -50 -2 c-27 -1 -65 -2 -82 -2 l-33
-1 0 -75 c0 -43 4 -75 10 -75 6 0 10 28 10 65 l0 65 85 0 85 0 0 100 c0 124
-18 134 -22 13z M1820 3535 l0 -165 505 0 505 0 0 165 0 165 -505 0 -505 0 0
-165z M3050 3635 l0 -65 -85 0 -85 0 0 -100 c0 -60 4 -100 10 -100 6 0 10 37
10 90 l0 90 85 0 85 0 0 75 c0 43 -4 75 -10 75 -6 0 -10 -28 -10 -65z M3098
3613 l-3 -88 -50 -2 c-27 -1 -65 -2 -82 -2 l-33 -1 0 -75 c0 -43 4 -75 10 -75
6 0 10 28 10 65 l0 65 85 0 85 0 0 100 c0 124 -18 134 -22 13z M3170 3535 l0
-165 165 0 165 0 0 165 0 165 -165 0 -165 0 0 -165z M3550 3535 c0 -103 4
-165 10 -165 6 0 10 62 10 165 0 103 -4 165 -10 165 -6 0 -10 -62 -10 -165z
M3600 3535 c0 -103 4 -165 10 -165 6 0 10 62 10 165 0 103 -4 165 -10 165 -6
0 -10 -62 -10 -165z M3670 3535 l0 -165 170 0 170 0 0 165 0 165 -170 0 -170
0 0 -165z M4060 3535 c0 -103 4 -165 10 -165 6 0 10 62 10 165 0 103 -4 165
-10 165 -6 0 -10 -62 -10 -165z M4110 3535 c0 -103 4 -165 10 -165 6 0 10 62
10 165 0 103 -4 165 -10 165 -6 0 -10 -62 -10 -165z M4680 3535 l0 -165 170 0
170 0 0 165 0 165 -170 0 -170 0 0 -165z M5070 3535 c0 -103 4 -165 10 -165 6
0 10 62 10 165 0 103 -4 165 -10 165 -6 0 -10 -62 -10 -165z M5120 3535 c0
-103 4 -165 10 -165 6 0 10 62 10 165 0 103 -4 165 -10 165 -6 0 -10 -62 -10
-165z M5190 3535 l0 -165 590 0 590 0 0 165 0 165 -590 0 -590 0 0 -165z
M6420 3535 c0 -103 4 -165 10 -165 6 0 10 62 10 165 0 103 -4 165 -10 165 -6
0 -10 -62 -10 -165z M6470 3535 c0 -103 4 -165 10 -165 6 0 10 62 10 165 0
103 -4 165 -10 165 -6 0 -10 -62 -10 -165z M6540 3535 l0 -165 170 0 170 0 0
165 0 165 -170 0 -170 0 0 -165z M6930 3535 c0 -103 4 -165 10 -165 6 0 10 62
10 165 0 103 -4 165 -10 165 -6 0 -10 -62 -10 -165z M6980 3535 c0 -103 4
-165 10 -165 6 0 10 62 10 165 0 103 -4 165 -10 165 -6 0 -10 -62 -10 -165z
M8110 3600 l0 -100 55 0 55 0 0 -65 0 -65 340 0 340 0 0 165 0 165 -340 0
-340 0 0 -65 c0 -58 -2 -65 -20 -65 -18 0 -20 7 -20 65 0 37 -4 65 -10 65 -6
0 -10 -32 -10 -75 l0 -75 31 0 c20 0 29 -4 27 -12 -3 -8 -21 -13 -44 -13 l-39
0 -3 88 c-4 121 -22 111 -22 -13z M9120 3635 l0 -65 -85 0 -85 0 0 -100 c0
-60 4 -100 10 -100 6 0 10 37 10 90 l0 90 85 0 85 0 0 75 c0 43 -4 75 -10 75
-6 0 -10 -28 -10 -65z M9168 3613 l-3 -88 -50 -2 c-27 -1 -65 -2 -82 -2 l-33
-1 0 -75 c0 -43 4 -75 10 -75 6 0 10 28 10 65 l0 65 85 0 85 0 0 100 c0 124
-18 134 -22 13z M470 3195 l0 -165 170 0 170 0 0 165 0 165 -170 0 -170 0 0
-165z M1530 3295 l0 -65 -335 0 -335 0 0 -100 c0 -60 4 -100 10 -100 6 0 10
37 10 90 l0 90 335 0 335 0 0 75 c0 43 -4 75 -10 75 -6 0 -10 -28 -10 -65z
M1578 3273 l-3 -88 -305 -2 c-168 -1 -317 -2 -332 -3 l-28 0 0 -75 c0 -43 4
-75 10 -75 6 0 10 28 10 65 l0 65 335 0 335 0 0 100 c0 124 -18 134 -22 13z
M1820 3195 l0 -165 170 0 170 0 0 165 0 165 -170 0 -170 0 0 -165z M2660 3295
l0 -65 -230 0 -230 0 0 -100 c0 -60 4 -100 10 -100 6 0 10 37 10 90 l0 90 221
0 c172 0 220 -3 216 -12 -3 -10 -48 -14 -173 -15 -93 -1 -184 -2 -201 -3 l-33
0 0 -75 c0 -43 4 -75 10 -75 6 0 10 28 10 65 l0 65 195 0 195 0 0 -65 0 -65
170 0 170 0 0 65 c0 63 1 65 25 65 24 0 25 -2 25 -65 0 -37 4 -65 10 -65 6 0
10 31 10 74 l0 75 -32 3 c-17 2 -33 9 -36 16 -3 10 8 12 44 10 l49 -3 3 -87
c4 -122 22 -112 22 12 l0 100 -60 0 -60 0 0 65 0 65 -170 0 -170 0 0 -65z
M3170 3195 l0 -165 165 0 165 0 0 165 0 165 -165 0 -165 0 0 -165z M3550 3195
c0 -103 4 -165 10 -165 6 0 10 62 10 165 0 103 -4 165 -10 165 -6 0 -10 -62
-10 -165z M3600 3195 c0 -103 4 -165 10 -165 6 0 10 62 10 165 0 103 -4 165
-10 165 -6 0 -10 -62 -10 -165z M3720 3260 l0 -100 60 0 60 0 0 -65 0 -65 170
0 170 0 0 65 c0 63 1 65 25 65 24 0 25 -2 25 -65 0 -37 4 -65 10 -65 6 0 10
31 10 74 l0 75 -32 3 c-17 2 -33 9 -36 16 -3 10 8 12 44 10 l49 -3 3 -87 c4
-122 22 -112 22 12 l0 100 -60 0 -60 0 0 65 0 65 -170 0 -170 0 0 -65 c0 -63
-1 -65 -25 -65 -24 0 -25 2 -25 65 0 37 -4 65 -10 65 -6 0 -10 -32 -10 -75 l0
-75 36 0 c24 0 34 -4 32 -12 -3 -8 -22 -13 -49 -13 l-44 0 -3 88 c-4 121 -22
111 -22 -13z M4510 3195 l0 -165 170 0 170 0 0 165 0 165 -170 0 -170 0 0
-165z M5070 3295 l0 -65 -85 0 -85 0 0 -100 c0 -60 4 -100 10 -100 6 0 10 37
10 90 l0 90 85 0 85 0 0 75 c0 43 -4 75 -10 75 -6 0 -10 -28 -10 -65z M5118
3273 l-3 -88 -50 -2 c-27 -1 -65 -2 -82 -2 l-33 -1 0 -75 c0 -43 4 -75 10 -75
6 0 10 28 10 65 l0 65 85 0 85 0 0 100 c0 124 -18 134 -22 13z M5190 3195 l0
-165 170 0 170 0 0 165 0 165 -170 0 -170 0 0 -165z M6030 3295 l0 -65 -225 0
-225 0 0 -100 c0 -60 4 -100 10 -100 6 0 10 37 10 90 l0 90 216 0 c168 0 215
-3 211 -12 -3 -10 -47 -14 -168 -15 -90 -1 -179 -2 -196 -3 l-33 0 0 -75 c0
-43 4 -75 10 -75 6 0 10 28 10 65 l0 65 190 0 190 0 0 -65 0 -65 170 0 170 0
0 165 0 165 -170 0 -170 0 0 -65z M6420 3195 c0 -103 4 -165 10 -165 6 0 10
62 10 165 0 103 -4 165 -10 165 -6 0 -10 -62 -10 -165z M6470 3195 c0 -103 4
-165 10 -165 6 0 10 62 10 165 0 103 -4 165 -10 165 -6 0 -10 -62 -10 -165z
M6540 3195 l0 -165 170 0 170 0 0 165 0 165 -170 0 -170 0 0 -165z M6930 3195
c0 -103 4 -165 10 -165 6 0 10 62 10 165 0 103 -4 165 -10 165 -6 0 -10 -62
-10 -165z M6980 3195 c0 -103 4 -165 10 -165 6 0 10 62 10 165 0 103 -4 165
-10 165 -6 0 -10 -62 -10 -165z M8270 3260 l0 -100 60 0 60 0 0 -65 0 -65 170
0 170 0 0 165 0 165 -170 0 -170 0 0 -65 c0 -63 -1 -65 -25 -65 -24 0 -25 2
-25 65 0 37 -4 65 -10 65 -6 0 -10 -32 -10 -75 l0 -75 36 0 c24 0 34 -4 32
-12 -3 -8 -22 -13 -49 -13 l-44 0 -3 88 c-4 121 -22 111 -22 -13z M8950 3295
l0 -65 -85 0 -85 0 0 -100 c0 -60 4 -100 10 -100 6 0 10 37 10 90 l0 90 85 0
85 0 0 75 c0 43 -4 75 -10 75 -6 0 -10 -28 -10 -65z M8998 3273 l-3 -88 -50
-2 c-27 -1 -65 -2 -82 -2 l-33 -1 0 -75 c0 -43 4 -75 10 -75 6 0 10 28 10 65
l0 65 85 0 85 0 0 100 c0 124 -18 134 -22 13z M470 2855 l0 -165 170 0 170 0
0 165 0 165 -170 0 -170 0 0 -165z M860 2855 c0 -103 4 -165 10 -165 6 0 10
62 10 165 0 103 -4 165 -10 165 -6 0 -10 -62 -10 -165z M910 2855 c0 -103 4
-165 10 -165 6 0 10 62 10 165 0 103 -4 165 -10 165 -6 0 -10 -62 -10 -165z
M1820 2855 l0 -165 170 0 170 0 0 165 0 165 -170 0 -170 0 0 -165z M2200 2855
c0 -103 4 -165 10 -165 6 0 10 62 10 165 0 103 -4 165 -10 165 -6 0 -10 -62
-10 -165z M2250 2855 c0 -103 4 -165 10 -165 6 0 10 62 10 165 0 103 -4 165
-10 165 -6 0 -10 -62 -10 -165z M2660 2855 l0 -165 170 0 170 0 0 165 0 165
-170 0 -170 0 0 -165z M3050 2855 c0 -103 4 -165 10 -165 6 0 10 62 10 165 0
103 -4 165 -10 165 -6 0 -10 -62 -10 -165z M3100 2855 c0 -103 4 -165 10 -165
6 0 10 62 10 165 0 103 -4 165 -10 165 -6 0 -10 -62 -10 -165z M3170 2855 l0
-165 165 0 165 0 0 165 0 165 -165 0 -165 0 0 -165z M3550 2855 c0 -103 4
-165 10 -165 6 0 10 62 10 165 0 103 -4 165 -10 165 -6 0 -10 -62 -10 -165z
M3600 2855 c0 -103 4 -165 10 -165 6 0 10 62 10 165 0 103 -4 165 -10 165 -6
0 -10 -62 -10 -165z M3890 2920 l0 -100 60 0 60 0 0 -65 0 -65 335 0 335 0 0
165 0 165 -335 0 -335 0 0 -65 c0 -63 -1 -65 -25 -65 -24 0 -25 2 -25 65 0 37
-4 65 -10 65 -6 0 -10 -32 -10 -75 l0 -75 36 0 c24 0 34 -4 32 -12 -3 -8 -22
-13 -49 -13 l-44 0 -3 88 c-4 121 -22 111 -22 -13z M4900 2955 l0 -65 -85 0
-85 0 0 -100 c0 -60 4 -100 10 -100 6 0 10 37 10 90 l0 90 85 0 85 0 0 75 c0
43 -4 75 -10 75 -6 0 -10 -28 -10 -65z M4948 2933 l-3 -88 -50 -2 c-27 -1 -65
-2 -82 -2 l-33 -1 0 -75 c0 -43 4 -75 10 -75 6 0 10 28 10 65 l0 65 85 0 85 0
0 100 c0 124 -18 134 -22 13z M5190 2855 l0 -165 170 0 170 0 0 165 0 165
-170 0 -170 0 0 -165z M5580 2855 c0 -103 4 -165 10 -165 6 0 10 62 10 165 0
103 -4 165 -10 165 -6 0 -10 -62 -10 -165z M5630 2855 c0 -103 4 -165 10 -165
6 0 10 62 10 165 0 103 -4 165 -10 165 -6 0 -10 -62 -10 -165z M6030 2855 l0
-165 170 0 170 0 0 165 0 165 -170 0 -170 0 0 -165z M6420 2855 c0 -103 4
-165 10 -165 6 0 10 62 10 165 0 103 -4 165 -10 165 -6 0 -10 -62 -10 -165z
M6470 2855 c0 -103 4 -165 10 -165 6 0 10 62 10 165 0 103 -4 165 -10 165 -6
0 -10 -62 -10 -165z M6590 2920 l0 -100 60 0 60 0 0 -65 0 -65 505 0 505 0 0
65 c0 63 1 65 25 65 24 0 25 -2 25 -65 0 -37 4 -65 10 -65 6 0 10 31 10 74 l0
75 -32 3 c-17 2 -33 9 -36 16 -3 10 8 12 44 10 l49 -3 3 -87 c4 -122 22 -112
22 12 l0 100 -60 0 -60 0 0 65 0 65 -505 0 -505 0 0 -65 c0 -63 -1 -65 -25
-65 -24 0 -25 2 -25 65 0 37 -4 65 -10 65 -6 0 -10 -32 -10 -75 l0 -75 36 0
c24 0 34 -4 32 -12 -3 -8 -22 -13 -49 -13 l-44 0 -3 88 c-4 121 -22 111 -22
-13z M8390 2855 l0 -165 170 0 170 0 0 165 0 165 -170 0 -170 0 0 -165z M8780
2855 c0 -103 4 -165 10 -165 6 0 10 62 10 165 0 103 -4 165 -10 165 -6 0 -10
-62 -10 -165z M8830 2855 c0 -103 4 -165 10 -165 6 0 10 62 10 165 0 103 -4
165 -10 165 -6 0 -10 -62 -10 -165z M520 2580 l0 -100 205 0 205 0 0 100 c0
124 -18 134 -22 13 l-3 -88 -180 0 -180 0 -3 88 c-4 121 -22 111 -22 -13z
M570 2605 l0 -75 155 0 155 0 0 75 c0 43 -4 75 -10 75 -6 0 -10 -28 -10 -65
l0 -65 -135 0 -135 0 0 65 c0 37 -4 65 -10 65 -6 0 -10 -32 -10 -75z M1870
2580 l0 -100 200 0 200 0 0 100 c0 124 -18 134 -22 13 l-3 -88 -175 0 -175 0
-3 88 c-4 121 -22 111 -22 -13z M1920 2605 l0 -75 150 0 150 0 0 75 c0 43 -4
75 -10 75 -6 0 -10 -28 -10 -65 l0 -65 -130 0 -130 0 0 65 c0 37 -4 65 -10 65
-6 0 -10 -32 -10 -75z M2710 2580 l0 -100 205 0 205 0 0 100 c0 124 -18 134
-22 13 l-3 -88 -180 0 -180 0 -3 88 c-4 121 -22 111 -22 -13z M2760 2605 l0
-75 155 0 155 0 0 75 c0 43 -4 75 -10 75 -6 0 -10 -28 -10 -65 l0 -65 -135 0
-135 0 0 65 c0 37 -4 65 -10 65 -6 0 -10 -32 -10 -75z M3220 2580 l0 -100 200
0 200 0 0 100 c0 124 -18 134 -22 13 l-3 -88 -175 0 -175 0 -3 88 c-4 121 -22
111 -22 -13z M3270 2605 l0 -75 150 0 150 0 0 75 c0 43 -4 75 -10 75 -6 0 -10
-28 -10 -65 l0 -65 -130 0 -130 0 0 65 c0 37 -4 65 -10 65 -6 0 -10 -32 -10
-75z M4060 2580 l0 -100 370 0 370 0 0 100 c0 124 -18 134 -22 13 l-3 -88
-345 0 -345 0 -3 88 c-4 121 -22 111 -22 -13z M4110 2605 l0 -75 320 0 320 0
0 75 c0 43 -4 75 -10 75 -6 0 -10 -28 -10 -65 l0 -65 -300 0 -300 0 0 65 c0
37 -4 65 -10 65 -6 0 -10 -32 -10 -75z M5240 2580 l0 -100 205 0 205 0 0 100
c0 124 -18 134 -22 13 l-3 -88 -180 0 -180 0 -3 88 c-4 121 -22 111 -22 -13z
M5290 2605 l0 -75 155 0 155 0 0 75 c0 43 -4 75 -10 75 -6 0 -10 -28 -10 -65
l0 -65 -135 0 -135 0 0 65 c0 37 -4 65 -10 65 -6 0 -10 -32 -10 -75z M6080
2580 l0 -100 205 0 205 0 0 100 c0 124 -18 134 -22 13 l-3 -88 -180 0 -180 0
-3 88 c-4 121 -22 111 -22 -13z M6130 2605 l0 -75 155 0 155 0 0 75 c0 43 -4
75 -10 75 -6 0 -10 -28 -10 -65 l0 -65 -135 0 -135 0 0 65 c0 37 -4 65 -10 65
-6 0 -10 -32 -10 -75z M6760 2580 l0 -100 540 0 540 0 0 100 c0 124 -18 134
-22 13 l-3 -88 -515 0 -515 0 -3 88 c-4 121 -22 111 -22 -13z M6810 2605 l0
-75 490 0 490 0 0 75 c0 43 -4 75 -10 75 -6 0 -10 -28 -10 -65 l0 -65 -470 0
-470 0 0 65 c0 37 -4 65 -10 65 -6 0 -10 -32 -10 -75z M8440 2580 l0 -100 205
0 205 0 0 100 c0 124 -18 134 -22 13 l-3 -88 -180 0 -180 0 -3 88 c-4 121 -22
111 -22 -13z M8490 2605 l0 -75 155 0 155 0 0 75 c0 43 -4 75 -10 75 -6 0 -10
-28 -10 -65 l0 -65 -135 0 -135 0 0 65 c0 37 -4 65 -10 65 -6 0 -10 -32 -10
-75z M470 2175 l0 -165 675 0 675 0 0 65 c0 63 1 65 25 65 24 0 25 -2 25 -65
0 -37 4 -65 10 -65 6 0 10 31 10 74 l0 75 -32 3 c-17 2 -33 9 -36 16 -3 10 8
12 44 10 l49 -3 3 -87 c4 -122 22 -112 22 12 l0 100 -60 0 -60 0 0 65 0 65
-675 0 -675 0 0 -165z M1990 2175 l0 -165 590 0 590 0 0 65 c0 63 1 65 25 65
24 0 25 -2 25 -65 0 -37 4 -65 10 -65 6 0 10 31 10 74 l0 75 -32 3 c-17 2 -33
9 -36 16 -3 10 8 12 44 10 l49 -3 3 -87 c4 -122 22 -112 22 12 l0 100 -60 0
-60 0 0 65 0 65 -590 0 -590 0 0 -165z M3330 2175 l0 -165 510 0 510 0 0 65
c0 63 1 65 25 65 24 0 25 -2 25 -65 0 -37 4 -65 10 -65 6 0 10 31 10 74 l0 75
-32 3 c-17 2 -33 9 -36 16 -3 10 8 12 44 10 l49 -3 3 -87 c4 -122 22 -112 22
12 l0 100 -60 0 -60 0 0 65 0 65 -510 0 -510 0 0 -165z M4680 2175 l0 -165
255 0 255 0 0 65 c0 63 1 65 25 65 24 0 25 -2 25 -65 0 -37 4 -65 10 -65 6 0
10 31 10 74 l0 75 -32 3 c-17 2 -33 9 -36 16 -3 10 8 12 44 10 l49 -3 3 -87
c4 -122 22 -112 22 12 l0 100 -60 0 -60 0 0 65 0 65 -255 0 -255 0 0 -165z
M5860 2175 l0 -165 255 0 255 0 0 65 c0 63 1 65 25 65 24 0 25 -2 25 -65 0
-37 4 -65 10 -65 6 0 10 31 10 74 l0 75 -32 3 c-17 2 -33 9 -36 16 -3 10 8 12
44 10 l49 -3 3 -87 c4 -122 22 -112 22 12 l0 100 -60 0 -60 0 0 65 0 65 -255
0 -255 0 0 -165z M6540 2175 l0 -165 170 0 170 0 0 65 c0 63 1 65 25 65 24 0
25 -2 25 -65 0 -37 4 -65 10 -65 6 0 10 31 10 74 l0 75 -32 3 c-17 2 -33 9
-36 16 -3 10 8 12 44 10 l49 -3 3 -87 c4 -122 22 -112 22 12 l0 100 -60 0 -60
0 0 65 0 65 -170 0 -170 0 0 -165z M7040 2175 l0 -165 255 0 255 0 0 65 c0 63
1 65 25 65 24 0 25 -2 25 -65 0 -37 4 -65 10 -65 6 0 10 31 10 74 l0 75 -32 3
c-17 2 -33 9 -36 16 -3 10 8 12 44 10 l49 -3 3 -87 c4 -122 22 -112 22 12 l0
100 -60 0 -60 0 0 65 0 65 -255 0 -255 0 0 -165z M8220 2175 l0 -165 170 0
170 0 0 65 c0 63 1 65 25 65 24 0 25 -2 25 -65 0 -37 4 -65 10 -65 6 0 10 31
10 74 l0 75 -32 3 c-17 2 -33 9 -36 16 -3 10 8 12 44 10 l49 -3 3 -87 c4 -122
22 -112 22 12 l0 100 -60 0 -60 0 0 65 0 65 -170 0 -170 0 0 -165z M8900 2175
l0 -165 420 0 420 0 0 65 c0 63 1 65 25 65 24 0 25 -2 25 -65 0 -37 4 -65 10
-65 6 0 10 31 10 74 l0 75 -32 3 c-17 2 -33 9 -36 16 -3 10 8 12 44 10 l49 -3
3 -87 c4 -122 22 -112 22 12 l0 100 -60 0 -60 0 0 65 0 65 -420 0 -420 0 0
-165z M10080 2175 l0 -165 170 0 170 0 0 65 c0 63 1 65 25 65 24 0 25 -2 25
-65 0 -37 4 -65 10 -65 6 0 10 31 10 74 l0 75 -32 3 c-17 2 -33 9 -36 16 -3
10 8 12 44 10 l49 -3 3 -87 c4 -122 22 -112 22 12 l0 100 -60 0 -60 0 0 65 0
65 -170 0 -170 0 0 -165z M520 1900 l0 -100 225 0 225 0 0 -65 0 -65 170 0
170 0 0 165 0 165 -170 0 -170 0 0 -65 0 -65 -190 0 -190 0 0 65 c0 37 -4 65
-10 65 -6 0 -10 -32 -10 -75 l0 -75 201 0 c156 0 200 -3 196 -12 -3 -10 -54
-13 -213 -13 l-209 0 -3 88 c-4 121 -22 111 -22 -13z M1870 1935 l0 -65 -255
0 -255 0 0 -100 c0 -60 4 -100 10 -100 6 0 10 37 10 90 l0 90 255 0 255 0 0
75 c0 43 -4 75 -10 75 -6 0 -10 -28 -10 -65z M1918 1913 l-3 -88 -220 -2
c-121 -1 -235 -2 -252 -3 l-33 0 0 -75 c0 -43 4 -75 10 -75 6 0 10 28 10 65
l0 65 255 0 255 0 0 100 c0 124 -18 134 -22 13z M1990 1835 l0 -165 165 0 165
0 0 165 0 165 -165 0 -165 0 0 -165z M3220 1935 l0 -65 -425 0 -425 0 0 -100
c0 -60 4 -100 10 -100 6 0 10 37 10 90 l0 90 425 0 425 0 0 75 c0 43 -4 75
-10 75 -6 0 -10 -28 -10 -65z M3268 1913 l-3 -88 -390 -2 c-214 -1 -405 -3
-422 -3 l-33 0 0 -75 c0 -43 4 -75 10 -75 6 0 10 28 10 65 l0 65 425 0 425 0
0 100 c0 124 -18 134 -22 13z M3330 1835 l0 -165 170 0 170 0 0 165 0 165
-170 0 -170 0 0 -165z M4180 1935 l0 -65 -230 0 -230 0 0 -100 c0 -60 4 -100
10 -100 6 0 10 37 10 90 l0 90 221 0 c172 0 220 -3 216 -12 -3 -10 -48 -14
-173 -15 -93 -1 -184 -2 -201 -3 l-33 0 0 -75 c0 -43 4 -75 10 -75 6 0 10 28
10 65 l0 65 195 0 195 0 0 -65 0 -65 170 0 170 0 0 65 c0 58 2 65 20 65 18 0
20 -7 20 -65 0 -37 4 -65 10 -65 6 0 10 31 10 74 0 73 0 75 -27 78 -14 2 -28
9 -31 16 -3 10 7 12 39 10 l44 -3 3 -87 c4 -122 22 -112 22 12 l0 100 -55 0
-55 0 0 65 0 65 -170 0 -170 0 0 -65z M4680 1835 l0 -165 340 0 340 0 0 65 c0
63 1 65 25 65 24 0 25 -2 25 -65 0 -37 4 -65 10 -65 6 0 10 31 10 74 l0 75
-32 3 c-17 2 -33 9 -36 16 -3 10 8 12 44 10 l49 -3 3 -87 c4 -122 22 -112 22
12 l0 100 -60 0 -60 0 0 65 0 65 -340 0 -340 0 0 -165z M5700 1835 l0 -165
335 0 335 0 0 165 0 165 -335 0 -335 0 0 -165z M6420 1835 c0 -103 4 -165 10
-165 6 0 10 62 10 165 0 103 -4 165 -10 165 -6 0 -10 -62 -10 -165z M6470
1835 c0 -103 4 -165 10 -165 6 0 10 62 10 165 0 103 -4 165 -10 165 -6 0 -10
-62 -10 -165z M6540 1835 l0 -165 170 0 170 0 0 165 0 165 -170 0 -170 0 0
-165z M6930 1835 c0 -103 4 -165 10 -165 6 0 10 62 10 165 0 103 -4 165 -10
165 -6 0 -10 -62 -10 -165z M6980 1835 c0 -103 4 -165 10 -165 6 0 10 62 10
165 0 103 -4 165 -10 165 -6 0 -10 -62 -10 -165z M7040 1835 l0 -165 340 0
340 0 0 65 c0 63 1 65 25 65 24 0 25 -2 25 -65 0 -37 4 -65 10 -65 6 0 10 31
10 74 l0 75 -32 3 c-17 2 -33 9 -36 16 -3 10 8 12 44 10 l49 -3 3 -87 c4 -122
22 -112 22 12 l0 100 -60 0 -60 0 0 65 0 65 -340 0 -340 0 0 -165z M8220 1835
l0 -165 170 0 170 0 0 165 0 165 -170 0 -170 0 0 -165z M8610 1835 c0 -103 4
-165 10 -165 6 0 10 62 10 165 0 103 -4 165 -10 165 -6 0 -10 -62 -10 -165z
M8660 1835 c0 -103 4 -165 10 -165 6 0 10 62 10 165 0 103 -4 165 -10 165 -6
0 -10 -62 -10 -165z M8730 1835 l0 -165 170 0 170 0 0 165 0 165 -170 0 -170
0 0 -165z M9570 1935 l0 -65 -225 0 -225 0 0 -100 c0 -60 4 -100 10 -100 6 0
10 37 10 90 l0 90 216 0 c168 0 215 -3 211 -12 -3 -10 -47 -14 -168 -15 -90
-1 -179 -2 -196 -3 l-33 0 0 -75 c0 -43 4 -75 10 -75 6 0 10 28 10 65 l0 65
190 0 190 0 0 -65 0 -65 170 0 170 0 0 65 c0 63 1 65 25 65 24 0 25 -2 25 -65
0 -37 4 -65 10 -65 6 0 10 31 10 74 l0 75 -32 3 c-17 2 -33 9 -36 16 -3 10 8
12 44 10 l49 -3 3 -87 c4 -122 22 -112 22 12 l0 100 -60 0 -60 0 0 65 0 65
-170 0 -170 0 0 -65z M10080 1835 l0 -165 170 0 170 0 0 165 0 165 -170 0
-170 0 0 -165z M10470 1835 c0 -103 4 -165 10 -165 6 0 10 62 10 165 0 103 -4
165 -10 165 -6 0 -10 -62 -10 -165z M10520 1835 c0 -103 4 -165 10 -165 6 0
10 62 10 165 0 103 -4 165 -10 165 -6 0 -10 -62 -10 -165z M970 1495 l0 -165
170 0 170 0 0 165 0 165 -170 0 -170 0 0 -165z M1360 1495 c0 -103 4 -165 10
-165 6 0 10 62 10 165 0 103 -4 165 -10 165 -6 0 -10 -62 -10 -165z M1410
1495 c0 -103 4 -165 10 -165 6 0 10 62 10 165 0 103 -4 165 -10 165 -6 0 -10
-62 -10 -165z M1990 1495 l0 -165 420 0 420 0 0 65 c0 63 1 65 25 65 24 0 25
-2 25 -65 0 -37 4 -65 10 -65 6 0 10 31 10 74 l0 75 -32 3 c-17 2 -33 9 -36
16 -3 10 8 12 44 10 l49 -3 3 -87 c4 -122 22 -112 22 12 l0 100 -60 0 -60 0 0
65 0 65 -420 0 -420 0 0 -165z M3330 1495 l0 -165 510 0 510 0 0 165 0 165
-510 0 -510 0 0 -165z M4560 1595 l0 -65 -80 0 -80 0 0 -100 c0 -60 4 -100 10
-100 6 0 10 37 10 90 l0 90 80 0 80 0 0 75 c0 43 -4 75 -10 75 -6 0 -10 -28
-10 -65z M4608 1573 l-3 -88 -50 -1 c-118 -4 -105 6 -105 -79 0 -43 4 -75 10
-75 6 0 10 28 10 65 l0 65 80 0 80 0 0 100 c0 124 -18 134 -22 13z M4680 1495
l0 -165 170 0 170 0 0 165 0 165 -170 0 -170 0 0 -165z M5190 1595 l0 -65 -60
0 -60 0 0 -100 c0 -60 4 -100 10 -100 6 0 10 37 10 90 l0 90 51 0 c57 0 66
-23 11 -28 l-32 -3 0 -75 c0 -43 4 -74 10 -74 6 0 10 28 10 65 0 63 1 65 25
65 24 0 25 -2 25 -65 l0 -65 340 0 340 0 0 165 0 165 -340 0 -340 0 0 -65z
M6030 1595 l0 -65 -60 0 -60 0 0 -100 c0 -60 4 -100 10 -100 6 0 10 37 10 90
l0 90 51 0 c57 0 66 -23 11 -28 l-32 -3 0 -75 c0 -43 4 -74 10 -74 6 0 10 28
10 65 0 63 1 65 25 65 24 0 25 -2 25 -65 l0 -65 170 0 170 0 0 165 0 165 -170
0 -170 0 0 -65z M6420 1495 c0 -103 4 -165 10 -165 6 0 10 62 10 165 0 103 -4
165 -10 165 -6 0 -10 -62 -10 -165z M6470 1495 c0 -103 4 -165 10 -165 6 0 10
62 10 165 0 103 -4 165 -10 165 -6 0 -10 -62 -10 -165z M6540 1495 l0 -165
170 0 170 0 0 165 0 165 -170 0 -170 0 0 -165z M6930 1495 c0 -103 4 -165 10
-165 6 0 10 62 10 165 0 103 -4 165 -10 165 -6 0 -10 -62 -10 -165z M6980
1495 c0 -103 4 -165 10 -165 6 0 10 62 10 165 0 103 -4 165 -10 165 -6 0 -10
-62 -10 -165z M7040 1495 l0 -165 170 0 170 0 0 165 0 165 -170 0 -170 0 0
-165z M7550 1595 l0 -65 -60 0 -60 0 0 -100 c0 -60 4 -100 10 -100 6 0 10 37
10 90 l0 90 51 0 c57 0 66 -23 11 -28 l-32 -3 0 -75 c0 -43 4 -74 10 -74 6 0
10 28 10 65 0 63 1 65 25 65 24 0 25 -2 25 -65 l0 -65 170 0 170 0 0 65 c0 63
1 65 25 65 24 0 25 -2 25 -65 0 -37 4 -65 10 -65 6 0 10 31 10 74 l0 75 -32 3
c-17 2 -33 9 -36 16 -3 10 8 12 44 10 l49 -3 3 -87 c4 -122 22 -112 22 12 l0
100 -60 0 -60 0 0 65 0 65 -170 0 -170 0 0 -65z M8220 1495 l0 -165 170 0 170
0 0 165 0 165 -170 0 -170 0 0 -165z M8610 1495 c0 -103 4 -165 10 -165 6 0
10 62 10 165 0 103 -4 165 -10 165 -6 0 -10 -62 -10 -165z M8660 1495 c0 -103
4 -165 10 -165 6 0 10 62 10 165 0 103 -4 165 -10 165 -6 0 -10 -62 -10 -165z
M8730 1495 l0 -165 590 0 590 0 0 165 0 165 -590 0 -590 0 0 -165z M9960 1495
c0 -103 4 -165 10 -165 6 0 10 62 10 165 0 103 -4 165 -10 165 -6 0 -10 -62
-10 -165z M10010 1495 c0 -103 4 -165 10 -165 6 0 10 62 10 165 0 103 -4 165
-10 165 -6 0 -10 -62 -10 -165z M10080 1495 l0 -165 170 0 170 0 0 165 0 165
-170 0 -170 0 0 -165z M10470 1495 c0 -103 4 -165 10 -165 6 0 10 62 10 165 0
103 -4 165 -10 165 -6 0 -10 -62 -10 -165z M10520 1495 c0 -103 4 -165 10
-165 6 0 10 62 10 165 0 103 -4 165 -10 165 -6 0 -10 -62 -10 -165z M970 1155
l0 -165 170 0 170 0 0 165 0 165 -170 0 -170 0 0 -165z M1360 1155 c0 -103 4
-165 10 -165 6 0 10 62 10 165 0 103 -4 165 -10 165 -6 0 -10 -62 -10 -165z
M1410 1155 c0 -103 4 -165 10 -165 6 0 10 62 10 165 0 103 -4 165 -10 165 -6
0 -10 -62 -10 -165z M1990 1155 l0 -165 165 0 165 0 0 165 0 165 -165 0 -165
0 0 -165z M2880 1255 l0 -65 -255 0 -255 0 0 -100 c0 -60 4 -100 10 -100 6 0
10 37 10 90 l0 90 255 0 255 0 0 75 c0 43 -4 75 -10 75 -6 0 -10 -28 -10 -65z
M2928 1233 l-3 -88 -220 -2 c-121 -1 -235 -2 -252 -3 l-33 0 0 -75 c0 -43 4
-75 10 -75 6 0 10 28 10 65 l0 65 255 0 255 0 0 100 c0 124 -18 134 -22 13z
M3330 1155 l0 -165 170 0 170 0 0 165 0 165 -170 0 -170 0 0 -165z M4180 1255
l0 -65 -230 0 -230 0 0 -100 c0 -60 4 -100 10 -100 6 0 10 37 10 90 l0 90 221
0 c172 0 220 -3 216 -12 -3 -10 -48 -14 -173 -15 -93 -1 -184 -2 -201 -3 l-33
0 0 -75 c0 -43 4 -75 10 -75 6 0 10 28 10 65 l0 65 195 0 195 0 0 -65 0 -65
170 0 170 0 0 65 c0 58 2 65 20 65 18 0 20 -7 20 -65 0 -37 4 -65 10 -65 6 0
10 31 10 74 0 73 0 75 -27 78 -14 2 -28 9 -31 16 -3 10 7 12 39 10 l44 -3 3
-87 c4 -122 22 -112 22 12 l0 100 -55 0 -55 0 0 65 0 65 -170 0 -170 0 0 -65z
M4680 1155 l0 -165 170 0 170 0 0 165 0 165 -170 0 -170 0 0 -165z M5070 1155
c0 -103 4 -165 10 -165 6 0 10 62 10 165 0 103 -4 165 -10 165 -6 0 -10 -62
-10 -165z M5120 1155 c0 -103 4 -165 10 -165 6 0 10 62 10 165 0 103 -4 165
-10 165 -6 0 -10 -62 -10 -165z M5240 1220 l0 -100 60 0 60 0 0 -65 0 -65 170
0 170 0 0 165 0 165 -170 0 -170 0 0 -65 c0 -63 -1 -65 -25 -65 -24 0 -25 2
-25 65 0 37 -4 65 -10 65 -6 0 -10 -32 -10 -75 l0 -75 36 0 c24 0 34 -4 32
-12 -3 -8 -22 -13 -49 -13 l-44 0 -3 88 c-4 121 -22 111 -22 -13z M5910 1255
l0 -65 -80 0 -80 0 0 -100 c0 -60 4 -100 10 -100 6 0 10 37 10 90 l0 90 80 0
80 0 0 75 c0 43 -4 75 -10 75 -6 0 -10 -28 -10 -65z M5958 1233 l-3 -88 -50
-1 c-118 -4 -105 6 -105 -79 0 -43 4 -75 10 -75 6 0 10 28 10 65 l0 65 80 0
80 0 0 100 c0 124 -18 134 -22 13z M6030 1155 l0 -165 170 0 170 0 0 165 0
165 -170 0 -170 0 0 -165z M6420 1155 c0 -103 4 -165 10 -165 6 0 10 62 10
165 0 103 -4 165 -10 165 -6 0 -10 -62 -10 -165z M6470 1155 c0 -103 4 -165
10 -165 6 0 10 62 10 165 0 103 -4 165 -10 165 -6 0 -10 -62 -10 -165z M6540
1155 l0 -165 170 0 170 0 0 165 0 165 -170 0 -170 0 0 -165z M6930 1155 c0
-103 4 -165 10 -165 6 0 10 62 10 165 0 103 -4 165 -10 165 -6 0 -10 -62 -10
-165z M6980 1155 c0 -103 4 -165 10 -165 6 0 10 62 10 165 0 103 -4 165 -10
165 -6 0 -10 -62 -10 -165z M7040 1155 l0 -165 170 0 170 0 0 165 0 165 -170
0 -170 0 0 -165z M7430 1155 c0 -103 4 -165 10 -165 6 0 10 62 10 165 0 103
-4 165 -10 165 -6 0 -10 -62 -10 -165z M7480 1155 c0 -103 4 -165 10 -165 6 0
10 62 10 165 0 103 -4 165 -10 165 -6 0 -10 -62 -10 -165z M7600 1220 l0 -100
60 0 60 0 0 -65 0 -65 170 0 170 0 0 65 c0 63 1 65 25 65 24 0 25 -2 25 -65 0
-37 4 -65 10 -65 6 0 10 31 10 74 l0 75 -32 3 c-17 2 -33 9 -36 16 -3 10 8 12
44 10 l49 -3 3 -87 c4 -122 22 -112 22 12 l0 100 -60 0 -60 0 0 65 0 65 -170
0 -170 0 0 -65 c0 -63 -1 -65 -25 -65 -24 0 -25 2 -25 65 0 37 -4 65 -10 65
-6 0 -10 -32 -10 -75 l0 -75 36 0 c24 0 34 -4 32 -12 -3 -8 -22 -13 -49 -13
l-44 0 -3 88 c-4 121 -22 111 -22 -13z M8220 1155 l0 -165 170 0 170 0 0 165
0 165 -170 0 -170 0 0 -165z M8610 1155 c0 -103 4 -165 10 -165 6 0 10 62 10
165 0 103 -4 165 -10 165 -6 0 -10 -62 -10 -165z M8660 1155 c0 -103 4 -165
10 -165 6 0 10 62 10 165 0 103 -4 165 -10 165 -6 0 -10 -62 -10 -165z M8730
1155 l0 -165 170 0 170 0 0 165 0 165 -170 0 -170 0 0 -165z M9570 1255 l0
-65 -225 0 -225 0 0 -100 c0 -60 4 -100 10 -100 6 0 10 37 10 90 l0 90 216 0
c168 0 215 -3 211 -12 -3 -10 -47 -14 -168 -15 -90 -1 -179 -2 -196 -3 l-33 0
0 -75 c0 -43 4 -75 10 -75 6 0 10 28 10 65 l0 65 190 0 190 0 0 -65 0 -65 170
0 170 0 0 165 0 165 -170 0 -170 0 0 -65z M9960 1155 c0 -103 4 -165 10 -165
6 0 10 62 10 165 0 103 -4 165 -10 165 -6 0 -10 -62 -10 -165z M10010 1155 c0
-103 4 -165 10 -165 6 0 10 62 10 165 0 103 -4 165 -10 165 -6 0 -10 -62 -10
-165z M10080 1155 l0 -165 170 0 170 0 0 165 0 165 -170 0 -170 0 0 -165z
M10470 1155 c0 -103 4 -165 10 -165 6 0 10 62 10 165 0 103 -4 165 -10 165 -6
0 -10 -62 -10 -165z M10520 1155 c0 -103 4 -165 10 -165 6 0 10 62 10 165 0
103 -4 165 -10 165 -6 0 -10 -62 -10 -165z M970 815 l0 -165 170 0 170 0 0
165 0 165 -170 0 -170 0 0 -165z M1360 815 c0 -103 4 -165 10 -165 6 0 10 62
10 165 0 103 -4 165 -10 165 -6 0 -10 -62 -10 -165z M1410 815 c0 -103 4 -165
10 -165 6 0 10 62 10 165 0 103 -4 165 -10 165 -6 0 -10 -62 -10 -165z M1990
815 l0 -165 590 0 590 0 0 65 c0 63 1 65 25 65 24 0 25 -2 25 -65 0 -37 4 -65
10 -65 6 0 10 31 10 74 l0 75 -32 3 c-17 2 -33 9 -36 16 -3 10 8 12 44 10 l49
-3 3 -87 c4 -122 22 -112 22 12 l0 100 -60 0 -60 0 0 65 0 65 -590 0 -590 0 0
-165z M3330 815 l0 -165 170 0 170 0 0 165 0 165 -170 0 -170 0 0 -165z M3720
815 c0 -103 4 -165 10 -165 6 0 10 62 10 165 0 103 -4 165 -10 165 -6 0 -10
-62 -10 -165z M3770 815 c0 -103 4 -165 10 -165 6 0 10 62 10 165 0 103 -4
165 -10 165 -6 0 -10 -62 -10 -165z M4180 815 l0 -165 170 0 170 0 0 165 0
165 -170 0 -170 0 0 -165z M4560 815 c0 -103 4 -165 10 -165 6 0 10 62 10 165
0 103 -4 165 -10 165 -6 0 -10 -62 -10 -165z M4610 815 c0 -103 4 -165 10
-165 6 0 10 62 10 165 0 103 -4 165 -10 165 -6 0 -10 -62 -10 -165z M4680 815
l0 -165 170 0 170 0 0 165 0 165 -170 0 -170 0 0 -165z M5070 815 c0 -103 4
-165 10 -165 6 0 10 62 10 165 0 103 -4 165 -10 165 -6 0 -10 -62 -10 -165z
M5120 815 c0 -103 4 -165 10 -165 6 0 10 62 10 165 0 103 -4 165 -10 165 -6 0
-10 -62 -10 -165z M5410 880 l0 -100 205 0 205 0 0 100 c0 124 -18 134 -22 13
l-3 -88 -180 0 -180 0 -3 88 c-4 121 -22 111 -22 -13z M5460 905 l0 -75 155 0
155 0 0 75 c0 43 -4 75 -10 75 -6 0 -10 -28 -10 -65 l0 -65 -135 0 -135 0 0
65 c0 37 -4 65 -10 65 -6 0 -10 -32 -10 -75z M6030 815 l0 -165 170 0 170 0 0
165 0 165 -170 0 -170 0 0 -165z M6420 815 c0 -103 4 -165 10 -165 6 0 10 62
10 165 0 103 -4 165 -10 165 -6 0 -10 -62 -10 -165z M6470 815 c0 -103 4 -165
10 -165 6 0 10 62 10 165 0 103 -4 165 -10 165 -6 0 -10 -62 -10 -165z M6540
815 l0 -165 170 0 170 0 0 165 0 165 -170 0 -170 0 0 -165z M6930 815 c0 -103
4 -165 10 -165 6 0 10 62 10 165 0 103 -4 165 -10 165 -6 0 -10 -62 -10 -165z
M6980 815 c0 -103 4 -165 10 -165 6 0 10 62 10 165 0 103 -4 165 -10 165 -6 0
-10 -62 -10 -165z M7040 815 l0 -165 170 0 170 0 0 165 0 165 -170 0 -170 0 0
-165z M7430 815 c0 -103 4 -165 10 -165 6 0 10 62 10 165 0 103 -4 165 -10
165 -6 0 -10 -62 -10 -165z M7480 815 c0 -103 4 -165 10 -165 6 0 10 62 10
165 0 103 -4 165 -10 165 -6 0 -10 -62 -10 -165z M7770 880 l0 -100 60 0 60 0
0 -65 0 -65 335 0 335 0 0 165 0 165 -335 0 -335 0 0 -65 c0 -63 -1 -65 -25
-65 -24 0 -25 2 -25 65 0 37 -4 65 -10 65 -6 0 -10 -32 -10 -75 l0 -75 36 0
c24 0 34 -4 32 -12 -3 -8 -22 -13 -49 -13 l-44 0 -3 88 c-4 121 -22 111 -22
-13z M8610 815 c0 -103 4 -165 10 -165 6 0 10 62 10 165 0 103 -4 165 -10 165
-6 0 -10 -62 -10 -165z M8660 815 c0 -103 4 -165 10 -165 6 0 10 62 10 165 0
103 -4 165 -10 165 -6 0 -10 -62 -10 -165z M8730 815 l0 -165 170 0 170 0 0
165 0 165 -170 0 -170 0 0 -165z M9120 815 c0 -103 4 -165 10 -165 6 0 10 62
10 165 0 103 -4 165 -10 165 -6 0 -10 -62 -10 -165z M9170 815 c0 -103 4 -165
10 -165 6 0 10 62 10 165 0 103 -4 165 -10 165 -6 0 -10 -62 -10 -165z M9570
815 l0 -165 170 0 170 0 0 165 0 165 -170 0 -170 0 0 -165z M9960 815 c0 -103
4 -165 10 -165 6 0 10 62 10 165 0 103 -4 165 -10 165 -6 0 -10 -62 -10 -165z
M10010 815 c0 -103 4 -165 10 -165 6 0 10 62 10 165 0 103 -4 165 -10 165 -6
0 -10 -62 -10 -165z M10080 815 l0 -165 590 0 590 0 0 65 c0 63 1 65 25 65 24
0 25 -2 25 -65 0 -37 4 -65 10 -65 6 0 10 31 10 74 l0 75 -32 3 c-17 2 -33 9
-36 16 -3 10 8 12 44 10 l49 -3 3 -87 c4 -122 22 -112 22 12 l0 100 -60 0 -60
0 0 65 0 65 -590 0 -590 0 0 -165z M1020 540 l0 -100 205 0 205 0 0 100 c0
124 -18 134 -22 13 l-3 -88 -180 0 -180 0 -3 88 c-4 121 -22 111 -22 -13z
M1070 565 l0 -75 155 0 155 0 0 75 c0 43 -4 75 -10 75 -6 0 -10 -28 -10 -65
l0 -65 -135 0 -135 0 0 65 c0 37 -4 65 -10 65 -6 0 -10 -32 -10 -75z M2040
540 l0 -100 625 0 625 0 0 100 c0 124 -18 134 -22 13 l-3 -88 -600 0 -600 0
-3 88 c-4 121 -22 111 -22 -13z M2090 565 l0 -75 575 0 575 0 0 75 c0 43 -4
75 -10 75 -6 0 -10 -28 -10 -65 l0 -65 -555 0 -555 0 0 65 c0 37 -4 65 -10 65
-6 0 -10 -32 -10 -75z M3380 540 l0 -100 205 0 205 0 0 100 c0 124 -18 134
-22 13 l-3 -88 -180 0 -180 0 -3 88 c-4 121 -22 111 -22 -13z M3430 565 l0
-75 155 0 155 0 0 75 c0 43 -4 75 -10 75 -6 0 -10 -28 -10 -65 l0 -65 -135 0
-135 0 0 65 c0 37 -4 65 -10 65 -6 0 -10 -32 -10 -75z M4230 540 l0 -100 200
0 200 0 0 100 c0 124 -18 134 -22 13 l-3 -88 -175 0 -175 0 -3 88 c-4 121 -22
111 -22 -13z M4280 565 l0 -75 150 0 150 0 0 75 c0 43 -4 75 -10 75 -6 0 -10
-28 -10 -65 l0 -65 -130 0 -130 0 0 65 c0 37 -4 65 -10 65 -6 0 -10 -32 -10
-75z M4730 540 l0 -100 205 0 205 0 0 100 c0 124 -18 134 -22 13 l-3 -88 -180
0 -180 0 -3 88 c-4 121 -22 111 -22 -13z M4780 565 l0 -75 155 0 155 0 0 75
c0 43 -4 75 -10 75 -6 0 -10 -28 -10 -65 l0 -65 -135 0 -135 0 0 65 c0 37 -4
65 -10 65 -6 0 -10 -32 -10 -75z M6080 540 l0 -100 205 0 205 0 0 100 c0 124
-18 134 -22 13 l-3 -88 -180 0 -180 0 -3 88 c-4 121 -22 111 -22 -13z M6130
565 l0 -75 155 0 155 0 0 75 c0 43 -4 75 -10 75 -6 0 -10 -28 -10 -65 l0 -65
-135 0 -135 0 0 65 c0 37 -4 65 -10 65 -6 0 -10 -32 -10 -75z M6590 540 l0
-100 205 0 205 0 0 100 c0 124 -18 134 -22 13 l-3 -88 -180 0 -180 0 -3 88
c-4 121 -22 111 -22 -13z M6640 565 l0 -75 155 0 155 0 0 75 c0 43 -4 75 -10
75 -6 0 -10 -28 -10 -65 l0 -65 -135 0 -135 0 0 65 c0 37 -4 65 -10 65 -6 0
-10 -32 -10 -75z M7090 540 l0 -100 205 0 205 0 0 100 c0 124 -18 134 -22 13
l-3 -88 -180 0 -180 0 -3 88 c-4 121 -22 111 -22 -13z M7140 565 l0 -75 155 0
155 0 0 75 c0 43 -4 75 -10 75 -6 0 -10 -28 -10 -65 l0 -65 -135 0 -135 0 0
65 c0 37 -4 65 -10 65 -6 0 -10 -32 -10 -75z M7940 540 l0 -100 370 0 370 0 0
100 c0 124 -18 134 -22 13 l-3 -88 -345 0 -345 0 -3 88 c-4 121 -22 111 -22
-13z M7990 565 l0 -75 320 0 320 0 0 75 c0 43 -4 75 -10 75 -6 0 -10 -28 -10
-65 l0 -65 -300 0 -300 0 0 65 c0 37 -4 65 -10 65 -6 0 -10 -32 -10 -75z
M8780 540 l0 -100 205 0 205 0 0 100 c0 124 -18 134 -22 13 l-3 -88 -180 0
-180 0 -3 88 c-4 121 -22 111 -22 -13z M8830 565 l0 -75 155 0 155 0 0 75 c0
43 -4 75 -10 75 -6 0 -10 -28 -10 -65 l0 -65 -135 0 -135 0 0 65 c0 37 -4 65
-10 65 -6 0 -10 -32 -10 -75z M9620 540 l0 -100 205 0 205 0 0 100 c0 124 -18
134 -22 13 l-3 -88 -180 0 -180 0 -3 88 c-4 121 -22 111 -22 -13z M9670 565
l0 -75 155 0 155 0 0 75 c0 43 -4 75 -10 75 -6 0 -10 -28 -10 -65 l0 -65 -135
0 -135 0 0 65 c0 37 -4 65 -10 65 -6 0 -10 -32 -10 -75z M10130 540 l0 -100
625 0 625 0 0 100 c0 124 -18 134 -22 13 l-3 -88 -600 0 -600 0 -3 88 c-4 121
-22 111 -22 -13z M10180 565 l0 -75 575 0 575 0 0 75 c0 43 -4 75 -10 75 -6 0
-10 -28 -10 -65 l0 -65 -555 0 -555 0 0 65 c0 37 -4 65 -10 65 -6 0 -10 -32
-10 -75z"/>
  </g>
</svg>